SplineFontDB: 3.0
FontName: IstokWeb-Italic
FullName: Istok Web Italic
FamilyName: Istok Web
Weight: Medium
Copyright: (C) 2008, 2009, 2010, 2011 Andrey V. Panov
Version: 0.4.2.1
ItalicAngle: -13
UnderlinePosition: -204
UnderlineWidth: 102
Ascent: 1548
Descent: 500
sfntRevision: 0x00006666
LayerCount: 2
Layer: 0 1 "Back"  1
Layer: 1 1 "Fore"  0
XUID: [1021 288 713564382 14277151]
FSType: 0
OS2Version: 4
OS2_WeightWidthSlopeOnly: 0
OS2_UseTypoMetrics: 1
CreationTime: 1225286394
ModificationTime: 1310106233
PfmFamily: 33
TTFWeight: 500
TTFWidth: 5
LineGap: 0
VLineGap: 0
Panose: 2 15 6 3 3 4 3 9 2 4
OS2TypoAscent: 2061
OS2TypoAOffset: 0
OS2TypoDescent: -887
OS2TypoDOffset: 0
OS2TypoLinegap: 0
OS2WinAscent: 2061
OS2WinAOffset: 0
OS2WinDescent: 887
OS2WinDOffset: 0
HheadAscent: 2061
HheadAOffset: 0
HheadDescent: -887
HheadDOffset: 0
OS2SubXSize: 1331
OS2SubYSize: 1433
OS2SubXOff: 64
OS2SubYOff: 286
OS2SupXSize: 1331
OS2SupYSize: 1433
OS2SupXOff: -221
OS2SupYOff: 983
OS2StrikeYSize: 102
OS2StrikeYPos: 530
OS2FamilyClass: 2048
OS2Vendor: 'PfEd'
OS2CodePages: 00000016.00000000
OS2UnicodeRanges: a00002ff.5000405b.00000000.00000000
Lookup: 4 0 1 "'liga' Standard Ligatures in Cyrillic lookup 0"  {"'liga' Standard Ligatures in Cyrillic lookup 0 subtable"  } ['liga' ('cyrl' <'MKD ' 'SRB ' 'dflt' > ) ]
Lookup: 4 0 1 "'liga' Standard Ligatures in Latin lookup 1"  {"'liga' Standard Ligatures in Latin lookup 1 subtable"  } ['liga' ('latn' <'NLD ' 'VIT ' 'dflt' > ) ]
Lookup: 4 0 1 "'liga' Standard Ligatures in Latin lookup 2"  {"'liga' Standard Ligatures in Latin lookup 2 subtable"  } ['liga' ('latn' <'AZE ' 'NLD ' 'TRK ' 'VIT ' 'dflt' > ) ]
Lookup: 1 0 0 "'tnum' Tabular Numbers lookup 3"  {"'tnum' Tabular Numbers lookup 3 subtable"  } ['tnum' ('cyrl' <'dflt' > 'grek' <'dflt' > 'latn' <'dflt' > ) ]
Lookup: 1 0 0 "'onum' Oldstyle Figures lookup 4"  {"'onum' Oldstyle Figures lookup 4 subtable" ("oldstyle" ) } ['onum' ('cyrl' <'dflt' > 'grek' <'dflt' > 'latn' <'dflt' > ) ]

StartChar: .notdef
Encoding: 0 -1 0
AltUni2: 000000.ffffffff.0
Width: 1240
Flags: W
LayerCount: 2
Fore
SplineSet
241 0 m 2,0,1
 196 0 196 0 196 45 c 2,2,-1
 196 1389 l 2,3,4
 196 1434 196 1434 233 1434 c 2,5,-1
 1091 1434 l 2,6,7
 1136 1434 1136 1434 1136 1389 c 2,8,-1
 1136 45 l 2,9,10
 1136 0 1136 0 1091 0 c 2,11,-1
 241 0 l 2,0,1
316 120 m 1,12,-1
 1016 120 l 1,13,-1
 1016 1314 l 1,14,-1
 316 1314 l 1,15,-1
 316 120 l 1,12,-1
EndSplineSet
EndChar

StartChar: exclam
Encoding: 33 33 4
Width: 600
GlyphClass: 2
Flags: W
LayerCount: 2
Fore
SplineSet
396 1379 m 2,0,1
 407 1434 407 1434 459 1434 c 2,2,-1
 563 1434 l 2,3,4
 613 1434 613 1434 600 1379 c 2,5,-1
 361 435 l 2,6,7
 350 390 350 390 306 390 c 2,8,-1
 234 390 l 2,9,10
 189 390 189 390 199 435 c 2,11,-1
 396 1379 l 2,0,1
124 0 m 2,12,13
 79 0 79 0 89 45 c 2,14,-1
 118 167 l 2,15,16
 128 212 128 212 173 212 c 2,17,-1
 285 212 l 2,18,19
 330 212 330 212 320 167 c 2,20,-1
 291 45 l 2,21,22
 281 0 281 0 236 0 c 2,23,-1
 124 0 l 2,12,13
EndSplineSet
EndChar

StartChar: numbersign
Encoding: 35 35 6
Width: 1390
GlyphClass: 2
Flags: W
LayerCount: 2
Fore
SplineSet
165 375 m 2,0,1
 120 375 120 375 126 410 c 2,2,-1
 135 460 l 2,3,4
 141 495 141 495 186 495 c 2,5,-1
 401 495 l 1,6,-1
 477 927 l 1,7,-1
 262 927 l 2,8,9
 218 927 218 927 224 962 c 2,10,-1
 232 1012 l 2,11,12
 238 1047 238 1047 284 1047 c 2,13,-1
 499 1047 l 1,14,-1
 557 1377 l 2,15,16
 565 1422 565 1422 600 1422 c 2,17,-1
 662 1422 l 2,18,19
 697 1422 697 1422 689 1377 c 2,20,-1
 631 1047 l 1,21,-1
 967 1047 l 1,22,-1
 1025 1377 l 2,23,24
 1033 1422 1033 1422 1068 1422 c 2,25,-1
 1130 1422 l 2,26,27
 1165 1422 1165 1422 1157 1377 c 2,28,-1
 1099 1047 l 1,29,-1
 1314 1047 l 2,30,31
 1358 1047 1358 1047 1352 1012 c 2,32,-1
 1344 962 l 2,33,34
 1338 927 1338 927 1292 927 c 2,35,-1
 1077 927 l 1,36,-1
 1001 495 l 1,37,-1
 1216 495 l 2,38,39
 1261 495 1261 495 1255 460 c 2,40,-1
 1246 410 l 2,41,42
 1240 375 1240 375 1195 375 c 2,43,-1
 980 375 l 1,44,-1
 922 45 l 2,45,46
 914 0 914 0 879 0 c 2,47,-1
 817 0 l 2,48,49
 782 0 782 0 790 45 c 2,50,-1
 848 375 l 1,51,-1
 512 375 l 1,52,-1
 454 45 l 2,53,54
 446 0 446 0 411 0 c 2,55,-1
 349 0 l 2,56,57
 314 0 314 0 322 45 c 2,58,-1
 380 375 l 1,59,-1
 165 375 l 2,0,1
533 495 m 1,60,-1
 869 495 l 1,61,-1
 945 927 l 1,62,-1
 609 927 l 1,63,-1
 533 495 l 1,60,-1
EndSplineSet
EndChar

StartChar: dollar
Encoding: 36 36 7
Width: 1110
GlyphClass: 2
Flags: W
LayerCount: 2
Fore
SplineSet
54 99 m 0,0,1
 3 149 3 149 34 185 c 2,2,-1
 78 236 l 2,3,4
 110 273 110 273 164 222 c 0,5,6
 234 156 234 156 293 141 c 128,-1,7
 352 126 352 126 414 122 c 1,8,-1
 539 663 l 1,9,10
 499 685 499 685 453 714 c 0,11,12
 398 748 398 748 359 791 c 128,-1,13
 320 834 320 834 291.5 896 c 128,-1,14
 263 958 263 958 263 1069 c 0,15,16
 263 1230 263 1230 361.5 1317 c 128,-1,17
 460 1404 460 1404 546 1425.5 c 128,-1,18
 632 1447 632 1447 721 1451 c 1,19,-1
 749 1571 l 2,20,21
 759 1616 759 1616 794 1616 c 2,22,-1
 844 1616 l 2,23,24
 879 1616 879 1616 869 1571 c 2,25,-1
 840 1446 l 1,26,27
 896 1438 896 1438 963 1410 c 128,-1,28
 1030 1382 1030 1382 1069 1343 c 0,29,30
 1114 1298 1114 1298 1086 1263 c 2,31,-1
 1038 1204 l 2,32,33
 1012 1172 1012 1172 974 1208 c 0,34,35
 933 1246 933 1246 880.5 1264.5 c 128,-1,36
 828 1283 828 1283 804 1289 c 1,37,-1
 687 784 l 1,38,39
 750 754 750 754 812 710 c 0,40,41
 864 673 864 673 897.5 634.5 c 128,-1,42
 931 596 931 596 955 535.5 c 128,-1,43
 979 475 979 475 979 385 c 0,44,45
 979 244 979 244 881.5 141 c 128,-1,46
 784 38 784 38 689.5 7 c 128,-1,47
 595 -24 595 -24 499 -29 c 1,48,-1
 468 -165 l 2,49,50
 458 -210 458 -210 423 -210 c 2,51,-1
 373 -210 l 2,52,53
 338 -210 338 -210 348 -165 c 2,54,-1
 380 -28 l 1,55,56
 272 -21 272 -21 193 9.5 c 128,-1,57
 114 40 114 40 54 99 c 0,0,1
449 1084 m 0,58,59
 449 1026 449 1026 463 971.5 c 128,-1,60
 477 917 477 917 534 872 c 0,61,62
 556 855 556 855 580 839 c 1,63,-1
 687 1301 l 1,64,65
 594 1295 594 1295 521.5 1237 c 128,-1,66
 449 1179 449 1179 449 1084 c 0,58,59
535 125 m 1,67,68
 610 139 610 139 696.5 206.5 c 128,-1,69
 783 274 783 274 783 382 c 0,70,71
 783 432 783 432 769.5 485 c 128,-1,72
 756 538 756 538 686 582 c 0,73,74
 667 595 667 595 646 606 c 1,75,-1
 535 125 l 1,67,68
EndSplineSet
EndChar

StartChar: ampersand
Encoding: 38 38 9
Width: 1354
GlyphClass: 2
Flags: W
LayerCount: 2
Fore
SplineSet
71 290 m 0,0,1
 71 393 71 393 162.5 528 c 128,-1,2
 254 663 254 663 497 817 c 1,3,4
 472 868 472 868 436.5 956.5 c 128,-1,5
 401 1045 401 1045 401 1157 c 0,6,7
 401 1277 401 1277 488 1370.5 c 128,-1,8
 575 1464 575 1464 769 1464 c 0,9,10
 875 1464 875 1464 971 1400 c 128,-1,11
 1067 1336 1067 1336 1067 1179 c 0,12,13
 1067 1084 1067 1084 965.5 983 c 128,-1,14
 864 882 864 882 719 793 c 1,15,-1
 954 406 l 1,16,17
 1003 448 1003 448 1063.5 530 c 128,-1,18
 1124 612 1124 612 1144 659 c 0,19,20
 1163 704 1163 704 1198 688 c 2,21,-1
 1265 658 l 2,22,23
 1306 640 1306 640 1289 601 c 0,24,25
 1251 514 1251 514 1168 419.5 c 128,-1,26
 1085 325 1085 325 1030 280 c 1,27,-1
 1165 58 l 2,28,29
 1200 0 1200 0 1134 0 c 2,30,-1
 1053 0 l 2,31,32
 995 0 995 0 969 43 c 2,33,-1
 889 173 l 1,34,35
 775 82 775 82 688.5 26 c 128,-1,36
 602 -30 602 -30 449 -30 c 0,37,38
 277 -30 277 -30 174 47 c 128,-1,39
 71 124 71 124 71 290 c 0,0,1
266 307 m 0,40,41
 266 215 266 215 313.5 165 c 128,-1,42
 361 115 361 115 483 115 c 0,43,44
 575 115 575 115 654 168 c 128,-1,45
 733 221 733 221 816 293 c 1,46,-1
 571 698 l 1,47,48
 418 606 418 606 342 501.5 c 128,-1,49
 266 397 266 397 266 307 c 0,40,41
581 1143 m 0,50,51
 581 1052 581 1052 600.5 1003 c 128,-1,52
 620 954 620 954 644 911 c 1,53,54
 776 1000 776 1000 831.5 1066 c 128,-1,55
 887 1132 887 1132 887 1195 c 0,56,57
 887 1251 887 1251 852 1288 c 128,-1,58
 817 1325 817 1325 743 1325 c 0,59,60
 677 1325 677 1325 629 1280.5 c 128,-1,61
 581 1236 581 1236 581 1143 c 0,50,51
EndSplineSet
EndChar

StartChar: quotesingle
Encoding: 39 39 10
Width: 478
GlyphClass: 2
Flags: W
LayerCount: 2
Fore
SplineSet
357 1414 m 2,0,1
 368 1469 368 1469 406 1469 c 2,2,-1
 510 1469 l 2,3,4
 548 1469 548 1469 533 1414 c 2,5,-1
 387 869 l 2,6,7
 374 824 374 824 341 824 c 2,8,-1
 277 824 l 2,9,10
 244 824 244 824 253 869 c 2,11,-1
 357 1414 l 2,0,1
EndSplineSet
EndChar

StartChar: parenleft
Encoding: 40 40 11
Width: 670
GlyphClass: 2
Flags: W
LayerCount: 2
Fore
SplineSet
90 316 m 0,0,1
 90 603 90 603 241.5 904.5 c 128,-1,2
 393 1206 393 1206 714 1497 c 0,3,4
 757 1536 757 1536 784 1511 c 2,5,-1
 816 1481 l 2,6,7
 844 1455 844 1455 809 1423 c 0,8,9
 687 1314 687 1314 486.5 991.5 c 128,-1,10
 286 669 286 669 286 286 c 0,11,12
 286 45 286 45 317 -111 c 128,-1,13
 348 -267 348 -267 390 -343 c 0,14,15
 413 -384 413 -384 386 -402 c 2,16,-1
 349 -426 l 2,17,18
 319 -445 319 -445 283 -400 c 0,19,20
 189 -282 189 -282 139.5 -68 c 128,-1,21
 90 146 90 146 90 316 c 0,0,1
EndSplineSet
EndChar

StartChar: parenright
Encoding: 41 41 12
Width: 670
GlyphClass: 2
Flags: W
LayerCount: 2
Fore
SplineSet
-135 -393 m 2,0,1
 -163 -367 -163 -367 -128 -335 c 0,2,3
 -6 -226 -6 -226 194.5 96.5 c 128,-1,4
 395 419 395 419 395 802 c 0,5,6
 395 1043 395 1043 364 1199 c 128,-1,7
 333 1355 333 1355 291 1431 c 0,8,9
 268 1472 268 1472 295 1490 c 2,10,-1
 332 1514 l 2,11,12
 362 1533 362 1533 398 1488 c 0,13,14
 492 1370 492 1370 541.5 1156 c 128,-1,15
 591 942 591 942 591 772 c 0,16,17
 591 485 591 485 439.5 183.5 c 128,-1,18
 288 -118 288 -118 -33 -409 c 0,19,20
 -76 -448 -76 -448 -103 -423 c 2,21,-1
 -135 -393 l 2,0,1
EndSplineSet
EndChar

StartChar: asterisk
Encoding: 42 42 13
Width: 940
GlyphClass: 2
Flags: W
LayerCount: 2
Fore
SplineSet
494 1057 m 1,0,-1
 301 1150 l 2,1,2
 228 1185 228 1185 285 1256 c 2,3,-1
 293 1266 l 2,4,5
 350 1336 350 1336 409 1283 c 2,6,-1
 564 1144 l 1,7,-1
 591 1376 l 2,8,9
 601 1464 601 1464 682 1464 c 2,10,-1
 694 1464 l 2,11,12
 775 1464 775 1464 745 1376 c 2,13,-1
 664 1144 l 1,14,-1
 883 1283 l 2,15,16
 966 1336 966 1336 991 1266 c 1,17,-1
 995 1256 l 1,18,19
 1020 1185 1020 1185 929 1150 c 2,20,-1
 694 1057 l 1,21,-1
 887 965 l 2,22,23
 961 930 961 930 903 859 c 2,24,-1
 895 849 l 2,25,26
 838 779 838 779 779 831 c 2,27,-1
 624 971 l 1,28,-1
 598 739 l 1,29,30
 587 651 587 651 506 651 c 2,31,-1
 494 651 l 2,32,33
 413 651 413 651 444 739 c 2,34,-1
 524 971 l 1,35,-1
 305 831 l 2,36,37
 222 779 222 779 197 849 c 1,38,-1
 193 859 l 1,39,40
 169 930 169 930 259 965 c 2,41,-1
 494 1057 l 1,0,-1
EndSplineSet
EndChar

StartChar: plus
Encoding: 43 43 14
Width: 1280
GlyphClass: 2
Flags: W
LayerCount: 2
Fore
SplineSet
172 665 m 2,0,1
 127 665 127 665 127 700 c 2,2,-1
 127 750 l 2,3,4
 127 785 127 785 172 785 c 2,5,-1
 626 785 l 1,6,-1
 626 1239 l 2,7,8
 626 1284 626 1284 661 1284 c 2,9,-1
 711 1284 l 2,10,11
 746 1284 746 1284 746 1239 c 2,12,-1
 746 785 l 1,13,-1
 1202 785 l 2,14,15
 1247 785 1247 785 1247 750 c 2,16,-1
 1247 700 l 2,17,18
 1247 665 1247 665 1202 665 c 2,19,-1
 746 665 l 1,20,-1
 746 209 l 2,21,22
 746 164 746 164 711 164 c 2,23,-1
 661 164 l 2,24,25
 626 164 626 164 626 209 c 2,26,-1
 626 665 l 1,27,-1
 172 665 l 2,0,1
EndSplineSet
Substitution2: "'tnum' Tabular Numbers lookup 3 subtable" plus.tab
EndChar

StartChar: comma
Encoding: 44 44 15
Width: 600
GlyphClass: 2
Flags: W
LayerCount: 2
Fore
SplineSet
122 0 m 2,0,1
 76 0 76 0 87 45 c 2,2,-1
 116 167 l 2,3,4
 127 212 127 212 171 212 c 2,5,-1
 287 212 l 2,6,7
 333 212 333 212 322 167 c 2,8,-1
 293 45 l 2,9,10
 263 -82 263 -82 225.5 -147 c 128,-1,11
 188 -212 188 -212 110 -274 c 0,12,13
 84 -294 84 -294 72 -281 c 2,14,-1
 35 -241 l 2,15,16
 21 -226 21 -226 48 -206 c 0,17,18
 83 -180 83 -180 122 -117.5 c 128,-1,19
 161 -55 161 -55 174 0 c 1,20,-1
 122 0 l 2,0,1
EndSplineSet
EndChar

StartChar: hyphen
Encoding: 45 45 16
Width: 680
GlyphClass: 2
Flags: W
LayerCount: 2
Fore
SplineSet
93 483 m 2,0,1
 48 483 48 483 56 518 c 2,2,-1
 72 588 l 2,3,4
 80 623 80 623 125 623 c 2,5,-1
 603 623 l 2,6,7
 648 623 648 623 640 588 c 2,8,-1
 624 518 l 2,9,10
 616 483 616 483 571 483 c 2,11,-1
 93 483 l 2,0,1
EndSplineSet
EndChar

StartChar: period
Encoding: 46 46 17
Width: 600
GlyphClass: 2
Flags: W
LayerCount: 2
Fore
SplineSet
124 0 m 2,0,1
 79 0 79 0 89 45 c 2,2,-1
 118 167 l 2,3,4
 128 212 128 212 173 212 c 2,5,-1
 285 212 l 2,6,7
 330 212 330 212 320 167 c 2,8,-1
 291 45 l 2,9,10
 281 0 281 0 236 0 c 2,11,-1
 124 0 l 2,0,1
EndSplineSet
EndChar

StartChar: slash
Encoding: 47 47 18
Width: 840
GlyphClass: 2
Flags: W
LayerCount: 2
Fore
SplineSet
-188 -388 m 2,0,1
 -218 -373 -218 -373 -192 -332 c 2,2,-1
 932 1439 l 2,3,4
 959 1482 959 1482 989 1467 c 2,5,-1
 1036 1443 l 2,6,7
 1064 1429 1064 1429 1038 1388 c 2,8,-1
 -86 -383 l 2,9,10
 -113 -426 -113 -426 -141 -412 c 2,11,-1
 -188 -388 l 2,0,1
EndSplineSet
EndChar

StartChar: zero
Encoding: 48 48 19
Width: 1110
GlyphClass: 2
Flags: W
LayerCount: 2
Fore
SplineSet
104 440 m 0,0,1
 104 805 104 805 248 1128.5 c 128,-1,2
 392 1452 392 1452 717 1452 c 0,3,4
 907 1452 907 1452 995.5 1317 c 128,-1,5
 1084 1182 1084 1182 1084 982 c 0,6,7
 1084 617 1084 617 940 293.5 c 128,-1,8
 796 -30 796 -30 471 -30 c 0,9,10
 281 -30 281 -30 192.5 105 c 128,-1,11
 104 240 104 240 104 440 c 0,0,1
290 410 m 0,12,13
 290 310 290 310 334 212 c 128,-1,14
 378 114 378 114 483 114 c 0,15,16
 678 114 678 114 788 388 c 128,-1,17
 898 662 898 662 898 1012 c 0,18,19
 898 1112 898 1112 854 1210 c 128,-1,20
 810 1308 810 1308 705 1308 c 0,21,22
 510 1308 510 1308 400 1034 c 128,-1,23
 290 760 290 760 290 410 c 0,12,13
EndSplineSet
Substitution2: "'onum' Oldstyle Figures lookup 4 subtable" zero.oldstyle
EndChar

StartChar: one
Encoding: 49 49 20
Width: 827
GlyphClass: 2
Flags: W
LayerCount: 2
Fore
SplineSet
302 1148 m 2,0,1
 291 1178 291 1178 337 1194 c 0,2,3
 407 1218 407 1218 500 1286 c 128,-1,4
 593 1354 593 1354 644 1404 c 0,5,6
 681 1440 681 1440 708 1440 c 2,7,-1
 793 1440 l 2,8,9
 839 1440 839 1440 829 1395 c 2,10,-1
 517 45 l 2,11,12
 507 0 507 0 462 0 c 2,13,-1
 376 0 l 2,14,15
 331 0 331 0 341 45 c 2,16,-1
 589 1119 l 2,17,18
 592 1133 592 1133 605 1179 c 1,19,-1
 601 1179 l 1,20,21
 567 1139 567 1139 494.5 1100 c 128,-1,22
 422 1061 422 1061 376 1048 c 0,23,24
 342 1038 342 1038 331 1068 c 2,25,-1
 302 1148 l 2,0,1
EndSplineSet
Substitution2: "'onum' Oldstyle Figures lookup 4 subtable" one.oldstyle
Substitution2: "'tnum' Tabular Numbers lookup 3 subtable" one.tab
EndChar

StartChar: two
Encoding: 50 50 21
Width: 1110
GlyphClass: 2
Flags: W
LayerCount: 2
Fore
SplineSet
29 0 m 2,0,1
 -26 0 -26 0 -16 45 c 2,2,-1
 -5 93 l 2,3,4
 4 131 4 131 45 165 c 2,5,-1
 528 560 l 2,6,7
 743 736 743 736 835 854 c 128,-1,8
 927 972 927 972 927 1101 c 0,9,10
 927 1179 927 1179 876 1240.5 c 128,-1,11
 825 1302 825 1302 704 1302 c 0,12,13
 579 1302 579 1302 501 1230 c 128,-1,14
 423 1158 423 1158 381 1057 c 0,15,16
 359 1003 359 1003 318 1019 c 2,17,-1
 243 1048 l 2,18,19
 210 1061 210 1061 235 1134 c 0,20,21
 276 1254 276 1254 405 1353 c 128,-1,22
 534 1452 534 1452 706 1452 c 0,23,24
 918 1452 918 1452 1020.5 1357.5 c 128,-1,25
 1123 1263 1123 1263 1123 1104 c 0,26,27
 1123 909 1123 909 989.5 771 c 128,-1,28
 856 633 856 633 669 485 c 2,29,-1
 266 166 l 1,30,-1
 265 162 l 1,31,32
 306 164 306 164 346 164 c 2,33,-1
 877 164 l 2,34,35
 931 164 931 164 921 119 c 2,36,-1
 904 45 l 2,37,38
 894 0 894 0 839 0 c 2,39,-1
 29 0 l 2,0,1
EndSplineSet
Substitution2: "'onum' Oldstyle Figures lookup 4 subtable" two.oldstyle
EndChar

StartChar: three
Encoding: 51 51 22
Width: 1110
GlyphClass: 2
Flags: W
LayerCount: 2
Fore
SplineSet
39 148 m 0,0,1
 3 197 3 197 30 224 c 2,2,-1
 87 282 l 1,3,4
 117 314 117 314 166 257 c 0,5,6
 222 192 222 192 295.5 156 c 128,-1,7
 369 120 369 120 445 120 c 0,8,9
 591 120 591 120 694 212 c 128,-1,10
 797 304 797 304 797 441 c 0,11,12
 797 570 797 570 746 633 c 128,-1,13
 695 696 695 696 581 696 c 2,14,-1
 473 696 l 2,15,16
 427 696 427 696 435 729 c 2,17,-1
 452 803 l 2,18,19
 460 838 460 838 505 838 c 2,20,-1
 576 838 l 2,21,22
 708 838 708 838 808.5 930.5 c 128,-1,23
 909 1023 909 1023 909 1131 c 0,24,25
 909 1212 909 1212 852 1257 c 128,-1,26
 795 1302 795 1302 689 1302 c 0,27,28
 591 1302 591 1302 514.5 1257 c 128,-1,29
 438 1212 438 1212 399 1170 c 0,30,31
 357 1125 357 1125 326 1161 c 2,32,-1
 272 1223 l 2,33,34
 244 1254 244 1254 302 1303 c 0,35,36
 372 1362 372 1362 478.5 1407 c 128,-1,37
 585 1452 585 1452 702 1452 c 0,38,39
 900 1452 900 1452 998.5 1362 c 128,-1,40
 1097 1272 1097 1272 1097 1118 c 0,41,42
 1097 992 1097 992 982 890.5 c 128,-1,43
 867 789 867 789 771 778 c 1,44,-1
 770 774 l 1,45,46
 870 747 870 747 931.5 657 c 128,-1,47
 993 567 993 567 993 427 c 0,48,49
 993 276 993 276 855 123 c 128,-1,50
 717 -30 717 -30 431 -30 c 0,51,52
 279 -30 279 -30 182.5 27 c 128,-1,53
 86 84 86 84 39 148 c 0,0,1
EndSplineSet
Substitution2: "'onum' Oldstyle Figures lookup 4 subtable" three.oldstyle
EndChar

StartChar: four
Encoding: 52 52 23
Width: 1110
GlyphClass: 2
Flags: W
LayerCount: 2
Fore
SplineSet
71 354 m 2,0,1
 26 354 26 354 36 399 c 2,2,-1
 56 487 l 2,3,4
 64 519 64 519 96 556 c 2,5,-1
 841 1404 l 2,6,7
 872 1440 872 1440 905 1440 c 2,8,-1
 996 1440 l 2,9,10
 1042 1440 1042 1440 1032 1395 c 2,11,-1
 830 518 l 1,12,-1
 1001 518 l 2,13,14
 1046 518 1046 518 1035 473 c 2,15,-1
 1018 399 l 2,16,17
 1008 354 1008 354 964 354 c 2,18,-1
 792 354 l 1,19,-1
 720 45 l 2,20,21
 710 0 710 0 665 0 c 2,22,-1
 579 0 l 2,23,24
 534 0 534 0 544 45 c 2,25,-1
 616 354 l 1,26,-1
 71 354 l 2,0,1
255 518 m 1,27,-1
 654 518 l 1,28,-1
 781 1073 l 2,29,30
 788 1103 788 1103 797 1133 c 1,31,-1
 795 1133 l 1,32,-1
 255 518 l 1,27,-1
EndSplineSet
Substitution2: "'onum' Oldstyle Figures lookup 4 subtable" four.oldstyle
EndChar

StartChar: five
Encoding: 53 53 24
Width: 1110
GlyphClass: 2
Flags: W
LayerCount: 2
Fore
SplineSet
49 169 m 1,0,1
 15 222 15 222 46 245 c 2,2,-1
 113 294 l 1,3,4
 149 322 149 322 189 263 c 0,5,6
 213 227 213 227 277.5 173.5 c 128,-1,7
 342 120 342 120 469 120 c 0,8,9
 618 120 618 120 709.5 228 c 128,-1,10
 801 336 801 336 801 501 c 0,11,12
 801 630 801 630 745.5 683 c 128,-1,13
 690 736 690 736 578 736 c 0,14,15
 531 736 531 736 482.5 722.5 c 128,-1,16
 434 709 434 709 356 658 c 0,17,18
 306 625 306 625 268 625 c 2,19,-1
 221 625 l 2,20,21
 177 625 177 625 187 670 c 2,22,-1
 350 1377 l 2,23,24
 360 1422 360 1422 405 1422 c 2,25,-1
 1095 1422 l 2,26,27
 1140 1422 1140 1422 1130 1377 c 2,28,-1
 1113 1303 l 2,29,30
 1103 1258 1103 1258 1057 1258 c 2,31,-1
 498 1258 l 1,32,-1
 407 863 l 2,33,34
 402 839 402 839 391 803 c 1,35,-1
 395 803 l 1,36,37
 440 846 440 846 509.5 866 c 128,-1,38
 579 886 579 886 633 886 c 0,39,40
 840 886 840 886 918.5 771.5 c 128,-1,41
 997 657 997 657 997 480 c 0,42,43
 997 261 997 261 845 115.5 c 128,-1,44
 693 -30 693 -30 460 -30 c 0,45,46
 282 -30 282 -30 184.5 38.5 c 128,-1,47
 87 107 87 107 49 169 c 1,0,1
EndSplineSet
Substitution2: "'onum' Oldstyle Figures lookup 4 subtable" five.oldstyle
EndChar

StartChar: six
Encoding: 54 54 25
Width: 1110
GlyphClass: 2
Flags: W
LayerCount: 2
Fore
SplineSet
116 449 m 0,0,1
 116 864 116 864 295 1158 c 128,-1,2
 474 1452 474 1452 790 1452 c 0,3,4
 892 1452 892 1452 975.5 1418 c 128,-1,5
 1059 1384 1059 1384 1107 1329 c 0,6,7
 1146 1284 1146 1284 1121 1263 c 2,8,-1
 1059 1213 l 2,9,10
 1022 1182 1022 1182 987 1226 c 0,11,12
 960 1260 960 1260 902 1281 c 128,-1,13
 844 1302 844 1302 768 1302 c 0,14,15
 612 1302 612 1302 487.5 1144.5 c 128,-1,16
 363 987 363 987 308 743 c 1,17,-1
 310 743 l 1,18,19
 367 821 367 821 462.5 860 c 128,-1,20
 558 899 558 899 648 899 c 0,21,22
 816 899 816 899 918 800.5 c 128,-1,23
 1020 702 1020 702 1020 510 c 0,24,25
 1020 303 1020 303 883.5 136.5 c 128,-1,26
 747 -30 747 -30 513 -30 c 0,27,28
 324 -30 324 -30 220 97.5 c 128,-1,29
 116 225 116 225 116 449 c 0,0,1
305 384 m 0,30,31
 305 261 305 261 361 190.5 c 128,-1,32
 417 120 417 120 520 120 c 0,33,34
 645 120 645 120 734.5 249 c 128,-1,35
 824 378 824 378 824 524 c 0,36,37
 824 630 824 630 765 688 c 128,-1,38
 706 746 706 746 606 746 c 0,39,40
 474 746 474 746 389.5 625.5 c 128,-1,41
 305 505 305 505 305 384 c 0,30,31
EndSplineSet
Substitution2: "'onum' Oldstyle Figures lookup 4 subtable" six.oldstyle
EndChar

StartChar: seven
Encoding: 55 55 26
Width: 1100
GlyphClass: 2
Flags: W
LayerCount: 2
Fore
SplineSet
303 1258 m 2,0,1
 258 1258 258 1258 269 1303 c 2,2,-1
 286 1377 l 2,3,4
 296 1422 296 1422 341 1422 c 2,5,-1
 1175 1422 l 2,6,7
 1220 1422 1220 1422 1210 1377 c 2,8,-1
 1194 1308 l 2,9,10
 1186 1277 1186 1277 1141 1236 c 0,11,12
 889 1009 889 1009 703 727 c 128,-1,13
 517 445 517 445 445 133 c 2,14,-1
 423 39 l 2,15,16
 413 -6 413 -6 368 -6 c 2,17,-1
 277 -6 l 2,18,19
 232 -6 232 -6 242 39 c 2,20,-1
 256 98 l 2,21,22
 346 479 346 479 538 743.5 c 128,-1,23
 730 1008 730 1008 991 1258 c 1,24,-1
 992 1260 l 1,25,26
 961 1258 961 1258 931 1258 c 2,27,-1
 303 1258 l 2,0,1
EndSplineSet
Substitution2: "'onum' Oldstyle Figures lookup 4 subtable" seven.oldstyle
Substitution2: "'tnum' Tabular Numbers lookup 3 subtable" seven.tab
EndChar

StartChar: eight
Encoding: 56 56 27
Width: 1110
GlyphClass: 2
Flags: W
LayerCount: 2
Fore
SplineSet
57 350 m 0,0,1
 57 510 57 510 174 628.5 c 128,-1,2
 291 747 291 747 403 772 c 1,3,-1
 403 775 l 1,4,5
 327 823 327 823 291 887 c 128,-1,6
 255 951 255 951 255 1048 c 0,7,8
 255 1213 255 1213 390 1332.5 c 128,-1,9
 525 1452 525 1452 727 1452 c 0,10,11
 932 1452 932 1452 1024.5 1359 c 128,-1,12
 1117 1266 1117 1266 1117 1128 c 0,13,14
 1117 970 1117 970 1007 875 c 128,-1,15
 897 780 897 780 803 766 c 1,16,-1
 803 764 l 1,17,18
 897 729 897 729 943.5 648 c 128,-1,19
 990 567 990 567 990 460 c 0,20,21
 990 258 990 258 841.5 114 c 128,-1,22
 693 -30 693 -30 473 -30 c 0,23,24
 279 -30 279 -30 168 66 c 128,-1,25
 57 162 57 162 57 350 c 0,0,1
252 356 m 0,26,27
 252 243 252 243 306 181.5 c 128,-1,28
 360 120 360 120 484 120 c 0,29,30
 615 120 615 120 704.5 216 c 128,-1,31
 794 312 794 312 794 446 c 0,32,33
 794 540 794 540 752.5 612 c 128,-1,34
 711 684 711 684 601 684 c 0,35,36
 453 684 453 684 352.5 585 c 128,-1,37
 252 486 252 486 252 356 c 0,26,27
443 1068 m 0,38,39
 443 939 443 939 493 892.5 c 128,-1,40
 543 846 543 846 614 846 c 0,41,42
 738 846 738 846 833.5 921 c 128,-1,43
 929 996 929 996 929 1108 c 0,44,45
 929 1196 929 1196 878.5 1249 c 128,-1,46
 828 1302 828 1302 716 1302 c 0,47,48
 602 1302 602 1302 522.5 1224 c 128,-1,49
 443 1146 443 1146 443 1068 c 0,38,39
EndSplineSet
Substitution2: "'onum' Oldstyle Figures lookup 4 subtable" eight.oldstyle
EndChar

StartChar: nine
Encoding: 57 57 28
Width: 1110
GlyphClass: 2
Flags: W
LayerCount: 2
Fore
SplineSet
179 912 m 0,0,1
 179 1119 179 1119 315.5 1285.5 c 128,-1,2
 452 1452 452 1452 686 1452 c 0,3,4
 875 1452 875 1452 979 1324.5 c 128,-1,5
 1083 1197 1083 1197 1083 973 c 0,6,7
 1083 558 1083 558 904 264 c 128,-1,8
 725 -30 725 -30 409 -30 c 0,9,10
 307 -30 307 -30 223.5 4 c 128,-1,11
 140 38 140 38 92 93 c 0,12,13
 53 138 53 138 78 159 c 2,14,-1
 140 209 l 2,15,16
 177 240 177 240 212 196 c 0,17,18
 239 162 239 162 297 141 c 128,-1,19
 355 120 355 120 431 120 c 0,20,21
 587 120 587 120 711.5 277.5 c 128,-1,22
 836 435 836 435 891 679 c 1,23,-1
 889 679 l 1,24,25
 832 601 832 601 736.5 562 c 128,-1,26
 641 523 641 523 551 523 c 0,27,28
 383 523 383 523 281 621.5 c 128,-1,29
 179 720 179 720 179 912 c 0,0,1
375 898 m 0,30,31
 375 792 375 792 434 734 c 128,-1,32
 493 676 493 676 593 676 c 0,33,34
 725 676 725 676 809.5 796.5 c 128,-1,35
 894 917 894 917 894 1038 c 0,36,37
 894 1161 894 1161 838 1231.5 c 128,-1,38
 782 1302 782 1302 679 1302 c 0,39,40
 554 1302 554 1302 464.5 1173 c 128,-1,41
 375 1044 375 1044 375 898 c 0,30,31
EndSplineSet
Substitution2: "'onum' Oldstyle Figures lookup 4 subtable" nine.oldstyle
EndChar

StartChar: less
Encoding: 60 60 31
Width: 1280
GlyphClass: 2
Flags: W
LayerCount: 2
Fore
SplineSet
177 685 m 2,0,1
 152 699 152 699 152 719 c 2,2,-1
 152 751 l 2,3,4
 152 771 152 771 177 785 c 2,5,-1
 1129 1335 l 2,6,7
 1168 1358 1168 1358 1186 1327 c 2,8,-1
 1211 1284 l 2,9,10
 1229 1254 1229 1254 1189 1231 c 2,11,-1
 330 736 l 1,12,-1
 330 734 l 1,13,-1
 1189 239 l 2,14,15
 1229 216 1229 216 1211 186 c 2,16,-1
 1186 143 l 2,17,18
 1168 112 1168 112 1129 135 c 2,19,-1
 177 685 l 2,0,1
EndSplineSet
EndChar

StartChar: greater
Encoding: 62 62 33
Width: 1280
GlyphClass: 2
Flags: W
LayerCount: 2
Fore
SplineSet
163 186 m 2,0,1
 145 216 145 216 185 239 c 2,2,-1
 1044 734 l 1,3,-1
 1044 736 l 1,4,-1
 185 1231 l 2,5,6
 145 1254 145 1254 163 1284 c 2,7,-1
 188 1327 l 2,8,9
 206 1358 206 1358 245 1335 c 2,10,-1
 1197 785 l 2,11,12
 1222 771 1222 771 1222 751 c 2,13,-1
 1222 719 l 2,14,15
 1222 699 1222 699 1197 685 c 2,16,-1
 245 135 l 2,17,18
 206 112 206 112 188 143 c 2,19,-1
 163 186 l 2,0,1
EndSplineSet
EndChar

StartChar: question
Encoding: 63 63 34
Width: 1016
GlyphClass: 2
Flags: W
LayerCount: 2
Fore
SplineSet
251 1170 m 2,0,1
 217 1189 217 1189 255 1256 c 0,2,3
 297 1329 297 1329 402 1396.5 c 128,-1,4
 507 1464 507 1464 670 1464 c 0,5,6
 868 1464 868 1464 957.5 1383 c 128,-1,7
 1047 1302 1047 1302 1047 1133 c 0,8,9
 1047 974 1047 974 816 768 c 128,-1,10
 585 562 585 562 558 438 c 2,11,-1
 553 415 l 2,12,13
 543 370 543 370 497 370 c 2,14,-1
 411 370 l 2,15,16
 367 370 367 370 377 415 c 2,17,-1
 385 452 l 2,18,19
 423 628 423 628 637 825.5 c 128,-1,20
 851 1023 851 1023 851 1144 c 0,21,22
 851 1242 851 1242 797.5 1278 c 128,-1,23
 744 1314 744 1314 664 1314 c 0,24,25
 576 1314 576 1314 496.5 1263 c 128,-1,26
 417 1212 417 1212 390 1159 c 0,27,28
 363 1107 363 1107 322 1130 c 2,29,-1
 251 1170 l 2,0,1
312 0 m 2,30,31
 267 0 267 0 277 45 c 2,32,-1
 306 167 l 2,33,34
 316 212 316 212 361 212 c 2,35,-1
 473 212 l 2,36,37
 518 212 518 212 508 167 c 2,38,-1
 479 45 l 2,39,40
 469 0 469 0 424 0 c 2,41,-1
 312 0 l 2,30,31
EndSplineSet
EndChar

StartChar: at
Encoding: 64 64 35
Width: 1992
GlyphClass: 2
Flags: W
LayerCount: 2
Fore
SplineSet
120 551 m 0,0,1
 120 932 120 932 380 1202.5 c 128,-1,2
 640 1473 640 1473 1060 1473 c 0,3,4
 1366 1473 1366 1473 1619 1294.5 c 128,-1,5
 1872 1116 1872 1116 1872 716 c 0,6,7
 1872 422 1872 422 1731 266.5 c 128,-1,8
 1590 111 1590 111 1360 111 c 0,9,10
 1230 111 1230 111 1194 168 c 128,-1,11
 1158 225 1158 225 1158 332 c 1,12,-1
 1156 332 l 1,13,14
 1118 243 1118 243 1026 177 c 128,-1,15
 934 111 934 111 843 111 c 0,16,17
 709 111 709 111 627.5 207 c 128,-1,18
 546 303 546 303 546 467 c 0,19,20
 546 673 546 673 677.5 857.5 c 128,-1,21
 809 1042 809 1042 1006 1042 c 0,22,23
 1197 1042 1197 1042 1241 866 c 1,24,-1
 1245 866 l 1,25,-1
 1268 972 l 2,26,27
 1275 1006 1275 1006 1310 1006 c 2,28,-1
 1420 1006 l 2,29,30
 1455 1006 1455 1006 1447 971 c 2,31,-1
 1316 380 l 2,32,33
 1294 282 1294 282 1320 256.5 c 128,-1,34
 1346 231 1346 231 1391 231 c 0,35,36
 1537 231 1537 231 1643.5 342.5 c 128,-1,37
 1750 454 1750 454 1750 716 c 0,38,39
 1750 1020 1750 1020 1556 1186.5 c 128,-1,40
 1362 1353 1362 1353 1062 1353 c 0,41,42
 720 1353 720 1353 481 1134.5 c 128,-1,43
 242 916 242 916 242 536 c 0,44,45
 242 204 242 204 470.5 -4 c 128,-1,46
 699 -212 699 -212 1020 -212 c 0,47,48
 1170 -212 1170 -212 1322.5 -157.5 c 128,-1,49
 1475 -103 1475 -103 1606 3 c 0,50,51
 1633 25 1633 25 1649 3 c 2,52,-1
 1688 -51 l 2,53,54
 1705 -75 1705 -75 1678 -93 c 0,55,56
 1515 -208 1515 -208 1355.5 -270 c 128,-1,57
 1196 -332 1196 -332 1011 -332 c 0,58,59
 652 -332 652 -332 386 -94 c 128,-1,60
 120 144 120 144 120 551 c 0,0,1
717 447 m 0,61,62
 717 324 717 324 761.5 277.5 c 128,-1,63
 806 231 806 231 885 231 c 0,64,65
 986 231 986 231 1073.5 373.5 c 128,-1,66
 1161 516 1161 516 1177 582 c 0,67,68
 1192 646 1192 646 1192 727 c 0,69,70
 1192 796 1192 796 1151 860 c 128,-1,71
 1110 924 1110 924 1030 924 c 0,72,73
 896 924 896 924 806.5 780 c 128,-1,74
 717 636 717 636 717 447 c 0,61,62
EndSplineSet
EndChar

StartChar: A
Encoding: 65 65 36
Width: 1360
GlyphClass: 2
Flags: W
AnchorPoint: "Anchor-3" 868 1464 basechar 0
AnchorPoint: "Anchor-2" 560 0 basechar 0
AnchorPoint: "Anchor-1" 1131 0 basechar 0
LayerCount: 2
Fore
SplineSet
-47 0 m 2,0,1
 -98 0 -98 0 -59 66 c 2,2,-1
 711 1373 l 2,3,4
 747 1434 747 1434 791 1434 c 2,5,-1
 931 1434 l 2,6,7
 972 1434 972 1434 983 1373 c 2,8,-1
 1209 66 l 2,9,10
 1220 0 1220 0 1167 0 c 2,11,-1
 1076 0 l 2,12,13
 1023 0 1023 0 1015 49 c 2,14,-1
 958 380 l 1,15,-1
 343 380 l 1,16,-1
 148 49 l 2,17,18
 119 0 119 0 65 0 c 2,19,-1
 -47 0 l 2,0,1
441 544 m 1,20,-1
 929 544 l 1,21,-1
 859 944 l 2,22,23
 846 1016 846 1016 838 1101.5 c 128,-1,24
 830 1187 830 1187 830 1261 c 1,25,-1
 826 1261 l 1,26,27
 808 1190 808 1190 770 1116 c 128,-1,28
 732 1042 732 1042 675 944 c 2,29,-1
 441 544 l 1,20,-1
EndSplineSet
EndChar

StartChar: B
Encoding: 66 66 37
Width: 1338
GlyphClass: 2
Flags: W
AnchorPoint: "Anchor-3" 881 1464 basechar 0
AnchorPoint: "Anchor-2" 543 0 basechar 0
LayerCount: 2
Fore
SplineSet
100 0 m 2,0,1
 50 0 50 0 63 55 c 2,2,-1
 368 1379 l 2,3,4
 381 1434 381 1434 431 1434 c 2,5,-1
 801 1434 l 2,6,7
 1074 1434 1074 1434 1180 1333.5 c 128,-1,8
 1286 1233 1286 1233 1286 1084 c 0,9,10
 1286 945 1286 945 1190.5 862.5 c 128,-1,11
 1095 780 1095 780 953 750 c 1,12,-1
 953 747 l 1,13,14
 1056 726 1056 726 1136.5 646.5 c 128,-1,15
 1217 567 1217 567 1217 431 c 0,16,17
 1217 264 1217 264 1066 132 c 128,-1,18
 915 0 915 0 570 0 c 2,19,-1
 100 0 l 2,0,1
280 164 m 1,20,-1
 576 164 l 2,21,22
 786 164 786 164 899 235 c 128,-1,23
 1012 306 1012 306 1012 439 c 0,24,25
 1012 560 1012 560 909.5 612 c 128,-1,26
 807 664 807 664 631 664 c 2,27,-1
 395 664 l 1,28,-1
 280 164 l 1,20,-1
429 808 m 1,29,-1
 700 808 l 2,30,31
 842 808 842 808 966.5 884 c 128,-1,32
 1091 960 1091 960 1091 1076 c 0,33,34
 1091 1179 1091 1179 1018 1224.5 c 128,-1,35
 945 1270 945 1270 766 1270 c 2,36,-1
 535 1270 l 1,37,-1
 429 808 l 1,29,-1
EndSplineSet
EndChar

StartChar: C
Encoding: 67 67 38
Width: 1392
GlyphClass: 2
Flags: W
AnchorPoint: "Anchor-3" 908 1464 basechar 0
AnchorPoint: "Anchor-2" 717 0 basechar 0
LayerCount: 2
Fore
SplineSet
110 580 m 0,0,1
 110 975 110 975 320.5 1219.5 c 128,-1,2
 531 1464 531 1464 908 1464 c 0,3,4
 1092 1464 1092 1464 1206 1400 c 128,-1,5
 1320 1336 1320 1336 1367 1230 c 0,6,7
 1390 1177 1390 1177 1344 1150 c 2,8,-1
 1266 1104 l 2,9,10
 1239 1088 1239 1088 1214 1132 c 0,11,12
 1184 1186 1184 1186 1105 1247 c 128,-1,13
 1026 1308 1026 1308 891 1308 c 0,14,15
 641 1308 641 1308 478 1125 c 128,-1,16
 315 942 315 942 315 557 c 0,17,18
 315 375 315 375 411 250.5 c 128,-1,19
 507 126 507 126 737 126 c 0,20,21
 873 126 873 126 967.5 197.5 c 128,-1,22
 1062 269 1062 269 1114 341 c 0,23,24
 1156 399 1156 399 1192 376 c 2,25,-1
 1282 318 l 2,26,27
 1315 297 1315 297 1274 238 c 0,28,29
 1195 123 1195 123 1061 46.5 c 128,-1,30
 927 -30 927 -30 710 -30 c 0,31,32
 408 -30 408 -30 259 142.5 c 128,-1,33
 110 315 110 315 110 580 c 0,0,1
EndSplineSet
EndChar

StartChar: D
Encoding: 68 68 39
Width: 1406
GlyphClass: 2
Flags: W
AnchorPoint: "Anchor-3" 925 1464 basechar 0
AnchorPoint: "Anchor-2" 587 0 basechar 0
LayerCount: 2
Fore
SplineSet
100 0 m 2,0,1
 50 0 50 0 63 55 c 2,2,-1
 368 1379 l 2,3,4
 381 1434 381 1434 431 1434 c 2,5,-1
 750 1434 l 2,6,7
 1108 1434 1108 1434 1246 1259 c 128,-1,8
 1384 1084 1384 1084 1384 848 c 0,9,10
 1384 508 1384 508 1174 254 c 128,-1,11
 964 0 964 0 519 0 c 2,12,-1
 100 0 l 2,0,1
280 164 m 1,13,-1
 548 164 l 2,14,15
 880 164 880 164 1029.5 376 c 128,-1,16
 1179 588 1179 588 1179 860 c 0,17,18
 1179 1032 1179 1032 1097.5 1152 c 128,-1,19
 1016 1272 1016 1272 704 1272 c 2,20,-1
 536 1272 l 1,21,-1
 280 164 l 1,13,-1
EndSplineSet
EndChar

StartChar: E
Encoding: 69 69 40
Width: 1270
GlyphClass: 2
Flags: W
AnchorPoint: "Anchor-3" 893 1464 basechar 0
AnchorPoint: "Anchor-2" 555 0 basechar 0
AnchorPoint: "Anchor-1" 555 0 basechar 0
LayerCount: 2
Fore
SplineSet
100 0 m 2,0,1
 50 0 50 0 63 55 c 2,2,-1
 368 1379 l 2,3,4
 381 1434 381 1434 431 1434 c 2,5,-1
 1306 1434 l 2,6,7
 1361 1434 1361 1434 1351 1389 c 2,8,-1
 1334 1315 l 2,9,10
 1323 1270 1323 1270 1268 1270 c 2,11,-1
 535 1270 l 1,12,-1
 433 826 l 1,13,-1
 1106 826 l 2,14,15
 1161 826 1161 826 1150 781 c 2,16,-1
 1133 707 l 2,17,18
 1123 662 1123 662 1068 662 c 2,19,-1
 395 662 l 1,20,-1
 280 164 l 1,21,-1
 1043 164 l 2,22,23
 1098 164 1098 164 1087 119 c 2,24,-1
 1070 45 l 2,25,26
 1060 0 1060 0 1005 0 c 2,27,-1
 100 0 l 2,0,1
EndSplineSet
EndChar

StartChar: F
Encoding: 70 70 41
Width: 1166
GlyphClass: 2
Flags: W
AnchorPoint: "Anchor-3" 848 1464 basechar 0
AnchorPoint: "Anchor-2" 510 0 basechar 0
LayerCount: 2
Fore
SplineSet
100 0 m 2,0,1
 50 0 50 0 63 55 c 2,2,-1
 368 1379 l 2,3,4
 381 1434 381 1434 431 1434 c 2,5,-1
 1246 1434 l 2,6,7
 1301 1434 1301 1434 1291 1389 c 2,8,-1
 1274 1315 l 2,9,10
 1263 1270 1263 1270 1208 1270 c 2,11,-1
 535 1270 l 1,12,-1
 426 796 l 1,13,-1
 1013 796 l 2,14,15
 1068 796 1068 796 1057 751 c 2,16,-1
 1040 677 l 2,17,18
 1030 632 1030 632 975 632 c 2,19,-1
 388 632 l 1,20,-1
 255 55 l 2,21,22
 242 0 242 0 192 0 c 2,23,-1
 100 0 l 2,0,1
EndSplineSet
EndChar

StartChar: G
Encoding: 71 71 42
Width: 1470
GlyphClass: 2
Flags: W
AnchorPoint: "Anchor-3" 916 1464 basechar 0
AnchorPoint: "Anchor-2" 717 0 basechar 0
LayerCount: 2
Fore
SplineSet
110 580 m 0,0,1
 110 975 110 975 320.5 1219.5 c 128,-1,2
 531 1464 531 1464 916 1464 c 0,3,4
 1110 1464 1110 1464 1224 1398 c 128,-1,5
 1338 1332 1338 1332 1382 1248 c 0,6,7
 1408 1197 1408 1197 1363 1167 c 2,8,-1
 1287 1117 l 2,9,10
 1259 1098 1259 1098 1234 1142 c 0,11,12
 1209 1185 1209 1185 1125 1246.5 c 128,-1,13
 1041 1308 1041 1308 899 1308 c 0,14,15
 642 1308 642 1308 478.5 1125 c 128,-1,16
 315 942 315 942 315 557 c 0,17,18
 315 375 315 375 411 250.5 c 128,-1,19
 507 126 507 126 737 126 c 0,20,21
 867 126 867 126 977 166 c 128,-1,22
 1087 206 1087 206 1139 262 c 1,23,-1
 1196 510 l 1,24,-1
 899 510 l 2,25,26
 844 510 844 510 854 555 c 2,27,-1
 871 629 l 2,28,29
 882 674 882 674 937 674 c 2,30,-1
 1371 674 l 2,31,32
 1426 674 1426 674 1415 629 c 2,33,-1
 1306 157 l 1,34,35
 1164 51 1164 51 1036 10.5 c 128,-1,36
 908 -30 908 -30 710 -30 c 0,37,38
 408 -30 408 -30 259 142.5 c 128,-1,39
 110 315 110 315 110 580 c 0,0,1
EndSplineSet
EndChar

StartChar: H
Encoding: 72 72 43
Width: 1422
GlyphClass: 2
Flags: W
AnchorPoint: "Anchor-3" 928 1464 basechar 0
AnchorPoint: "Anchor-2" 590 0 basechar 0
LayerCount: 2
Fore
SplineSet
100 0 m 2,0,1
 50 0 50 0 63 55 c 2,2,-1
 368 1379 l 2,3,4
 381 1434 381 1434 431 1434 c 2,5,-1
 523 1434 l 2,6,7
 573 1434 573 1434 560 1379 c 2,8,-1
 433 828 l 1,9,-1
 1131 828 l 1,10,-1
 1258 1379 l 2,11,12
 1271 1434 1271 1434 1321 1434 c 2,13,-1
 1413 1434 l 2,14,15
 1463 1434 1463 1434 1450 1379 c 2,16,-1
 1145 55 l 2,17,18
 1132 0 1132 0 1082 0 c 2,19,-1
 990 0 l 2,20,21
 940 0 940 0 953 55 c 2,22,-1
 1093 664 l 1,23,-1
 395 664 l 1,24,-1
 255 55 l 2,25,26
 242 0 242 0 192 0 c 2,27,-1
 100 0 l 2,0,1
EndSplineSet
EndChar

StartChar: I
Encoding: 73 73 44
Width: 532
GlyphClass: 2
Flags: W
AnchorPoint: "Anchor-3" 483 1464 basechar 0
AnchorPoint: "Anchor-2" 145 0 basechar 0
AnchorPoint: "Anchor-1" 146 0 basechar 0
LayerCount: 2
Fore
SplineSet
100 0 m 2,0,1
 50 0 50 0 63 55 c 2,2,-1
 368 1379 l 2,3,4
 381 1434 381 1434 431 1434 c 2,5,-1
 523 1434 l 2,6,7
 573 1434 573 1434 560 1379 c 2,8,-1
 255 55 l 2,9,10
 242 0 242 0 192 0 c 2,11,-1
 100 0 l 2,0,1
EndSplineSet
EndChar

StartChar: J
Encoding: 74 74 45
Width: 824
GlyphClass: 2
Flags: W
AnchorPoint: "Anchor-3" 775 1464 basechar 0
AnchorPoint: "Anchor-2" 230 0 basechar 0
LayerCount: 2
Fore
SplineSet
-37 29 m 0,0,1
 -72 50 -72 50 -50 94 c 2,2,-1
 -14 165 l 2,3,4
 12 217 12 217 62 179 c 0,5,6
 132 126 132 126 194 126 c 0,7,8
 291 126 291 126 346 191 c 128,-1,9
 401 256 401 256 429 378 c 2,10,-1
 660 1379 l 2,11,12
 673 1434 673 1434 723 1434 c 2,13,-1
 815 1434 l 2,14,15
 865 1434 865 1434 852 1379 c 2,16,-1
 627 401 l 2,17,18
 587 225 587 225 495 97.5 c 128,-1,19
 403 -30 403 -30 175 -30 c 0,20,21
 59 -30 59 -30 -37 29 c 0,0,1
EndSplineSet
EndChar

StartChar: K
Encoding: 75 75 46
Width: 1328
GlyphClass: 2
Flags: W
AnchorPoint: "Anchor-3" 946 1464 basechar 0
AnchorPoint: "Anchor-2" 608 0 basechar 0
LayerCount: 2
Fore
SplineSet
100 0 m 2,0,1
 50 0 50 0 63 55 c 2,2,-1
 368 1379 l 2,3,4
 381 1434 381 1434 431 1434 c 2,5,-1
 523 1434 l 2,6,7
 573 1434 573 1434 560 1379 c 2,8,-1
 430 814 l 2,9,10
 425 792 425 792 409 734 c 1,11,-1
 413 734 l 1,12,-1
 1212 1395 l 2,13,14
 1259 1434 1259 1434 1291 1434 c 2,15,-1
 1434 1434 l 2,16,17
 1517 1434 1517 1434 1437 1368 c 2,18,-1
 809 850 l 1,19,-1
 1163 66 l 2,20,21
 1193 0 1193 0 1130 0 c 2,22,-1
 1023 0 l 2,23,24
 980 0 980 0 962 39 c 2,25,-1
 655 723 l 1,26,-1
 351 471 l 1,27,-1
 255 55 l 2,28,29
 242 0 242 0 192 0 c 2,30,-1
 100 0 l 2,0,1
EndSplineSet
EndChar

StartChar: L
Encoding: 76 76 47
Width: 1136
GlyphClass: 2
Flags: W
AnchorPoint: "Anchor-3" 843 1464 basechar 0
AnchorPoint: "Anchor-2" 505 0 basechar 0
LayerCount: 2
Fore
SplineSet
100 0 m 2,0,1
 50 0 50 0 63 55 c 2,2,-1
 368 1379 l 2,3,4
 381 1434 381 1434 431 1434 c 2,5,-1
 523 1434 l 2,6,7
 573 1434 573 1434 560 1379 c 2,8,-1
 280 164 l 1,9,-1
 943 164 l 2,10,11
 998 164 998 164 987 119 c 2,12,-1
 970 45 l 2,13,14
 960 0 960 0 905 0 c 2,15,-1
 100 0 l 2,0,1
EndSplineSet
EndChar

StartChar: M
Encoding: 77 77 48
Width: 1708
GlyphClass: 2
Flags: W
AnchorPoint: "Anchor-3" 1071 1464 basechar 0
AnchorPoint: "Anchor-2" 733 0 basechar 0
LayerCount: 2
Fore
SplineSet
100 0 m 2,0,1
 50 0 50 0 63 55 c 2,2,-1
 368 1379 l 2,3,4
 381 1434 381 1434 431 1434 c 2,5,-1
 632 1434 l 2,6,7
 670 1434 670 1434 675 1374 c 2,8,-1
 754 477 l 2,9,10
 761 395 761 395 764 330.5 c 128,-1,11
 767 266 767 266 767 206 c 1,12,-1
 773 206 l 1,13,14
 800 269 800 269 832 331 c 128,-1,15
 864 393 864 393 910 477 c 2,16,-1
 1403 1374 l 2,17,18
 1436 1434 1436 1434 1474 1434 c 2,19,-1
 1699 1434 l 2,20,21
 1749 1434 1749 1434 1736 1379 c 2,22,-1
 1431 55 l 2,23,24
 1418 0 1418 0 1368 0 c 2,25,-1
 1276 0 l 2,26,27
 1226 0 1226 0 1239 55 c 2,28,-1
 1481 1104 l 2,29,30
 1491 1149 1491 1149 1501 1184 c 1,31,-1
 1497 1184 l 1,32,-1
 869 61 l 2,33,34
 835 0 835 0 789 0 c 2,35,-1
 679 0 l 2,36,37
 633 0 633 0 627 61 c 2,38,-1
 517 1184 l 1,39,-1
 513 1184 l 1,40,41
 505 1140 505 1140 497 1104 c 2,42,-1
 255 55 l 2,43,44
 242 0 242 0 192 0 c 2,45,-1
 100 0 l 2,0,1
EndSplineSet
EndChar

StartChar: N
Encoding: 78 78 49
Width: 1438
GlyphClass: 2
Flags: W
AnchorPoint: "Anchor-3" 936 1464 basechar 0
AnchorPoint: "Anchor-2" 598 0 basechar 0
LayerCount: 2
Fore
SplineSet
100 0 m 2,0,1
 50 0 50 0 63 55 c 2,2,-1
 368 1379 l 2,3,4
 381 1434 381 1434 431 1434 c 2,5,-1
 552 1434 l 2,6,7
 623 1434 623 1434 641 1384 c 2,8,-1
 1029 324 l 1,9,-1
 1033 324 l 1,10,11
 1042 370 1042 370 1050 404 c 2,12,-1
 1274 1379 l 2,13,14
 1287 1434 1287 1434 1337 1434 c 2,15,-1
 1429 1434 l 2,16,17
 1479 1434 1479 1434 1466 1379 c 2,18,-1
 1161 55 l 2,19,20
 1148 0 1148 0 1098 0 c 2,21,-1
 1016 0 l 2,22,23
 946 0 946 0 928 50 c 2,24,-1
 515 1175 l 1,25,-1
 511 1175 l 1,26,27
 503 1131 503 1131 495 1095 c 2,28,-1
 255 55 l 2,29,30
 242 0 242 0 192 0 c 2,31,-1
 100 0 l 2,0,1
EndSplineSet
EndChar

StartChar: O
Encoding: 79 79 50
Width: 1514
GlyphClass: 2
Flags: W
AnchorPoint: "Anchor-3" 878 1464 basechar 0
AnchorPoint: "Anchor-2" 734 0 basechar 0
AnchorPoint: "Anchor-1" 734 0 basechar 0
LayerCount: 2
Fore
SplineSet
110 580 m 0,0,1
 110 980 110 980 324 1222 c 128,-1,2
 538 1464 538 1464 878 1464 c 0,3,4
 1183 1464 1183 1464 1339 1301.5 c 128,-1,5
 1495 1139 1495 1139 1495 854 c 0,6,7
 1495 454 1495 454 1281 212 c 128,-1,8
 1067 -30 1067 -30 727 -30 c 0,9,10
 422 -30 422 -30 266 132.5 c 128,-1,11
 110 295 110 295 110 580 c 0,0,1
315 556 m 0,12,13
 315 351 315 351 421.5 238.5 c 128,-1,14
 528 126 528 126 738 126 c 0,15,16
 958 126 958 126 1124 309.5 c 128,-1,17
 1290 493 1290 493 1290 878 c 0,18,19
 1290 1083 1290 1083 1183.5 1195.5 c 128,-1,20
 1077 1308 1077 1308 867 1308 c 0,21,22
 647 1308 647 1308 481 1124.5 c 128,-1,23
 315 941 315 941 315 556 c 0,12,13
EndSplineSet
EndChar

StartChar: P
Encoding: 80 80 51
Width: 1298
GlyphClass: 2
Flags: W
AnchorPoint: "Anchor-3" 862 1464 basechar 0
AnchorPoint: "Anchor-2" 524 0 basechar 0
LayerCount: 2
Fore
SplineSet
100 0 m 2,0,1
 50 0 50 0 63 55 c 2,2,-1
 368 1379 l 2,3,4
 381 1434 381 1434 431 1434 c 2,5,-1
 841 1434 l 2,6,7
 1075 1434 1075 1434 1196.5 1329 c 128,-1,8
 1318 1224 1318 1224 1318 1045 c 0,9,10
 1318 864 1318 864 1172.5 720 c 128,-1,11
 1027 576 1027 576 673 576 c 2,12,-1
 375 576 l 1,13,-1
 255 55 l 2,14,15
 242 0 242 0 192 0 c 2,16,-1
 100 0 l 2,0,1
413 740 m 1,17,-1
 724 740 l 2,18,19
 931 740 931 740 1027 818.5 c 128,-1,20
 1123 897 1123 897 1123 1025 c 0,21,22
 1123 1161 1123 1161 1048 1215.5 c 128,-1,23
 973 1270 973 1270 806 1270 c 2,24,-1
 535 1270 l 1,25,-1
 413 740 l 1,17,-1
EndSplineSet
EndChar

StartChar: Q
Encoding: 81 81 52
Width: 1514
GlyphClass: 2
Flags: W
AnchorPoint: "Anchor-3" 878 1464 basechar 0
AnchorPoint: "Anchor-2" 544 -400 basechar 0
LayerCount: 2
Fore
SplineSet
110 580 m 0,0,1
 110 980 110 980 324 1222 c 128,-1,2
 538 1464 538 1464 878 1464 c 0,3,4
 1183 1464 1183 1464 1339 1301.5 c 128,-1,5
 1495 1139 1495 1139 1495 854 c 0,6,7
 1495 454 1495 454 1281 212 c 0,8,9
 1096 3 1096 3 817 -26 c 1,10,11
 818 -149 818 -149 869.5 -193 c 128,-1,12
 921 -237 921 -237 1036 -237 c 0,13,14
 1087 -237 1087 -237 1152 -224 c 0,15,16
 1192 -217 1192 -217 1195 -239 c 2,17,-1
 1207 -329 l 2,18,19
 1210 -353 1210 -353 1179 -357 c 1,20,21
 1057 -377 1057 -377 1004 -377 c 0,22,23
 799 -377 799 -377 712 -292.5 c 128,-1,24
 625 -208 625 -208 625 -25 c 1,25,26
 395 -2 395 -2 266 132 c 0,27,28
 110 295 110 295 110 580 c 0,0,1
315 556 m 0,29,30
 315 351 315 351 421.5 238.5 c 128,-1,31
 528 126 528 126 738 126 c 0,32,33
 958 126 958 126 1124 309.5 c 128,-1,34
 1290 493 1290 493 1290 878 c 0,35,36
 1290 1083 1290 1083 1183.5 1195.5 c 128,-1,37
 1077 1308 1077 1308 867 1308 c 0,38,39
 647 1308 647 1308 481 1124.5 c 128,-1,40
 315 941 315 941 315 556 c 0,29,30
EndSplineSet
EndChar

StartChar: R
Encoding: 82 82 53
Width: 1384
GlyphClass: 2
Flags: W
AnchorPoint: "Anchor-3" 862 1464 basechar 0
AnchorPoint: "Anchor-2" 524 0 basechar 0
LayerCount: 2
Fore
SplineSet
100 0 m 2,0,1
 50 0 50 0 63 55 c 2,2,-1
 368 1379 l 2,3,4
 381 1434 381 1434 431 1434 c 2,5,-1
 884 1434 l 2,6,7
 1136 1434 1136 1434 1244 1326 c 128,-1,8
 1352 1218 1352 1218 1352 1056 c 0,9,10
 1352 891 1352 891 1214.5 782 c 128,-1,11
 1077 673 1077 673 881 657 c 1,12,-1
 880 655 l 1,13,14
 965 579 965 579 989 536.5 c 128,-1,15
 1013 494 1013 494 1035 433 c 2,16,-1
 1166 66 l 2,17,18
 1190 0 1190 0 1133 0 c 2,19,-1
 1040 0 l 2,20,21
 992 0 992 0 979 39 c 2,22,-1
 863 396 l 2,23,24
 839 470 839 470 767.5 545.5 c 128,-1,25
 696 621 696 621 559 621 c 2,26,-1
 385 621 l 1,27,-1
 255 55 l 2,28,29
 242 0 242 0 192 0 c 2,30,-1
 100 0 l 2,0,1
423 785 m 1,31,-1
 732 785 l 2,32,33
 912 785 912 785 1034.5 847 c 128,-1,34
 1157 909 1157 909 1157 1038 c 0,35,36
 1157 1182 1157 1182 1067.5 1226 c 128,-1,37
 978 1270 978 1270 832 1270 c 2,38,-1
 535 1270 l 1,39,-1
 423 785 l 1,31,-1
EndSplineSet
EndChar

StartChar: S
Encoding: 83 83 54
Width: 1217
GlyphClass: 2
Flags: W
AnchorPoint: "Anchor-3" 767 1464 basechar 0
AnchorPoint: "Anchor-2" 533 0 basechar 0
LayerCount: 2
Fore
SplineSet
84 112 m 0,0,1
 34 161 34 161 64 198 c 2,2,-1
 121 268 l 2,3,4
 152 306 152 306 207 255 c 0,5,6
 272 194 272 194 348 160 c 128,-1,7
 424 126 424 126 542 126 c 0,8,9
 642 126 642 126 711 154.5 c 128,-1,10
 780 183 780 183 833.5 237.5 c 128,-1,11
 887 292 887 292 887 373 c 0,12,13
 887 416 887 416 874.5 462 c 128,-1,14
 862 508 862 508 822.5 543 c 128,-1,15
 783 578 783 578 735 597 c 0,16,17
 680 619 680 619 618 639.5 c 128,-1,18
 556 660 556 660 480 698 c 0,19,20
 416 730 416 730 370 779 c 128,-1,21
 324 828 324 828 297 896 c 128,-1,22
 270 964 270 964 270 1041 c 0,23,24
 270 1182 270 1182 360 1291.5 c 128,-1,25
 450 1401 450 1401 561 1432.5 c 128,-1,26
 672 1464 672 1464 767 1464 c 0,27,28
 900 1464 900 1464 990 1431 c 128,-1,29
 1080 1398 1080 1398 1154 1341 c 0,30,31
 1203 1303 1203 1303 1171 1261 c 2,32,-1
 1113 1186 l 2,33,34
 1090 1156 1090 1156 1044 1194 c 0,35,36
 1008 1224 1008 1224 926 1259 c 128,-1,37
 844 1294 844 1294 755 1294 c 0,38,39
 698 1294 698 1294 632 1275 c 128,-1,40
 566 1256 566 1256 514 1197.5 c 128,-1,41
 462 1139 462 1139 462 1055 c 0,42,43
 462 1011 462 1011 474 970.5 c 128,-1,44
 486 930 486 930 518.5 900 c 128,-1,45
 551 870 551 870 588 852 c 0,46,47
 646 824 646 824 707.5 804 c 128,-1,48
 769 784 769 784 819 764 c 0,49,50
 899 732 899 732 965.5 681 c 128,-1,51
 1032 630 1032 630 1061 552.5 c 128,-1,52
 1090 475 1090 475 1090 405 c 0,53,54
 1090 264 1090 264 1014 169 c 128,-1,55
 938 74 938 74 827 22 c 128,-1,56
 716 -30 716 -30 526 -30 c 0,57,58
 362 -30 362 -30 255 10 c 128,-1,59
 148 50 148 50 84 112 c 0,0,1
EndSplineSet
EndChar

StartChar: T
Encoding: 84 84 55
Width: 1240
GlyphClass: 2
Flags: W
AnchorPoint: "Anchor-3" 837 1464 basechar 0
AnchorPoint: "Anchor-2" 499 0 basechar 0
LayerCount: 2
Fore
SplineSet
262 1262 m 2,0,1
 207 1262 207 1262 218 1307 c 2,2,-1
 237 1389 l 2,3,4
 247 1434 247 1434 302 1434 c 2,5,-1
 1360 1434 l 2,6,7
 1415 1434 1415 1434 1405 1389 c 2,8,-1
 1386 1307 l 2,9,10
 1375 1262 1375 1262 1320 1262 c 2,11,-1
 887 1262 l 1,12,-1
 609 55 l 2,13,14
 596 0 596 0 546 0 c 2,15,-1
 454 0 l 2,16,17
 404 0 404 0 417 55 c 2,18,-1
 695 1262 l 1,19,-1
 262 1262 l 2,0,1
EndSplineSet
EndChar

StartChar: U
Encoding: 85 85 56
Width: 1402
GlyphClass: 2
Flags: W
AnchorPoint: "Anchor-3" 918 1464 basechar 0
AnchorPoint: "Anchor-2" 581 0 basechar 0
AnchorPoint: "Anchor-1" 581 0 basechar 0
LayerCount: 2
Fore
SplineSet
176 547 m 2,0,-1
 368 1379 l 2,1,2
 381 1434 381 1434 431 1434 c 2,3,-1
 523 1434 l 2,4,5
 573 1434 573 1434 560 1379 c 2,6,-1
 375 577 l 2,7,8
 311 297 311 297 370 211.5 c 128,-1,9
 429 126 429 126 610 126 c 0,10,11
 756 126 756 126 872.5 211.5 c 128,-1,12
 989 297 989 297 1053 577 c 2,13,-1
 1238 1379 l 2,14,15
 1251 1434 1251 1434 1301 1434 c 2,16,-1
 1393 1434 l 2,17,18
 1443 1434 1443 1434 1430 1379 c 2,19,-1
 1238 547 l 2,20,21
 1165 230 1165 230 1004 100 c 128,-1,22
 843 -30 843 -30 574 -30 c 0,23,24
 375 -30 375 -30 239 100 c 128,-1,25
 103 230 103 230 176 547 c 2,0,-1
EndSplineSet
EndChar

StartChar: V
Encoding: 86 86 57
Width: 1338
GlyphClass: 2
Flags: W
AnchorPoint: "Anchor-3" 887 1464 basechar 0
AnchorPoint: "Anchor-2" 549 0 basechar 0
LayerCount: 2
Fore
SplineSet
242 1368 m 2,0,1
 233 1434 233 1434 284 1434 c 2,2,-1
 374 1434 l 2,3,4
 429 1434 429 1434 435 1385 c 2,5,-1
 553 490 l 2,6,7
 561 431 561 431 568 333 c 128,-1,8
 575 235 575 235 575 173 c 1,9,-1
 579 173 l 1,10,11
 605 236 605 236 660.5 337 c 128,-1,12
 716 438 716 438 747 490 c 2,13,-1
 1279 1385 l 2,14,15
 1308 1434 1308 1434 1362 1434 c 2,16,-1
 1476 1434 l 2,17,18
 1528 1434 1528 1434 1488 1368 c 2,19,-1
 699 61 l 2,20,21
 662 0 662 0 619 0 c 2,22,-1
 479 0 l 2,23,24
 436 0 436 0 427 61 c 2,25,-1
 242 1368 l 2,0,1
EndSplineSet
EndChar

StartChar: W
Encoding: 87 87 58
Width: 1888
GlyphClass: 2
Flags: W
AnchorPoint: "Anchor-3" 1161 1464 basechar 0
AnchorPoint: "Anchor-2" 823 0 basechar 0
LayerCount: 2
Fore
SplineSet
240 1374 m 2,0,1
 237 1434 237 1434 280 1434 c 2,2,-1
 387 1434 l 2,3,4
 418 1434 418 1434 419 1388 c 2,5,-1
 442 427 l 2,6,7
 443 366 443 366 441 309.5 c 128,-1,8
 439 253 439 253 439 173 c 1,9,-1
 444 173 l 1,10,11
 468 232 468 232 494.5 290 c 128,-1,12
 521 348 521 348 556 426 c 2,13,-1
 995 1380 l 2,14,15
 1020 1434 1020 1434 1071 1434 c 2,16,-1
 1206 1434 l 2,17,18
 1257 1434 1257 1434 1258 1380 c 2,19,-1
 1276 426 l 2,20,21
 1277 377 1277 377 1276 310.5 c 128,-1,22
 1275 244 1275 244 1275 173 c 1,23,-1
 1280 173 l 1,24,25
 1307 233 1307 233 1343 306.5 c 128,-1,26
 1379 380 1379 380 1400 427 c 2,27,-1
 1834 1388 l 2,28,29
 1855 1434 1855 1434 1888 1434 c 2,30,-1
 2020 1434 l 2,31,32
 2061 1434 2061 1434 2032 1374 c 2,33,-1
 1399 77 l 2,34,35
 1361 0 1361 0 1307 0 c 2,36,-1
 1182 0 l 2,37,38
 1132 0 1132 0 1130 84 c 2,39,-1
 1104 1043 l 2,40,41
 1102 1119 1102 1119 1104.5 1160.5 c 128,-1,42
 1107 1202 1107 1202 1107 1259 c 1,43,-1
 1105 1259 l 1,44,45
 1084 1198 1084 1198 1068 1155.5 c 128,-1,46
 1052 1113 1052 1113 1019 1043 c 2,47,-1
 566 84 l 2,48,49
 526 0 526 0 476 0 c 2,50,-1
 351 0 l 2,51,52
 298 0 298 0 295 77 c 2,53,-1
 240 1374 l 2,0,1
EndSplineSet
EndChar

StartChar: X
Encoding: 88 88 59
Width: 1298
GlyphClass: 2
Flags: W
AnchorPoint: "Anchor-3" 867 1464 basechar 0
AnchorPoint: "Anchor-2" 529 0 basechar 0
LayerCount: 2
Fore
SplineSet
-42 0 m 2,0,1
 -106 0 -106 0 -45 66 c 2,2,-1
 593 752 l 1,3,-1
 294 1368 l 2,4,5
 262 1434 262 1434 327 1434 c 2,6,-1
 425 1434 l 2,7,8
 468 1434 468 1434 486 1395 c 2,9,-1
 721 873 l 1,10,-1
 1177 1395 l 2,11,12
 1211 1434 1211 1434 1256 1434 c 2,13,-1
 1394 1434 l 2,14,15
 1458 1434 1458 1434 1397 1368 c 2,16,-1
 806 727 l 1,17,-1
 1132 66 l 2,18,19
 1165 0 1165 0 1099 0 c 2,20,-1
 994 0 l 2,21,22
 950 0 950 0 933 39 c 2,23,-1
 679 607 l 1,24,-1
 182 39 l 2,25,26
 148 0 148 0 103 0 c 2,27,-1
 -42 0 l 2,0,1
EndSplineSet
EndChar

StartChar: Y
Encoding: 89 89 60
Width: 1302
GlyphClass: 2
Flags: W
AnchorPoint: "Anchor-3" 868 1464 basechar 0
AnchorPoint: "Anchor-2" 530 0 basechar 0
LayerCount: 2
Fore
SplineSet
250 1368 m 2,0,1
 223 1434 223 1434 292 1434 c 2,2,-1
 385 1434 l 2,3,4
 429 1434 429 1434 446 1385 c 2,5,-1
 602 948 l 2,6,7
 616 908 616 908 639.5 838.5 c 128,-1,8
 663 769 663 769 677 709 c 1,9,-1
 681 709 l 1,10,11
 723 769 723 769 763.5 821 c 128,-1,12
 804 873 804 873 866 948 c 2,13,-1
 1224 1385 l 2,14,15
 1264 1434 1264 1434 1307 1434 c 2,16,-1
 1432 1434 l 2,17,18
 1502 1434 1502 1434 1444 1368 c 2,19,-1
 763 590 l 1,20,-1
 640 55 l 2,21,22
 627 0 627 0 577 0 c 2,23,-1
 485 0 l 2,24,25
 435 0 435 0 448 55 c 2,26,-1
 571 590 l 1,27,-1
 250 1368 l 2,0,1
EndSplineSet
EndChar

StartChar: Z
Encoding: 90 90 61
Width: 1216
GlyphClass: 2
Flags: W
AnchorPoint: "Anchor-3" 826 1464 basechar 0
AnchorPoint: "Anchor-2" 488 0 basechar 0
LayerCount: 2
Fore
SplineSet
0 0 m 2,0,1
 -55 0 -55 0 -45 45 c 2,2,-1
 -34 93 l 2,3,4
 -24 138 -24 138 17 182 c 2,5,-1
 1027 1268 l 1,6,-1
 1028 1272 l 1,7,8
 987 1270 987 1270 947 1270 c 2,9,-1
 325 1270 l 2,10,11
 271 1270 271 1270 281 1315 c 2,12,-1
 298 1389 l 2,13,14
 308 1434 308 1434 363 1434 c 2,15,-1
 1285 1434 l 2,16,17
 1340 1434 1340 1434 1330 1389 c 2,18,-1
 1323 1358 l 2,19,20
 1316 1328 1316 1328 1288 1297 c 2,21,-1
 254 166 l 1,22,-1
 253 162 l 1,23,24
 281 164 281 164 334 164 c 2,25,-1
 1014 164 l 2,26,27
 1068 164 1068 164 1058 119 c 2,28,-1
 1041 45 l 2,29,30
 1031 0 1031 0 976 0 c 2,31,-1
 0 0 l 2,0,1
EndSplineSet
EndChar

StartChar: bracketleft
Encoding: 91 91 62
Width: 658
GlyphClass: 2
Flags: W
LayerCount: 2
Fore
SplineSet
1 -408 m 2,0,1
 -44 -408 -44 -408 -34 -363 c 2,2,-1
 385 1451 l 2,3,4
 395 1496 395 1496 440 1496 c 2,5,-1
 768 1496 l 2,6,7
 813 1496 813 1496 805 1461 c 2,8,-1
 791 1401 l 2,9,10
 783 1366 783 1366 738 1366 c 2,11,-1
 541 1366 l 1,12,-1
 162 -278 l 1,13,-1
 359 -278 l 2,14,15
 404 -278 404 -278 396 -313 c 2,16,-1
 382 -373 l 2,17,18
 374 -408 374 -408 329 -408 c 2,19,-1
 1 -408 l 2,0,1
EndSplineSet
EndChar

StartChar: backslash
Encoding: 92 92 63
Width: 840
GlyphClass: 2
Flags: W
LayerCount: 2
Fore
SplineSet
147 1394 m 2,0,1
 135 1440 135 1440 170 1449 c 2,2,-1
 217 1461 l 2,3,4
 254 1470 254 1470 264 1433 c 2,5,-1
 730 -338 l 2,6,7
 742 -384 742 -384 705 -394 c 2,8,-1
 659 -406 l 2,9,10
 624 -415 624 -415 614 -377 c 2,11,-1
 147 1394 l 2,0,1
EndSplineSet
EndChar

StartChar: bracketright
Encoding: 93 93 64
Width: 658
GlyphClass: 2
Flags: W
LayerCount: 2
Fore
SplineSet
-100 -408 m 2,0,1
 -145 -408 -145 -408 -137 -373 c 2,2,-1
 -123 -313 l 2,3,4
 -115 -278 -115 -278 -70 -278 c 2,5,-1
 127 -278 l 1,6,-1
 506 1366 l 1,7,-1
 309 1366 l 2,8,9
 264 1366 264 1366 272 1401 c 2,10,-1
 286 1461 l 2,11,12
 294 1496 294 1496 339 1496 c 2,13,-1
 667 1496 l 2,14,15
 712 1496 712 1496 702 1451 c 2,16,-1
 283 -363 l 2,17,18
 273 -408 273 -408 228 -408 c 2,19,-1
 -100 -408 l 2,0,1
EndSplineSet
EndChar

StartChar: asciicircum
Encoding: 94 94 65
Width: 866
GlyphClass: 2
Flags: W
LayerCount: 2
Fore
SplineSet
189 923 m 2,0,1
 160 942 160 942 183 979 c 2,2,-1
 446 1400 l 2,3,4
 467 1434 467 1434 511 1434 c 2,5,-1
 553 1434 l 2,6,7
 597 1434 597 1434 618 1400 c 2,8,-1
 881 979 l 2,9,10
 904 942 904 942 875 923 c 2,11,-1
 826 891 l 2,12,13
 797 872 797 872 772 911 c 2,14,-1
 533 1290 l 1,15,-1
 531 1290 l 1,16,-1
 292 911 l 2,17,18
 267 872 267 872 238 891 c 2,19,-1
 189 923 l 2,0,1
EndSplineSet
EndChar

StartChar: underscore
Encoding: 95 95 66
Width: 1100
GlyphClass: 2
Flags: W
LayerCount: 2
Fore
SplineSet
-174 -390 m 2,0,1
 -219 -390 -219 -390 -219 -355 c 2,2,-1
 -219 -295 l 2,3,4
 -219 -260 -219 -260 -174 -260 c 2,5,-1
 884 -260 l 2,6,7
 929 -260 929 -260 929 -295 c 2,8,-1
 929 -355 l 2,9,10
 929 -390 929 -390 884 -390 c 2,11,-1
 -174 -390 l 2,0,1
EndSplineSet
EndChar

StartChar: grave
Encoding: 96 96 67
Width: 614
GlyphClass: 2
Flags: W
LayerCount: 2
Fore
SplineSet
369 1383 m 2,0,1
 331 1435 331 1435 391 1435 c 2,2,-1
 492 1435 l 2,3,4
 546 1435 546 1435 567 1398 c 2,5,-1
 679 1203 l 2,6,7
 709 1150 709 1150 660 1150 c 2,8,-1
 596 1150 l 2,9,10
 540 1150 540 1150 519 1179 c 2,11,-1
 369 1383 l 2,0,1
EndSplineSet
EndChar

StartChar: a
Encoding: 97 97 68
Width: 1099
GlyphClass: 2
Flags: W
AnchorPoint: "Anchor-3" 644 1067 basechar 0
AnchorPoint: "Anchor-2" 398 0 basechar 0
AnchorPoint: "Anchor-1" 391 0 basechar 0
LayerCount: 2
Fore
SplineSet
66 339 m 0,0,1
 66 614 66 614 252.5 840.5 c 128,-1,2
 439 1067 439 1067 644 1067 c 0,3,4
 734 1067 734 1067 792 1029.5 c 128,-1,5
 850 992 850 992 878 942 c 1,6,-1
 880 942 l 1,7,-1
 901 1005 l 2,8,9
 916 1050 916 1050 950 1050 c 2,10,-1
 1034 1050 l 2,11,12
 1079 1050 1079 1050 1069 1005 c 2,13,-1
 847 45 l 2,14,15
 837 0 837 0 792 0 c 2,16,-1
 711 0 l 2,17,18
 667 0 667 0 676 45 c 2,19,-1
 701 165 l 1,20,-1
 699 165 l 1,21,22
 650 100 650 100 568.5 41.5 c 128,-1,23
 487 -17 487 -17 387 -17 c 0,24,25
 242 -17 242 -17 154 70.5 c 128,-1,26
 66 158 66 158 66 339 c 0,0,1
252 332 m 0,27,28
 252 266 252 266 287.5 189.5 c 128,-1,29
 323 113 323 113 433 113 c 0,30,31
 523 113 523 113 632 232 c 128,-1,32
 741 351 741 351 771 480 c 2,33,-1
 838 770 l 1,34,35
 838 860 838 860 780.5 898.5 c 128,-1,36
 723 937 723 937 638 937 c 0,37,38
 498 937 498 937 375 757.5 c 128,-1,39
 252 578 252 578 252 332 c 0,27,28
EndSplineSet
EndChar

StartChar: b
Encoding: 98 98 69
Width: 1119
GlyphClass: 2
Flags: W
AnchorPoint: "Anchor-3" 809 1476 basechar 0
AnchorPoint: "Anchor-2" 468 0 basechar 0
LayerCount: 2
Fore
SplineSet
67 0 m 2,0,1
 22 0 22 0 32 45 c 2,2,-1
 352 1431 l 2,3,4
 362 1476 362 1476 407 1476 c 2,5,-1
 493 1476 l 2,6,7
 538 1476 538 1476 528 1431 c 2,8,-1
 416 946 l 2,9,10
 409 917 409 917 400 885 c 1,11,-1
 402 885 l 1,12,13
 446 964 446 964 539 1015.5 c 128,-1,14
 632 1067 632 1067 712 1067 c 0,15,16
 902 1067 902 1067 976.5 950.5 c 128,-1,17
 1051 834 1051 834 1051 671 c 0,18,19
 1051 416 1051 416 890 199.5 c 128,-1,20
 729 -17 729 -17 511 -17 c 0,21,22
 400 -17 400 -17 338 16.5 c 128,-1,23
 276 50 276 50 225 118 c 1,24,-1
 223 118 l 1,25,-1
 200 45 l 2,26,27
 186 0 186 0 151 0 c 2,28,-1
 67 0 l 2,0,1
265 290 m 1,29,30
 275 190 275 190 330 151.5 c 128,-1,31
 385 113 385 113 497 113 c 0,32,33
 649 113 649 113 757 282.5 c 128,-1,34
 865 452 865 452 865 678 c 0,35,36
 865 782 865 782 820 859.5 c 128,-1,37
 775 937 775 937 662 937 c 0,38,39
 564 937 564 937 462.5 819.5 c 128,-1,40
 361 702 361 702 330 570 c 2,41,-1
 265 290 l 1,29,30
EndSplineSet
EndChar

StartChar: c
Encoding: 99 99 70
Width: 1026
GlyphClass: 2
Flags: W
AnchorPoint: "Anchor-3" 660 1067 basechar 0
AnchorPoint: "Anchor-2" 492 0 basechar 0
LayerCount: 2
Fore
SplineSet
68 402 m 0,0,1
 68 667 68 667 231.5 867 c 128,-1,2
 395 1067 395 1067 660 1067 c 0,3,4
 822 1067 822 1067 891 1010.5 c 128,-1,5
 960 954 960 954 991 886 c 0,6,7
 1007 850 1007 850 977 834 c 2,8,-1
 911 799 l 2,9,10
 877 781 877 781 858 824 c 0,11,12
 844 856 844 856 794 896.5 c 128,-1,13
 744 937 744 937 647 937 c 0,14,15
 491 937 491 937 372.5 797 c 128,-1,16
 254 657 254 657 254 387 c 0,17,18
 254 265 254 265 312.5 189 c 128,-1,19
 371 113 371 113 501 113 c 0,20,21
 604 113 604 113 670 166.5 c 128,-1,22
 736 220 736 220 764 262 c 0,23,24
 787 297 787 297 817 276 c 2,25,-1
 880 230 l 2,26,27
 909 209 909 209 885 175 c 0,28,29
 856 135 856 135 758 59 c 128,-1,30
 660 -17 660 -17 488 -17 c 0,31,32
 254 -17 254 -17 161 116.5 c 128,-1,33
 68 250 68 250 68 402 c 0,0,1
EndSplineSet
EndChar

StartChar: d
Encoding: 100 100 71
Width: 1119
GlyphClass: 2
Flags: W
AnchorPoint: "Anchor-3" 750 1476 basechar 0
AnchorPoint: "Anchor-2" 409 0 basechar 0
LayerCount: 2
Fore
SplineSet
70 379 m 0,0,1
 70 634 70 634 231 850.5 c 128,-1,2
 392 1067 392 1067 610 1067 c 0,3,4
 721 1067 721 1067 783 1033.5 c 128,-1,5
 845 1000 845 1000 896 932 c 1,6,-1
 898 932 l 1,7,8
 901 956 901 956 910 993 c 2,9,-1
 1011 1431 l 2,10,11
 1021 1476 1021 1476 1066 1476 c 2,12,-1
 1152 1476 l 2,13,14
 1197 1476 1197 1476 1187 1431 c 2,15,-1
 867 45 l 2,16,17
 857 0 857 0 812 0 c 2,18,-1
 728 0 l 2,19,20
 691 0 691 0 699 45 c 2,21,-1
 721 165 l 1,22,-1
 719 165 l 1,23,24
 675 86 675 86 582 34.5 c 128,-1,25
 489 -17 489 -17 409 -17 c 0,26,27
 219 -17 219 -17 144.5 99.5 c 128,-1,28
 70 216 70 216 70 379 c 0,0,1
256 372 m 0,29,30
 256 268 256 268 301 190.5 c 128,-1,31
 346 113 346 113 459 113 c 0,32,33
 557 113 557 113 658.5 230.5 c 128,-1,34
 760 348 760 348 791 480 c 2,35,-1
 856 760 l 1,36,37
 846 860 846 860 791 898.5 c 128,-1,38
 736 937 736 937 624 937 c 0,39,40
 472 937 472 937 364 767.5 c 128,-1,41
 256 598 256 598 256 372 c 0,29,30
EndSplineSet
EndChar

StartChar: e
Encoding: 101 101 72
Width: 1078
GlyphClass: 2
Flags: W
AnchorPoint: "Anchor-3" 652 1067 basechar 0
AnchorPoint: "Anchor-2" 477 0 basechar 0
AnchorPoint: "Anchor-1" 477 0 basechar 0
LayerCount: 2
Fore
SplineSet
68 396 m 0,0,1
 68 696 68 696 224.5 881.5 c 128,-1,2
 381 1067 381 1067 652 1067 c 0,3,4
 807 1067 807 1067 902.5 978.5 c 128,-1,5
 998 890 998 890 998 778 c 0,6,7
 998 630 998 630 856.5 560 c 128,-1,8
 715 490 715 490 506 448 c 2,9,-1
 260 399 l 1,10,11
 254 361 254 361 254 359 c 0,12,13
 254 260 254 260 308 187 c 128,-1,14
 362 114 362 114 497 114 c 0,15,16
 612 114 612 114 682 156 c 128,-1,17
 752 198 752 198 777 232 c 0,18,19
 812 279 812 279 840 253 c 1,20,-1
 899 202 l 2,21,22
 918 185 918 185 893 146 c 0,23,24
 870 110 870 110 769 46.5 c 128,-1,25
 668 -17 668 -17 473 -17 c 0,26,27
 260 -17 260 -17 164 106.5 c 128,-1,28
 68 230 68 230 68 396 c 0,0,1
265 538 m 1,29,-1
 470 578 l 2,30,31
 610 605 610 605 716 652.5 c 128,-1,32
 822 700 822 700 822 786 c 0,33,34
 822 854 822 854 760.5 895.5 c 128,-1,35
 699 937 699 937 619 937 c 0,36,37
 498 937 498 937 403.5 845 c 128,-1,38
 309 753 309 753 265 538 c 1,29,-1
EndSplineSet
Substitution2: "'ss01' Style Set 1 lookup 7 subtable" e.alt
EndChar

StartChar: f
Encoding: 102 102 73
Width: 652
GlyphClass: 2
Flags: W
AnchorPoint: "Anchor-3" 680 1476 basechar 0
AnchorPoint: "Anchor-2" 118 -400 basechar 0
LayerCount: 2
Fore
SplineSet
182 918 m 2,0,1
 137 918 137 918 145 953 c 2,2,-1
 159 1015 l 2,3,4
 167 1050 167 1050 212 1050 c 2,5,-1
 319 1050 l 1,6,-1
 354 1199 l 1,7,8
 392 1366 392 1366 497 1429.5 c 128,-1,9
 602 1493 602 1493 718 1493 c 0,10,11
 787 1493 787 1493 827.5 1486 c 128,-1,12
 868 1479 868 1479 921 1455 c 0,13,14
 941 1446 941 1446 927 1423 c 2,15,-1
 877 1344 l 2,16,17
 865 1324 865 1324 840 1336 c 0,18,19
 821 1346 821 1346 791 1354.5 c 128,-1,20
 761 1363 761 1363 724 1363 c 0,21,22
 641 1363 641 1363 595 1323 c 128,-1,23
 549 1283 549 1283 523 1170 c 2,24,-1
 495 1050 l 1,25,-1
 678 1050 l 2,26,27
 723 1050 723 1050 715 1015 c 2,28,-1
 701 953 l 2,29,30
 693 918 693 918 648 918 c 2,31,-1
 465 918 l 1,32,-1
 171 -355 l 2,33,34
 161 -400 161 -400 116 -400 c 2,35,-1
 30 -400 l 2,36,37
 -15 -400 -15 -400 -5 -355 c 2,38,-1
 289 918 l 1,39,-1
 182 918 l 2,0,1
EndSplineSet
EndChar

StartChar: g
Encoding: 103 103 74
Width: 1119
GlyphClass: 2
Flags: W
AnchorPoint: "Anchor-3" 656 1067 basechar 0
AnchorPoint: "Anchor-2" 327 -400 basechar 0
LayerCount: 2
Fore
SplineSet
70 379 m 0,0,1
 70 634 70 634 231 850.5 c 128,-1,2
 392 1067 392 1067 610 1067 c 0,3,4
 721 1067 721 1067 783 1033.5 c 128,-1,5
 845 1000 845 1000 896 932 c 1,6,-1
 898 932 l 1,7,-1
 921 1005 l 2,8,9
 935 1050 935 1050 970 1050 c 2,10,-1
 1054 1050 l 2,11,12
 1099 1050 1099 1050 1089 1005 c 2,13,-1
 855 -8 l 2,14,15
 808 -213 808 -213 695 -315 c 128,-1,16
 582 -417 582 -417 323 -417 c 0,17,18
 188 -417 188 -417 102 -384.5 c 128,-1,19
 16 -352 16 -352 -16 -298 c 0,20,21
 -37 -263 -37 -263 -12 -238 c 2,22,-1
 38 -190 l 2,23,24
 63 -165 63 -165 94 -198 c 0,25,26
 132 -238 132 -238 190 -262.5 c 128,-1,27
 248 -287 248 -287 354 -287 c 0,28,29
 478 -287 478 -287 562.5 -219.5 c 128,-1,30
 647 -152 647 -152 684 11 c 2,31,-1
 705 104 l 2,32,33
 711 131 711 131 721 165 c 1,34,-1
 719 165 l 1,35,36
 675 86 675 86 582 34.5 c 128,-1,37
 489 -17 489 -17 409 -17 c 0,38,39
 219 -17 219 -17 144.5 99.5 c 128,-1,40
 70 216 70 216 70 379 c 0,0,1
256 372 m 0,41,42
 256 268 256 268 301 190.5 c 128,-1,43
 346 113 346 113 459 113 c 0,44,45
 557 113 557 113 658.5 230.5 c 128,-1,46
 760 348 760 348 791 480 c 2,47,-1
 856 760 l 1,48,49
 846 860 846 860 791 898.5 c 128,-1,50
 736 937 736 937 624 937 c 0,51,52
 472 937 472 937 364 767.5 c 128,-1,53
 256 598 256 598 256 372 c 0,41,42
EndSplineSet
EndChar

StartChar: h
Encoding: 104 104 75
Width: 1128
GlyphClass: 2
Flags: W
AnchorPoint: "Anchor-3" 785 1476 basechar 0
AnchorPoint: "Anchor-2" 444 0 basechar 0
LayerCount: 2
Fore
SplineSet
67 0 m 2,0,1
 22 0 22 0 32 45 c 2,2,-1
 352 1431 l 2,3,4
 362 1476 362 1476 408 1476 c 2,5,-1
 494 1476 l 2,6,7
 538 1476 538 1476 528 1431 c 2,8,-1
 416 945 l 2,9,10
 410 917 410 917 401 885 c 1,11,-1
 405 885 l 1,12,13
 464 958 464 958 558.5 1012.5 c 128,-1,14
 653 1067 653 1067 773 1067 c 0,15,16
 943 1067 943 1067 1005 964.5 c 128,-1,17
 1067 862 1067 862 1026 684 c 2,18,-1
 878 45 l 2,19,20
 868 0 868 0 823 0 c 2,21,-1
 737 0 l 2,22,23
 692 0 692 0 702 45 c 2,24,-1
 839 636 l 2,25,26
 884 832 884 832 836 884.5 c 128,-1,27
 788 937 788 937 678 937 c 0,28,29
 558 937 558 937 459.5 820.5 c 128,-1,30
 361 704 361 704 326 554 c 2,31,-1
 208 45 l 2,32,33
 198 0 198 0 153 0 c 2,34,-1
 67 0 l 2,0,1
EndSplineSet
EndChar

StartChar: k
Encoding: 107 107 78
Width: 1003
GlyphClass: 2
Flags: W
AnchorPoint: "Anchor-3" 768 1476 basechar 0
AnchorPoint: "Anchor-2" 427 0 basechar 0
LayerCount: 2
Fore
SplineSet
67 0 m 2,0,1
 22 0 22 0 32 45 c 2,2,-1
 352 1431 l 2,3,4
 362 1476 362 1476 408 1476 c 2,5,-1
 494 1476 l 2,6,7
 538 1476 538 1476 528 1431 c 2,8,-1
 339 611 l 2,9,10
 332 582 332 582 323 551 c 1,11,-1
 325 551 l 1,12,-1
 830 1024 l 2,13,14
 858 1050 858 1050 889 1050 c 2,15,-1
 1000 1050 l 2,16,17
 1077 1050 1077 1050 1013 991 c 2,18,-1
 604 611 l 1,19,-1
 832 59 l 2,20,21
 856 0 856 0 792 0 c 2,22,-1
 711 0 l 2,23,24
 678 0 678 0 663 37 c 2,25,-1
 477 491 l 1,26,-1
 266 293 l 1,27,-1
 208 45 l 2,28,29
 197 0 197 0 153 0 c 2,30,-1
 67 0 l 2,0,1
EndSplineSet
EndChar

StartChar: l
Encoding: 108 108 79
Width: 460
GlyphClass: 2
Flags: W
AnchorPoint: "Anchor-3" 451 1476 basechar 0
AnchorPoint: "Anchor-2" 110 0 basechar 0
LayerCount: 2
Fore
SplineSet
67 0 m 2,0,1
 22 0 22 0 32 45 c 2,2,-1
 321 1293 l 2,3,4
 325 1313 325 1313 339 1331 c 2,5,-1
 439 1458 l 2,6,7
 466 1493 466 1493 478 1493 c 2,8,-1
 513 1493 l 2,9,10
 543 1493 543 1493 535 1458 c 2,11,-1
 208 45 l 2,12,13
 198 0 198 0 153 0 c 2,14,-1
 67 0 l 2,0,1
EndSplineSet
EndChar

StartChar: m
Encoding: 109 109 80
Width: 1678
GlyphClass: 2
Flags: W
AnchorPoint: "Anchor-3" 966 1067 basechar 0
AnchorPoint: "Anchor-2" 720 0 basechar 0
LayerCount: 2
Fore
SplineSet
67 0 m 2,0,1
 22 0 22 0 32 45 c 2,2,-1
 254 1005 l 2,3,4
 264 1050 264 1050 309 1050 c 2,5,-1
 393 1050 l 2,6,7
 438 1050 438 1050 428 1005 c 2,8,-1
 401 885 l 1,9,-1
 405 885 l 1,10,11
 464 957 464 957 553.5 1012 c 128,-1,12
 643 1067 643 1067 733 1067 c 0,13,14
 843 1067 843 1067 905.5 997.5 c 128,-1,15
 968 928 968 928 968 833 c 1,16,-1
 972 833 l 1,17,18
 1035 915 1035 915 1131.5 991 c 128,-1,19
 1228 1067 1228 1067 1343 1067 c 0,20,21
 1483 1067 1483 1067 1550 964.5 c 128,-1,22
 1617 862 1617 862 1576 684 c 2,23,-1
 1428 45 l 2,24,25
 1418 0 1418 0 1373 0 c 2,26,-1
 1287 0 l 2,27,28
 1242 0 1242 0 1252 45 c 2,29,-1
 1387 626 l 2,30,31
 1432 821 1432 821 1400 879 c 128,-1,32
 1368 937 1368 937 1258 937 c 0,33,34
 1168 937 1168 937 1068.5 816.5 c 128,-1,35
 969 696 969 696 936 554 c 2,36,-1
 818 45 l 2,37,38
 808 0 808 0 763 0 c 2,39,-1
 677 0 l 2,40,41
 632 0 632 0 642 45 c 2,42,-1
 777 626 l 2,43,44
 822 821 822 821 790 879 c 128,-1,45
 758 937 758 937 648 937 c 0,46,47
 558 937 558 937 459.5 820.5 c 128,-1,48
 361 704 361 704 326 554 c 2,49,-1
 208 45 l 2,50,51
 198 0 198 0 153 0 c 2,52,-1
 67 0 l 2,0,1
EndSplineSet
EndChar

StartChar: n
Encoding: 110 110 81
Width: 1128
GlyphClass: 2
Flags: W
AnchorPoint: "Anchor-3" 691 1067 basechar 0
AnchorPoint: "Anchor-2" 445 0 basechar 0
LayerCount: 2
Fore
SplineSet
67 0 m 2,0,1
 22 0 22 0 32 45 c 2,2,-1
 254 1005 l 2,3,4
 264 1050 264 1050 309 1050 c 2,5,-1
 393 1050 l 2,6,7
 438 1050 438 1050 428 1005 c 2,8,-1
 401 885 l 1,9,-1
 405 885 l 1,10,11
 464 958 464 958 558.5 1012.5 c 128,-1,12
 653 1067 653 1067 773 1067 c 0,13,14
 943 1067 943 1067 1005 964.5 c 128,-1,15
 1067 862 1067 862 1026 684 c 2,16,-1
 878 45 l 2,17,18
 868 0 868 0 823 0 c 2,19,-1
 737 0 l 2,20,21
 692 0 692 0 702 45 c 2,22,-1
 839 636 l 2,23,24
 884 832 884 832 836 884.5 c 128,-1,25
 788 937 788 937 678 937 c 0,26,27
 558 937 558 937 459.5 820.5 c 128,-1,28
 361 704 361 704 326 554 c 2,29,-1
 208 45 l 2,30,31
 198 0 198 0 153 0 c 2,32,-1
 67 0 l 2,0,1
EndSplineSet
EndChar

StartChar: o
Encoding: 111 111 82
Width: 1148
GlyphClass: 2
Flags: W
AnchorPoint: "Anchor-3" 660 1067 basechar 0
AnchorPoint: "Anchor-2" 492 0 basechar 0
AnchorPoint: "Anchor-1" 492 0 basechar 0
LayerCount: 2
Fore
SplineSet
68 402 m 0,0,1
 68 666 68 666 231.5 866.5 c 128,-1,2
 395 1067 395 1067 660 1067 c 0,3,4
 894 1067 894 1067 987 932.5 c 128,-1,5
 1080 798 1080 798 1080 648 c 0,6,7
 1080 384 1080 384 916.5 183.5 c 128,-1,8
 753 -17 753 -17 488 -17 c 0,9,10
 254 -17 254 -17 161 117.5 c 128,-1,11
 68 252 68 252 68 402 c 0,0,1
254 387 m 0,12,13
 254 262 254 262 312.5 187.5 c 128,-1,14
 371 113 371 113 501 113 c 0,15,16
 657 113 657 113 775.5 254.5 c 128,-1,17
 894 396 894 396 894 663 c 0,18,19
 894 788 894 788 835.5 862.5 c 128,-1,20
 777 937 777 937 647 937 c 0,21,22
 491 937 491 937 372.5 795.5 c 128,-1,23
 254 654 254 654 254 387 c 0,12,13
EndSplineSet
EndChar

StartChar: p
Encoding: 112 112 83
Width: 1119
GlyphClass: 2
Flags: W
AnchorPoint: "Anchor-3" 715 1067 basechar 0
AnchorPoint: "Anchor-2" 376 -400 basechar 0
LayerCount: 2
Fore
SplineSet
-25 -400 m 2,0,1
 -70 -400 -70 -400 -60 -355 c 2,2,-1
 254 1005 l 2,3,4
 264 1050 264 1050 309 1050 c 2,5,-1
 393 1050 l 2,6,7
 430 1050 430 1050 422 1005 c 2,8,-1
 400 885 l 1,9,-1
 402 885 l 1,10,11
 446 964 446 964 539 1015.5 c 128,-1,12
 632 1067 632 1067 712 1067 c 0,13,14
 902 1067 902 1067 976.5 950.5 c 128,-1,15
 1051 834 1051 834 1051 671 c 0,16,17
 1051 416 1051 416 890 199.5 c 128,-1,18
 729 -17 729 -17 511 -17 c 0,19,20
 400 -17 400 -17 338 16.5 c 128,-1,21
 276 50 276 50 225 118 c 1,22,-1
 223 118 l 1,23,24
 219 90 219 90 211 57 c 2,25,-1
 116 -355 l 2,26,27
 106 -400 106 -400 61 -400 c 2,28,-1
 -25 -400 l 2,0,1
265 290 m 1,29,30
 275 190 275 190 330 151.5 c 128,-1,31
 385 113 385 113 497 113 c 0,32,33
 649 113 649 113 757 282.5 c 128,-1,34
 865 452 865 452 865 678 c 0,35,36
 865 782 865 782 820 859.5 c 128,-1,37
 775 937 775 937 662 937 c 0,38,39
 564 937 564 937 462.5 819.5 c 128,-1,40
 361 702 361 702 330 570 c 2,41,-1
 265 290 l 1,29,30
EndSplineSet
EndChar

StartChar: q
Encoding: 113 113 84
Width: 1119
GlyphClass: 2
Flags: W
AnchorPoint: "Anchor-3" 656 1067 basechar 0
AnchorPoint: "Anchor-2" 317 -400 basechar 0
LayerCount: 2
Fore
SplineSet
70 379 m 0,0,1
 70 634 70 634 231 850.5 c 128,-1,2
 392 1067 392 1067 610 1067 c 0,3,4
 721 1067 721 1067 783 1033.5 c 128,-1,5
 845 1000 845 1000 896 932 c 1,6,-1
 898 932 l 1,7,-1
 921 1005 l 2,8,9
 935 1050 935 1050 970 1050 c 2,10,-1
 1054 1050 l 2,11,12
 1099 1050 1099 1050 1089 1005 c 2,13,-1
 775 -355 l 2,14,15
 765 -400 765 -400 720 -400 c 2,16,-1
 634 -400 l 2,17,18
 589 -400 589 -400 599 -355 c 2,19,-1
 705 104 l 2,20,21
 714 141 714 141 721 165 c 1,22,-1
 719 165 l 1,23,24
 675 86 675 86 582 34.5 c 128,-1,25
 489 -17 489 -17 409 -17 c 0,26,27
 219 -17 219 -17 144.5 99.5 c 128,-1,28
 70 216 70 216 70 379 c 0,0,1
256 372 m 0,29,30
 256 268 256 268 301 190.5 c 128,-1,31
 346 113 346 113 459 113 c 0,32,33
 557 113 557 113 658.5 230.5 c 128,-1,34
 760 348 760 348 791 480 c 2,35,-1
 856 760 l 1,36,37
 846 860 846 860 791 898.5 c 128,-1,38
 736 937 736 937 624 937 c 0,39,40
 472 937 472 937 364 767.5 c 128,-1,41
 256 598 256 598 256 372 c 0,29,30
EndSplineSet
EndChar

StartChar: r
Encoding: 114 114 85
Width: 722
GlyphClass: 2
Flags: W
AnchorPoint: "Anchor-3" 557 1067 basechar 0
AnchorPoint: "Anchor-2" 110 0 basechar 0
LayerCount: 2
Fore
SplineSet
67 0 m 2,0,1
 22 0 22 0 32 45 c 2,2,-1
 254 1005 l 2,3,4
 264 1050 264 1050 309 1050 c 2,5,-1
 393 1050 l 2,6,7
 438 1050 438 1050 428 1005 c 2,8,-1
 391 845 l 1,9,-1
 395 845 l 1,10,11
 467 958 467 958 542.5 1012.5 c 128,-1,12
 618 1067 618 1067 721 1067 c 0,13,14
 780 1067 780 1067 804 1056 c 0,15,16
 823 1048 823 1048 814 1026 c 2,17,-1
 781 944 l 2,18,19
 774 926 774 926 752 930 c 0,20,21
 718 937 718 937 683 937 c 0,22,23
 574 937 574 937 462 795.5 c 128,-1,24
 350 654 350 654 315 504 c 2,25,-1
 208 45 l 2,26,27
 198 0 198 0 153 0 c 2,28,-1
 67 0 l 2,0,1
EndSplineSet
EndChar

StartChar: s
Encoding: 115 115 86
Width: 937
GlyphClass: 2
Flags: W
AnchorPoint: "Anchor-3" 558 1067 basechar 0
AnchorPoint: "Anchor-2" 384 0 basechar 0
LayerCount: 2
Fore
SplineSet
28 102 m 0,0,1
 -1 133 -1 133 20 157 c 2,2,-1
 70 216 l 2,3,4
 91 240 91 240 135 207 c 0,5,6
 192 164 192 164 257.5 138.5 c 128,-1,7
 323 113 323 113 395 113 c 0,8,9
 449 113 449 113 502.5 127.5 c 128,-1,10
 556 142 556 142 591 185 c 128,-1,11
 626 228 626 228 626 271 c 256,12,13
 626 314 626 314 613.5 344 c 128,-1,14
 601 374 601 374 570 395 c 128,-1,15
 539 416 539 416 508 428 c 0,16,17
 466 444 466 444 411.5 466 c 128,-1,18
 357 488 357 488 310 510 c 0,19,20
 264 532 264 532 228 573 c 128,-1,21
 192 614 192 614 175 662.5 c 128,-1,22
 158 711 158 711 158 766 c 0,23,24
 158 848 158 848 208 926.5 c 128,-1,25
 258 1005 258 1005 352.5 1036 c 128,-1,26
 447 1067 447 1067 558 1067 c 0,27,28
 654 1067 654 1067 731 1039.5 c 128,-1,29
 808 1012 808 1012 862 967 c 0,30,31
 892 942 892 942 866 913 c 2,32,-1
 816 857 l 2,33,34
 797 836 797 836 752 868 c 0,35,36
 712 896 712 896 660 914 c 128,-1,37
 608 932 608 932 553 932 c 0,38,39
 505 932 505 932 451.5 918 c 128,-1,40
 398 904 398 904 366 868 c 128,-1,41
 334 832 334 832 334 782 c 0,42,43
 334 746 334 746 344 716 c 128,-1,44
 354 686 354 686 379.5 665.5 c 128,-1,45
 405 645 405 645 434 632 c 0,46,47
 486 608 486 608 534.5 591 c 128,-1,48
 583 574 583 574 623 556 c 0,49,50
 693 526 693 526 737 486 c 128,-1,51
 781 446 781 446 796.5 397 c 128,-1,52
 812 348 812 348 812 291 c 0,53,54
 812 180 812 180 742.5 107 c 128,-1,55
 673 34 673 34 584 8.5 c 128,-1,56
 495 -17 495 -17 380 -17 c 0,57,58
 237 -17 237 -17 151.5 22.5 c 128,-1,59
 66 62 66 62 28 102 c 0,0,1
EndSplineSet
EndChar

StartChar: t
Encoding: 116 116 87
Width: 757
GlyphClass: 2
Flags: W
AnchorPoint: "Anchor-3" 486 1340 basechar 0
AnchorPoint: "Anchor-2" 267 0 basechar 0
LayerCount: 2
Fore
SplineSet
183 918 m 2,0,1
 138 918 138 918 146 953 c 2,2,-1
 160 1015 l 2,3,4
 168 1050 168 1050 213 1050 c 2,5,-1
 331 1050 l 1,6,-1
 352 1140 l 2,7,8
 357 1159 357 1159 371 1178 c 2,9,-1
 470 1305 l 2,10,11
 497 1340 497 1340 509 1340 c 2,12,-1
 544 1340 l 2,13,14
 574 1340 574 1340 566 1305 c 2,15,-1
 507 1050 l 1,16,-1
 720 1050 l 2,17,18
 765 1050 765 1050 757 1015 c 2,19,-1
 743 953 l 2,20,21
 735 918 735 918 690 918 c 2,22,-1
 477 918 l 1,23,-1
 330 281 l 2,24,25
 306 176 306 176 330.5 144.5 c 128,-1,26
 355 113 355 113 390 113 c 0,27,28
 436 113 436 113 485 130.5 c 128,-1,29
 534 148 534 148 551 159 c 0,30,31
 573 173 573 173 580 153 c 2,32,-1
 606 81 l 2,33,34
 612 63 612 63 595 52 c 0,35,36
 554 26 554 26 475.5 4.5 c 128,-1,37
 397 -17 397 -17 308 -17 c 0,38,39
 220 -17 220 -17 169.5 58 c 128,-1,40
 119 133 119 133 151 270 c 2,41,-1
 301 918 l 1,42,-1
 183 918 l 2,0,1
EndSplineSet
EndChar

StartChar: u
Encoding: 117 117 88
Width: 1120
GlyphClass: 2
Flags: W
AnchorPoint: "Anchor-3" 685 1067 basechar 0
AnchorPoint: "Anchor-2" 438 0 basechar 0
AnchorPoint: "Anchor-1" 357 0 basechar 0
LayerCount: 2
Fore
SplineSet
104 366 m 2,0,-1
 252 1005 l 2,1,2
 262 1050 262 1050 307 1050 c 2,3,-1
 393 1050 l 2,4,5
 438 1050 438 1050 428 1005 c 2,6,-1
 292 414 l 2,7,8
 247 217 247 217 295 165 c 128,-1,9
 343 113 343 113 448 113 c 0,10,11
 595 113 595 113 678 229.5 c 128,-1,12
 761 346 761 346 796 496 c 2,13,-1
 914 1005 l 2,14,15
 924 1050 924 1050 969 1050 c 2,16,-1
 1055 1050 l 2,17,18
 1100 1050 1100 1050 1090 1005 c 2,19,-1
 868 45 l 2,20,21
 858 0 858 0 813 0 c 2,22,-1
 729 0 l 2,23,24
 684 0 684 0 694 45 c 2,25,-1
 722 165 l 1,26,-1
 718 165 l 1,27,28
 659 92 659 92 563.5 37.5 c 128,-1,29
 468 -17 468 -17 353 -17 c 0,30,31
 193 -17 193 -17 128 85.5 c 128,-1,32
 63 188 63 188 104 366 c 2,0,-1
EndSplineSet
EndChar

StartChar: v
Encoding: 118 118 89
Width: 986
GlyphClass: 2
Flags: W
AnchorPoint: "Anchor-3" 618 1067 basechar 0
AnchorPoint: "Anchor-2" 373 0 basechar 0
LayerCount: 2
Fore
SplineSet
156 1001 m 2,0,1
 150 1050 150 1050 194 1050 c 2,2,-1
 293 1050 l 2,3,4
 325 1050 325 1050 329 1011 c 2,5,-1
 389 351 l 2,6,7
 393 311 393 311 396 260 c 128,-1,8
 399 209 399 209 399 164 c 1,9,-1
 403 164 l 1,10,11
 421 209 421 209 437.5 239.5 c 128,-1,12
 454 270 454 270 499 351 c 2,13,-1
 863 1011 l 2,14,15
 885 1050 885 1050 917 1050 c 2,16,-1
 1036 1050 l 2,17,18
 1080 1050 1080 1050 1052 1001 c 2,19,-1
 507 61 l 2,20,21
 472 0 472 0 439 0 c 2,22,-1
 307 0 l 2,23,24
 274 0 274 0 267 61 c 2,25,-1
 156 1001 l 2,0,1
EndSplineSet
EndChar

StartChar: w
Encoding: 119 119 90
Width: 1444
GlyphClass: 2
Flags: W
AnchorPoint: "Anchor-3" 848 1067 basechar 0
AnchorPoint: "Anchor-2" 602 0 basechar 0
LayerCount: 2
Fore
SplineSet
156 1001 m 2,0,1
 154 1050 154 1050 194 1050 c 2,2,-1
 291 1050 l 2,3,4
 327 1050 327 1050 327 1011 c 2,5,-1
 324 351 l 2,6,7
 324 306 324 306 323 253 c 128,-1,8
 322 200 322 200 322 169 c 1,9,-1
 326 169 l 1,10,11
 337 197 337 197 364 256.5 c 128,-1,12
 391 316 391 316 409 351 c 2,13,-1
 737 1011 l 2,14,15
 756 1050 756 1050 791 1050 c 2,16,-1
 881 1050 l 2,17,18
 916 1050 916 1050 917 1011 c 2,19,-1
 941 351 l 2,20,21
 942 315 942 315 941 266.5 c 128,-1,22
 940 218 940 218 940 169 c 1,23,-1
 944 169 l 1,24,25
 957 198 957 198 985.5 260 c 128,-1,26
 1014 322 1014 322 1028 351 c 2,27,-1
 1327 1011 l 2,28,29
 1345 1050 1345 1050 1381 1050 c 2,30,-1
 1494 1050 l 2,31,32
 1534 1050 1534 1050 1510 1001 c 2,33,-1
 1045 61 l 2,34,35
 1015 0 1015 0 977 0 c 2,36,-1
 857 0 l 2,37,38
 819 0 819 0 817 61 c 2,39,-1
 800 722 l 2,40,41
 799 780 799 780 800.5 814 c 128,-1,42
 802 848 802 848 805 873 c 1,43,-1
 803 873 l 1,44,45
 794 848 794 848 777 807 c 128,-1,46
 760 766 760 766 738 722 c 2,47,-1
 415 61 l 2,48,49
 385 0 385 0 347 0 c 2,50,-1
 227 0 l 2,51,52
 189 0 189 0 187 61 c 2,53,-1
 156 1001 l 2,0,1
EndSplineSet
EndChar

StartChar: x
Encoding: 120 120 91
Width: 968
GlyphClass: 2
Flags: W
AnchorPoint: "Anchor-3" 605 1067 basechar 0
AnchorPoint: "Anchor-2" 359 0 basechar 0
LayerCount: 2
Fore
SplineSet
-44 0 m 2,0,1
 -109 0 -109 0 -56 59 c 2,2,-1
 396 565 l 1,3,-1
 203 991 l 2,4,5
 176 1050 176 1050 242 1050 c 2,6,-1
 316 1050 l 2,7,8
 352 1050 352 1050 363 1024 c 2,9,-1
 511 676 l 1,10,-1
 798 1024 l 2,11,12
 819 1050 819 1050 857 1050 c 2,13,-1
 966 1050 l 2,14,15
 1032 1050 1032 1050 979 991 c 2,16,-1
 579 542 l 1,17,-1
 800 59 l 2,18,19
 827 0 827 0 760 0 c 2,20,-1
 682 0 l 2,21,22
 646 0 646 0 635 26 c 2,23,-1
 465 431 l 1,24,-1
 127 26 l 2,25,26
 105 0 105 0 68 0 c 2,27,-1
 -44 0 l 2,0,1
EndSplineSet
EndChar

StartChar: y
Encoding: 121 121 92
Width: 1128
GlyphClass: 2
Flags: W
AnchorPoint: "Anchor-3" 691 1067 basechar 0
AnchorPoint: "Anchor-2" 304 -400 basechar 0
LayerCount: 2
Fore
SplineSet
106 366 m 2,0,-1
 254 1005 l 2,1,2
 264 1050 264 1050 309 1050 c 2,3,-1
 395 1050 l 2,4,5
 440 1050 440 1050 430 1005 c 2,6,-1
 294 414 l 2,7,8
 249 217 249 217 296.5 165 c 128,-1,9
 344 113 344 113 454 113 c 0,10,11
 560 113 560 113 665.5 226.5 c 128,-1,12
 771 340 771 340 807 496 c 2,13,-1
 924 1005 l 2,14,15
 934 1050 934 1050 979 1050 c 2,16,-1
 1065 1050 l 2,17,18
 1110 1050 1110 1050 1100 1005 c 2,19,-1
 866 -9 l 2,20,21
 819 -214 819 -214 708 -315.5 c 128,-1,22
 597 -417 597 -417 334 -417 c 0,23,24
 163 -417 163 -417 98 -384 c 128,-1,25
 33 -351 33 -351 0 -306 c 0,26,27
 -29 -266 -29 -266 2 -238 c 2,28,-1
 58 -186 l 2,29,30
 90 -157 90 -157 108 -186 c 0,31,32
 138 -234 138 -234 195 -260.5 c 128,-1,33
 252 -287 252 -287 365 -287 c 0,34,35
 486 -287 486 -287 571.5 -218.5 c 128,-1,36
 657 -150 657 -150 694 10 c 0,37,38
 717 112 717 112 731 165 c 1,39,-1
 727 165 l 1,40,41
 668 92 668 92 577 37.5 c 128,-1,42
 486 -17 486 -17 359 -17 c 0,43,44
 189 -17 189 -17 127 85.5 c 128,-1,45
 65 188 65 188 106 366 c 2,0,-1
EndSplineSet
EndChar

StartChar: z
Encoding: 122 122 93
Width: 950
GlyphClass: 2
Flags: W
AnchorPoint: "Anchor-3" 601 1067 basechar 0
AnchorPoint: "Anchor-2" 355 0 basechar 0
LayerCount: 2
Fore
SplineSet
-20 0 m 2,0,1
 -65 0 -65 0 -57 35 c 2,2,-1
 -45 86 l 2,3,4
 -37 120 -37 120 8 166 c 2,5,-1
 745 918 l 1,6,-1
 745 920 l 1,7,8
 715 918 715 918 685 918 c 2,9,-1
 216 918 l 2,10,11
 171 918 171 918 179 953 c 2,12,-1
 193 1015 l 2,13,14
 201 1050 201 1050 246 1050 c 2,15,-1
 948 1050 l 2,16,17
 993 1050 993 1050 985 1015 c 2,18,-1
 974 968 l 2,19,20
 967 940 967 940 919 890 c 2,21,-1
 179 132 l 1,22,-1
 179 130 l 1,23,24
 209 132 209 132 239 132 c 2,25,-1
 760 132 l 2,26,27
 805 132 805 132 797 97 c 2,28,-1
 783 35 l 2,29,30
 775 0 775 0 730 0 c 2,31,-1
 -20 0 l 2,0,1
EndSplineSet
EndChar

StartChar: braceleft
Encoding: 123 123 94
Width: 776
GlyphClass: 2
Flags: W
LayerCount: 2
Fore
SplineSet
116 479 m 0,0,1
 81 479 81 479 91 524 c 2,2,-1
 100 564 l 2,3,4
 111 609 111 609 146 609 c 0,5,6
 210 609 210 609 305 673.5 c 128,-1,7
 400 738 400 738 445 931 c 2,8,-1
 499 1166 l 2,9,10
 538 1336 538 1336 599 1416 c 128,-1,11
 660 1496 660 1496 886 1496 c 0,12,13
 931 1496 931 1496 923 1461 c 2,14,-1
 909 1401 l 2,15,16
 901 1366 901 1366 856 1366 c 0,17,18
 758 1366 758 1366 730.5 1324.5 c 128,-1,19
 703 1283 703 1283 681 1189 c 2,20,-1
 614 903 l 2,21,22
 560 669 560 669 458 610 c 128,-1,23
 356 551 356 551 285 545 c 1,24,-1
 284 543 l 1,25,26
 359 524 359 524 422.5 434.5 c 128,-1,27
 486 345 486 345 449 185 c 2,28,-1
 383 -101 l 2,29,30
 361 -196 361 -196 370 -237 c 128,-1,31
 379 -278 379 -278 477 -278 c 0,32,33
 522 -278 522 -278 514 -313 c 2,34,-1
 500 -373 l 2,35,36
 492 -408 492 -408 447 -408 c 0,37,38
 267 -408 267 -408 224.5 -309 c 128,-1,39
 182 -210 182 -210 212 -78 c 2,40,-1
 266 157 l 2,41,42
 307 333 307 333 256.5 406 c 128,-1,43
 206 479 206 479 116 479 c 0,0,1
EndSplineSet
EndChar

StartChar: bar
Encoding: 124 124 95
Width: 590
GlyphClass: 2
Flags: W
LayerCount: 2
Fore
SplineSet
267 -440 m 2,0,1
 232 -440 232 -440 232 -395 c 2,2,-1
 232 1451 l 2,3,4
 232 1496 232 1496 267 1496 c 2,5,-1
 327 1496 l 2,6,7
 362 1496 362 1496 362 1451 c 2,8,-1
 362 -395 l 2,9,10
 362 -440 362 -440 327 -440 c 2,11,-1
 267 -440 l 2,0,1
EndSplineSet
EndChar

StartChar: braceright
Encoding: 125 125 96
Width: 776
GlyphClass: 2
Flags: W
LayerCount: 2
Fore
SplineSet
-99 -408 m 0,0,1
 -144 -408 -144 -408 -136 -373 c 2,2,-1
 -122 -313 l 2,3,4
 -114 -278 -114 -278 -69 -278 c 0,5,6
 29 -278 29 -278 56.5 -236.5 c 128,-1,7
 84 -195 84 -195 106 -101 c 2,8,-1
 173 185 l 2,9,10
 227 419 227 419 329 478 c 128,-1,11
 431 537 431 537 502 543 c 1,12,-1
 503 545 l 1,13,14
 428 564 428 564 364.5 653.5 c 128,-1,15
 301 743 301 743 338 903 c 2,16,-1
 404 1189 l 2,17,18
 426 1284 426 1284 417 1325 c 128,-1,19
 408 1366 408 1366 310 1366 c 0,20,21
 265 1366 265 1366 273 1401 c 2,22,-1
 287 1461 l 2,23,24
 295 1496 295 1496 340 1496 c 0,25,26
 520 1496 520 1496 562.5 1397 c 128,-1,27
 605 1298 605 1298 575 1166 c 2,28,-1
 521 931 l 2,29,30
 480 755 480 755 530.5 682 c 128,-1,31
 581 609 581 609 671 609 c 0,32,33
 706 609 706 609 696 564 c 2,34,-1
 687 524 l 2,35,36
 676 479 676 479 641 479 c 0,37,38
 577 479 577 479 482 414.5 c 128,-1,39
 387 350 387 350 342 157 c 2,40,-1
 288 -78 l 2,41,42
 249 -248 249 -248 188 -328 c 128,-1,43
 127 -408 127 -408 -99 -408 c 0,0,1
EndSplineSet
EndChar

StartChar: asciitilde
Encoding: 126 126 97
Width: 1280
GlyphClass: 2
Flags: W
LayerCount: 2
Fore
SplineSet
148 628 m 2,0,1
 124 636 124 636 135 671 c 0,2,3
 170 781 170 781 251 845.5 c 128,-1,4
 332 910 332 910 447 910 c 256,5,6
 562 910 562 910 725.5 790 c 128,-1,7
 889 670 889 670 964 670 c 0,8,9
 1033 670 1033 670 1077 715 c 128,-1,10
 1121 760 1121 760 1146 816 c 0,11,12
 1159 846 1159 846 1183 837 c 2,13,-1
 1226 822 l 2,14,15
 1250 814 1250 814 1239 779 c 0,16,17
 1204 669 1204 669 1123 604.5 c 128,-1,18
 1042 540 1042 540 927 540 c 256,19,20
 812 540 812 540 648.5 660 c 128,-1,21
 485 780 485 780 410 780 c 0,22,23
 341 780 341 780 297 735 c 128,-1,24
 253 690 253 690 228 634 c 0,25,26
 215 604 215 604 191 613 c 2,27,-1
 148 628 l 2,0,1
EndSplineSet
EndChar

StartChar: exclamdown
Encoding: 161 161 98
Width: 600
GlyphClass: 2
Flags: W
LayerCount: 2
Fore
SplineSet
39 -384 m 2,0,1
 -11 -384 -11 -384 2 -329 c 2,2,-1
 241 615 l 2,3,4
 252 660 252 660 296 660 c 2,5,-1
 368 660 l 2,6,7
 413 660 413 660 403 615 c 2,8,-1
 206 -329 l 2,9,10
 195 -384 195 -384 143 -384 c 2,11,-1
 39 -384 l 2,0,1
317 838 m 2,12,13
 272 838 272 838 282 883 c 2,14,-1
 311 1005 l 2,15,16
 321 1050 321 1050 366 1050 c 2,17,-1
 478 1050 l 2,18,19
 523 1050 523 1050 513 1005 c 2,20,-1
 484 883 l 2,21,22
 474 838 474 838 429 838 c 2,23,-1
 317 838 l 2,12,13
EndSplineSet
EndChar

StartChar: cent
Encoding: 162 162 99
Width: 1110
GlyphClass: 2
Flags: W
LayerCount: 2
Fore
SplineSet
118 402 m 0,0,1
 118 667 118 667 276.5 861 c 128,-1,2
 435 1055 435 1055 678 1066 c 1,3,-1
 721 1252 l 2,4,5
 731 1297 731 1297 766 1297 c 2,6,-1
 816 1297 l 2,7,8
 851 1297 851 1297 841 1252 c 2,9,-1
 797 1062 l 1,10,11
 892 1050 892 1050 951 1002 c 128,-1,12
 1010 954 1010 954 1041 886 c 0,13,14
 1057 850 1057 850 1027 834 c 2,15,-1
 961 799 l 2,16,17
 927 781 927 781 908 824 c 0,18,19
 894 856 894 856 854 888.5 c 128,-1,20
 814 921 814 921 767 931 c 1,21,-1
 578 114 l 1,22,23
 663 120 663 120 724.5 170 c 128,-1,24
 786 220 786 220 814 262 c 0,25,26
 837 297 837 297 867 276 c 2,27,-1
 930 230 l 2,28,29
 959 209 959 209 935 175 c 0,30,31
 906 135 906 135 809.5 60 c 128,-1,32
 713 -15 713 -15 548 -17 c 1,33,-1
 505 -202 l 2,34,35
 495 -247 495 -247 460 -247 c 2,36,-1
 410 -247 l 2,37,38
 375 -247 375 -247 385 -202 c 2,39,-1
 430 -9 l 1,40,41
 281 16 281 16 199.5 133 c 128,-1,42
 118 250 118 250 118 402 c 0,0,1
304 387 m 0,43,44
 304 265 304 265 351 204 c 128,-1,45
 398 143 398 143 460 125 c 1,46,-1
 647 933 l 1,47,48
 521 914 521 914 412.5 785.5 c 128,-1,49
 304 657 304 657 304 387 c 0,43,44
EndSplineSet
EndChar

StartChar: sterling
Encoding: 163 163 100
Width: 1110
GlyphClass: 2
Flags: W
LayerCount: 2
Fore
SplineSet
14 0 m 2,0,1
 -42 0 -42 0 -31 45 c 2,2,-1
 -17 102 l 2,3,4
 -7 143 -7 143 34 175 c 0,5,6
 88 216 88 216 169 299 c 128,-1,7
 250 382 250 382 275 492 c 2,8,-1
 306 628 l 1,9,-1
 148 628 l 2,10,11
 104 628 104 628 114 673 c 2,12,-1
 131 747 l 2,13,14
 141 792 141 792 187 792 c 2,15,-1
 344 792 l 1,16,-1
 395 1013 l 2,17,18
 452 1260 452 1260 570 1356 c 128,-1,19
 688 1452 688 1452 891 1452 c 0,20,21
 999 1452 999 1452 1069.5 1415.5 c 128,-1,22
 1140 1379 1140 1379 1177 1335 c 0,23,24
 1203 1303 1203 1303 1176 1274 c 2,25,-1
 1135 1230 l 2,26,27
 1106 1198 1106 1198 1069 1232 c 0,28,29
 1038 1260 1038 1260 987 1281 c 128,-1,30
 936 1302 936 1302 867 1302 c 0,31,32
 753 1302 753 1302 680.5 1239 c 128,-1,33
 608 1176 608 1176 576 1035 c 2,34,-1
 520 792 l 1,35,-1
 805 792 l 2,36,37
 849 792 849 792 839 747 c 2,38,-1
 822 673 l 2,39,40
 812 628 812 628 768 628 c 2,41,-1
 482 628 l 1,42,-1
 451 495 l 2,43,44
 420 362 420 362 354.5 278 c 128,-1,45
 289 194 289 194 237 166 c 1,46,-1
 237 162 l 1,47,48
 264 164 264 164 318 164 c 2,49,-1
 889 164 l 2,50,51
 943 164 943 164 933 119 c 2,52,-1
 916 45 l 2,53,54
 906 0 906 0 851 0 c 2,55,-1
 14 0 l 2,0,1
EndSplineSet
EndChar

StartChar: currency
Encoding: 164 164 101
Width: 1110
GlyphClass: 2
Flags: W
LayerCount: 2
Fore
SplineSet
140 289 m 2,0,1
 114 313 114 313 145 346 c 2,2,-1
 276 486 l 1,3,4
 202 592 202 592 202 728 c 256,5,6
 202 864 202 864 276 970 c 1,7,-1
 145 1110 l 2,8,9
 114 1143 114 1143 140 1167 c 2,10,-1
 177 1201 l 2,11,12
 203 1225 203 1225 233 1192 c 2,13,-1
 357 1059 l 1,14,15
 461 1144 461 1144 605 1144 c 256,16,17
 749 1144 749 1144 853 1059 c 1,18,-1
 977 1192 l 2,19,20
 1007 1225 1007 1225 1033 1201 c 2,21,-1
 1070 1167 l 2,22,23
 1096 1143 1096 1143 1065 1110 c 2,24,-1
 934 970 l 1,25,26
 1008 864 1008 864 1008 728 c 256,27,28
 1008 592 1008 592 934 486 c 1,29,-1
 1065 346 l 2,30,31
 1096 313 1096 313 1070 289 c 2,32,-1
 1033 255 l 2,33,34
 1007 231 1007 231 977 264 c 2,35,-1
 853 397 l 1,36,37
 749 312 749 312 605 312 c 256,38,39
 461 312 461 312 357 397 c 1,40,-1
 233 264 l 2,41,42
 203 231 203 231 177 255 c 2,43,-1
 140 289 l 2,0,1
335 728 m 256,44,45
 335 611 335 611 410 526.5 c 128,-1,46
 485 442 485 442 605 442 c 256,47,48
 725 442 725 442 800 526.5 c 128,-1,49
 875 611 875 611 875 728 c 256,50,51
 875 845 875 845 800 929.5 c 128,-1,52
 725 1014 725 1014 605 1014 c 256,53,54
 485 1014 485 1014 410 929.5 c 128,-1,55
 335 845 335 845 335 728 c 256,44,45
EndSplineSet
EndChar

StartChar: yen
Encoding: 165 165 102
Width: 1110
GlyphClass: 2
Flags: W
LayerCount: 2
Fore
SplineSet
211 1368 m 2,0,1
 188 1434 188 1434 253 1434 c 2,2,-1
 333 1434 l 2,3,4
 380 1434 380 1434 394 1385 c 2,5,-1
 519 948 l 2,6,7
 542 868 542 868 556.5 818.5 c 128,-1,8
 571 769 571 769 585 709 c 1,9,-1
 589 709 l 1,10,11
 631 769 631 769 669 820 c 128,-1,12
 707 871 707 871 765 948 c 2,13,-1
 1092 1385 l 2,14,15
 1129 1434 1129 1434 1175 1434 c 2,16,-1
 1279 1434 l 2,17,18
 1345 1434 1345 1434 1291 1368 c 2,19,-1
 781 739 l 1,20,-1
 957 739 l 2,21,22
 1001 739 1001 739 991 694 c 2,23,-1
 978 635 l 2,24,25
 968 590 968 590 922 590 c 2,26,-1
 659 590 l 1,27,-1
 617 409 l 1,28,-1
 880 409 l 2,29,30
 926 409 926 409 915 364 c 2,31,-1
 901 305 l 2,32,33
 890 260 890 260 846 260 c 2,34,-1
 583 260 l 1,35,-1
 533 45 l 2,36,37
 523 0 523 0 478 0 c 2,38,-1
 392 0 l 2,39,40
 347 0 347 0 357 45 c 2,41,-1
 407 260 l 1,42,-1
 134 260 l 2,43,44
 88 260 88 260 99 305 c 2,45,-1
 113 364 l 2,46,47
 124 409 124 409 168 409 c 2,48,-1
 441 409 l 1,49,-1
 483 590 l 1,50,-1
 210 590 l 2,51,52
 166 590 166 590 176 635 c 2,53,-1
 189 694 l 2,54,55
 199 739 199 739 245 739 c 2,56,-1
 431 739 l 1,57,-1
 211 1368 l 2,0,1
EndSplineSet
EndChar

StartChar: brokenbar
Encoding: 166 166 103
Width: 590
GlyphClass: 2
Flags: W
LayerCount: 2
Fore
SplineSet
265 -338 m 2,0,1
 230 -338 230 -338 230 -293 c 2,2,-1
 230 351 l 2,3,4
 230 396 230 396 265 396 c 2,5,-1
 325 396 l 2,6,7
 360 396 360 396 360 351 c 2,8,-1
 360 -293 l 2,9,10
 360 -338 360 -338 325 -338 c 2,11,-1
 265 -338 l 2,0,1
265 660 m 2,12,13
 230 660 230 660 230 705 c 2,14,-1
 230 1349 l 2,15,16
 230 1394 230 1394 265 1394 c 2,17,-1
 325 1394 l 2,18,19
 360 1394 360 1394 360 1349 c 2,20,-1
 360 705 l 2,21,22
 360 660 360 660 325 660 c 2,23,-1
 265 660 l 2,12,13
EndSplineSet
EndChar

StartChar: section
Encoding: 167 167 104
Width: 1160
GlyphClass: 2
Flags: W
LayerCount: 2
Fore
SplineSet
122 565 m 0,0,1
 122 687 122 687 216.5 779 c 128,-1,2
 311 871 311 871 463 980 c 1,3,4
 423 1056 423 1056 423 1130 c 0,5,6
 423 1268 423 1268 535.5 1366 c 128,-1,7
 648 1464 648 1464 787 1464 c 0,8,9
 904 1464 904 1464 959 1432 c 128,-1,10
 1014 1400 1014 1400 1046 1350 c 0,11,12
 1069 1315 1069 1315 1045 1295 c 2,13,-1
 985 1244 l 1,14,15
 968 1228 968 1228 942 1262 c 0,16,17
 914 1299 914 1299 881 1316.5 c 128,-1,18
 848 1334 848 1334 782 1334 c 0,19,20
 699 1334 699 1334 652 1277.5 c 128,-1,21
 605 1221 605 1221 605 1163 c 0,22,23
 605 1023 605 1023 827.5 849 c 128,-1,24
 1050 675 1050 675 1050 525 c 0,25,26
 1050 403 1050 403 955.5 311 c 128,-1,27
 861 219 861 219 709 110 c 1,28,29
 749 34 749 34 749 -40 c 0,30,31
 749 -178 749 -178 636.5 -276 c 128,-1,32
 524 -374 524 -374 385 -374 c 0,33,34
 268 -374 268 -374 213 -342 c 128,-1,35
 158 -310 158 -310 126 -260 c 0,36,37
 103 -225 103 -225 127 -205 c 2,38,-1
 187 -154 l 1,39,40
 204 -138 204 -138 230 -172 c 0,41,42
 258 -209 258 -209 291 -226.5 c 128,-1,43
 324 -244 324 -244 390 -244 c 0,44,45
 473 -244 473 -244 520 -187.5 c 128,-1,46
 567 -131 567 -131 567 -73 c 0,47,48
 567 67 567 67 344.5 241 c 128,-1,49
 122 415 122 415 122 565 c 0,0,1
293 608 m 0,50,51
 293 514 293 514 443 389.5 c 128,-1,52
 593 265 593 265 643 207 c 1,53,-1
 760 296 l 2,54,55
 879 387 879 387 879 482 c 0,56,57
 879 576 879 576 729 700.5 c 128,-1,58
 579 825 579 825 529 883 c 1,59,-1
 412 794 l 2,60,61
 293 703 293 703 293 608 c 0,50,51
EndSplineSet
EndChar

StartChar: dieresis
Encoding: 168 168 105
Width: 614
GlyphClass: 2
Flags: W
LayerCount: 2
Fore
SplineSet
227 1240 m 2,0,1
 182 1240 182 1240 193 1285 c 2,2,-1
 213 1371 l 2,3,4
 223 1416 223 1416 268 1416 c 2,5,-1
 354 1416 l 2,6,7
 399 1416 399 1416 389 1371 c 2,8,-1
 369 1285 l 2,9,10
 358 1240 358 1240 313 1240 c 2,11,-1
 227 1240 l 2,0,1
633 1240 m 2,12,13
 588 1240 588 1240 599 1285 c 2,14,-1
 619 1371 l 2,15,16
 629 1416 629 1416 674 1416 c 2,17,-1
 760 1416 l 2,18,19
 805 1416 805 1416 795 1371 c 2,20,-1
 775 1285 l 2,21,22
 764 1240 764 1240 719 1240 c 2,23,-1
 633 1240 l 2,12,13
EndSplineSet
EndChar

StartChar: copyright
Encoding: 169 169 106
Width: 1654
GlyphClass: 2
Flags: W
LayerCount: 2
Fore
SplineSet
100 717 m 256,0,1
 100 869 100 869 159.5 1007 c 128,-1,2
 219 1145 219 1145 319 1245 c 128,-1,3
 419 1345 419 1345 557 1404.5 c 128,-1,4
 695 1464 695 1464 847 1464 c 256,5,6
 999 1464 999 1464 1137 1404.5 c 128,-1,7
 1275 1345 1275 1345 1375 1245 c 128,-1,8
 1475 1145 1475 1145 1534.5 1007 c 128,-1,9
 1594 869 1594 869 1594 717 c 256,10,11
 1594 565 1594 565 1534.5 427 c 128,-1,12
 1475 289 1475 289 1375 189 c 128,-1,13
 1275 89 1275 89 1137 29.5 c 128,-1,14
 999 -30 999 -30 847 -30 c 256,15,16
 695 -30 695 -30 557 29.5 c 128,-1,17
 419 89 419 89 319 189 c 128,-1,18
 219 289 219 289 159.5 427 c 128,-1,19
 100 565 100 565 100 717 c 256,0,1
200 717 m 256,20,21
 200 585 200 585 251.5 465.5 c 128,-1,22
 303 346 303 346 389.5 259.5 c 128,-1,23
 476 173 476 173 595.5 119.5 c 128,-1,24
 715 66 715 66 847 66 c 256,25,26
 979 66 979 66 1098.5 119.5 c 128,-1,27
 1218 173 1218 173 1304.5 259.5 c 128,-1,28
 1391 346 1391 346 1442.5 465.5 c 128,-1,29
 1494 585 1494 585 1494 717 c 256,30,31
 1494 849 1494 849 1442.5 968.5 c 128,-1,32
 1391 1088 1391 1088 1304.5 1174.5 c 128,-1,33
 1218 1261 1218 1261 1098.5 1314.5 c 128,-1,34
 979 1368 979 1368 847 1368 c 256,35,36
 715 1368 715 1368 595.5 1314.5 c 128,-1,37
 476 1261 476 1261 389.5 1174.5 c 128,-1,38
 303 1088 303 1088 251.5 968.5 c 128,-1,39
 200 849 200 849 200 717 c 256,20,21
450 717 m 256,40,41
 450 920 450 920 553 1035 c 128,-1,42
 656 1150 656 1150 845 1150 c 0,43,44
 955 1150 955 1150 1029.5 1112 c 128,-1,45
 1104 1074 1104 1074 1135 1009 c 0,46,47
 1151 975 1151 975 1130 963 c 2,48,-1
 1072 931 l 2,49,50
 1049 918 1049 918 1031 953 c 0,51,52
 1012 990 1012 990 972 1017.5 c 128,-1,53
 932 1045 932 1045 850 1045 c 0,54,55
 705 1045 705 1045 642.5 962 c 128,-1,56
 580 879 580 879 580 717 c 256,57,58
 580 555 580 555 642.5 472 c 128,-1,59
 705 389 705 389 850 389 c 0,60,61
 934 389 934 389 980.5 423.5 c 128,-1,62
 1027 458 1027 458 1050 500 c 0,63,64
 1068 533 1068 533 1092 520 c 2,65,-1
 1152 487 l 2,66,67
 1173 475 1173 475 1155 440 c 0,68,69
 1121 373 1121 373 1041.5 328.5 c 128,-1,70
 962 284 962 284 845 284 c 0,71,72
 657 284 657 284 553.5 399 c 128,-1,73
 450 514 450 514 450 717 c 256,40,41
EndSplineSet
EndChar

StartChar: ordfeminine
Encoding: 170 170 107
Width: 750
GlyphClass: 2
Flags: W
LayerCount: 2
Fore
SplineSet
188 1019 m 0,0,1
 188 1208 188 1208 309 1350.5 c 128,-1,2
 430 1493 430 1493 584 1493 c 0,3,4
 645 1493 645 1493 678 1468.5 c 128,-1,5
 711 1444 711 1444 730 1411 c 1,6,-1
 731 1411 l 1,7,-1
 746 1452 l 2,8,9
 757 1481 757 1481 779 1481 c 2,10,-1
 846 1481 l 2,11,12
 877 1481 877 1481 870 1452 c 2,13,-1
 723 828 l 2,14,15
 716 799 716 799 686 799 c 2,16,-1
 620 799 l 2,17,18
 591 799 591 799 597 828 c 2,19,20
 597 828 597 828 614 906 c 1,21,-1
 612 906 l 1,22,23
 579 864 579 864 523.5 826 c 128,-1,24
 468 788 468 788 403 788 c 0,25,26
 304 788 304 788 246 844.5 c 128,-1,27
 188 901 188 901 188 1019 c 0,0,1
326 1015 m 0,28,29
 326 972 326 972 350 934 c 128,-1,30
 374 896 374 896 437 896 c 0,31,32
 496 896 496 896 568.5 970 c 128,-1,33
 641 1044 641 1044 660 1121 c 2,34,-1
 700 1285 l 1,35,36
 690 1346 690 1346 657 1365.5 c 128,-1,37
 624 1385 624 1385 587 1385 c 0,38,39
 492 1385 492 1385 409 1276.5 c 128,-1,40
 326 1168 326 1168 326 1015 c 0,28,29
EndSplineSet
EndChar

StartChar: logicalnot
Encoding: 172 172 109
Width: 1110
GlyphClass: 2
Flags: W
LayerCount: 2
Fore
SplineSet
175 808 m 2,0,1
 130 808 130 808 130 843 c 2,2,-1
 130 893 l 2,3,4
 130 928 130 928 175 928 c 2,5,-1
 1035 928 l 2,6,7
 1080 928 1080 928 1080 893 c 2,8,-1
 1080 473 l 2,9,10
 1080 428 1080 428 1045 428 c 2,11,-1
 995 428 l 2,12,13
 960 428 960 428 960 473 c 2,14,-1
 960 808 l 1,15,-1
 175 808 l 2,0,1
EndSplineSet
EndChar

StartChar: registered
Encoding: 174 174 110
Width: 1654
GlyphClass: 2
Flags: W
LayerCount: 2
Fore
SplineSet
100 717 m 256,0,1
 100 869 100 869 159.5 1007 c 128,-1,2
 219 1145 219 1145 319 1245 c 128,-1,3
 419 1345 419 1345 557 1404.5 c 128,-1,4
 695 1464 695 1464 847 1464 c 256,5,6
 999 1464 999 1464 1137 1404.5 c 128,-1,7
 1275 1345 1275 1345 1375 1245 c 128,-1,8
 1475 1145 1475 1145 1534.5 1007 c 128,-1,9
 1594 869 1594 869 1594 717 c 256,10,11
 1594 565 1594 565 1534.5 427 c 128,-1,12
 1475 289 1475 289 1375 189 c 128,-1,13
 1275 89 1275 89 1137 29.5 c 128,-1,14
 999 -30 999 -30 847 -30 c 256,15,16
 695 -30 695 -30 557 29.5 c 128,-1,17
 419 89 419 89 319 189 c 128,-1,18
 219 289 219 289 159.5 427 c 128,-1,19
 100 565 100 565 100 717 c 256,0,1
200 717 m 256,20,21
 200 585 200 585 251.5 465.5 c 128,-1,22
 303 346 303 346 389.5 259.5 c 128,-1,23
 476 173 476 173 595.5 119.5 c 128,-1,24
 715 66 715 66 847 66 c 256,25,26
 979 66 979 66 1098.5 119.5 c 128,-1,27
 1218 173 1218 173 1304.5 259.5 c 128,-1,28
 1391 346 1391 346 1442.5 465.5 c 128,-1,29
 1494 585 1494 585 1494 717 c 256,30,31
 1494 849 1494 849 1442.5 968.5 c 128,-1,32
 1391 1088 1391 1088 1304.5 1174.5 c 128,-1,33
 1218 1261 1218 1261 1098.5 1314.5 c 128,-1,34
 979 1368 979 1368 847 1368 c 256,35,36
 715 1368 715 1368 595.5 1314.5 c 128,-1,37
 476 1261 476 1261 389.5 1174.5 c 128,-1,38
 303 1088 303 1088 251.5 968.5 c 128,-1,39
 200 849 200 849 200 717 c 256,20,21
589 283 m 2,40,41
 560 283 560 283 560 315 c 2,42,-1
 560 1083 l 2,43,44
 560 1115 560 1115 589 1115 c 2,45,-1
 869 1115 l 2,46,47
 1037 1115 1037 1115 1112 1052 c 128,-1,48
 1187 989 1187 989 1187 887 c 0,49,50
 1187 797 1187 797 1128.5 734.5 c 128,-1,51
 1070 672 1070 672 954 658 c 1,52,-1
 954 657 l 1,53,54
 1011 622 1011 622 1031 598 c 128,-1,55
 1051 574 1051 574 1075 534 c 2,56,-1
 1206 322 l 2,57,58
 1230 283 1230 283 1195 283 c 2,59,-1
 1119 283 l 2,60,61
 1093 283 1093 283 1079 306 c 2,62,-1
 963 503 l 2,63,64
 940 542 940 542 887.5 587.5 c 128,-1,65
 835 633 835 633 762 633 c 2,66,-1
 680 633 l 1,67,-1
 680 315 l 2,68,69
 680 283 680 283 651 283 c 2,70,-1
 589 283 l 2,40,41
680 743 m 1,71,-1
 829 743 l 2,72,73
 942 743 942 743 1002 775.5 c 128,-1,74
 1062 808 1062 808 1062 884 c 0,75,76
 1062 954 1062 954 1007 979.5 c 128,-1,77
 952 1005 952 1005 857 1005 c 2,78,-1
 680 1005 l 1,79,-1
 680 743 l 1,71,-1
EndSplineSet
EndChar

StartChar: macron
Encoding: 175 175 111
Width: 614
GlyphClass: 2
Flags: W
LayerCount: 2
Fore
SplineSet
209 1240 m 2,0,1
 164 1240 164 1240 172 1275 c 2,2,-1
 182 1315 l 2,3,4
 190 1350 190 1350 235 1350 c 2,5,-1
 763 1350 l 2,6,7
 808 1350 808 1350 800 1315 c 2,8,-1
 790 1275 l 2,9,10
 782 1240 782 1240 737 1240 c 2,11,-1
 209 1240 l 2,0,1
EndSplineSet
EndChar

StartChar: degree
Encoding: 176 176 112
Width: 560
GlyphClass: 2
Flags: W
LayerCount: 2
Fore
SplineSet
246 1240 m 256,0,1
 246 1323 246 1323 304.5 1381.5 c 128,-1,2
 363 1440 363 1440 446 1440 c 256,3,4
 529 1440 529 1440 587.5 1381.5 c 128,-1,5
 646 1323 646 1323 646 1240 c 256,6,7
 646 1157 646 1157 587.5 1098.5 c 128,-1,8
 529 1040 529 1040 446 1040 c 256,9,10
 363 1040 363 1040 304.5 1098.5 c 128,-1,11
 246 1157 246 1157 246 1240 c 256,0,1
346 1240 m 256,12,13
 346 1198 346 1198 375 1169 c 128,-1,14
 404 1140 404 1140 446 1140 c 256,15,16
 488 1140 488 1140 517 1169 c 128,-1,17
 546 1198 546 1198 546 1240 c 256,18,19
 546 1282 546 1282 517 1311 c 128,-1,20
 488 1340 488 1340 446 1340 c 256,21,22
 404 1340 404 1340 375 1311 c 128,-1,23
 346 1282 346 1282 346 1240 c 256,12,13
EndSplineSet
EndChar

StartChar: uni00B2
Encoding: 178 178 114
Width: 590
GlyphClass: 2
Flags: W
LayerCount: 2
Fore
SplineSet
121 712 m 2,0,1
 94 712 94 712 99 735 c 2,2,-1
 108 776 l 2,3,4
 112 796 112 796 134 814 c 2,5,-1
 421 1049 l 2,6,7
 512 1123 512 1123 544.5 1172 c 128,-1,8
 577 1221 577 1221 577 1278 c 0,9,10
 577 1322 577 1322 548.5 1344 c 128,-1,11
 520 1366 520 1366 473 1366 c 0,12,13
 432 1366 432 1366 392 1339 c 128,-1,14
 352 1312 352 1312 323 1255 c 0,15,16
 308 1225 308 1225 292 1232 c 2,17,-1
 241 1255 l 2,18,19
 219 1265 219 1265 234 1299 c 0,20,21
 266 1369 266 1369 333 1417.5 c 128,-1,22
 400 1466 400 1466 481 1466 c 0,23,24
 594 1466 594 1466 647.5 1418 c 128,-1,25
 701 1370 701 1370 701 1290 c 0,26,27
 701 1226 701 1226 666.5 1160 c 128,-1,28
 632 1094 632 1094 513 999 c 2,29,-1
 290 820 l 1,30,-1
 290 818 l 1,31,32
 311 819 311 819 331 819 c 2,33,-1
 579 819 l 2,34,35
 608 819 608 819 603 796 c 2,36,-1
 589 735 l 2,37,38
 584 712 584 712 554 712 c 2,39,-1
 121 712 l 2,0,1
EndSplineSet
EndChar

StartChar: uni00B3
Encoding: 179 179 115
Width: 594
GlyphClass: 2
Flags: W
LayerCount: 2
Fore
SplineSet
122 788 m 0,0,1
 102 813 102 813 122 827 c 2,2,-1
 168 860 l 2,3,4
 188 874 188 874 208 850 c 0,5,6
 236 816 236 816 265 806 c 128,-1,7
 294 796 294 796 332 796 c 0,8,9
 418 796 418 796 465 840 c 128,-1,10
 512 884 512 884 512 946 c 0,11,12
 512 992 512 992 482 1027.5 c 128,-1,13
 452 1063 452 1063 390 1063 c 2,14,-1
 349 1063 l 2,15,16
 326 1063 326 1063 330 1080 c 2,17,-1
 344 1140 l 2,18,19
 348 1158 348 1158 371 1158 c 2,20,-1
 400 1158 l 2,21,22
 466 1158 466 1158 513.5 1197.5 c 128,-1,23
 561 1237 561 1237 561 1288 c 0,24,25
 561 1328 561 1328 537 1347 c 128,-1,26
 513 1366 513 1366 463 1366 c 0,27,28
 423 1366 423 1366 391.5 1354 c 128,-1,29
 360 1342 360 1342 330 1319 c 0,30,31
 301 1297 301 1297 290 1311 c 2,32,-1
 253 1357 l 2,33,34
 239 1374 239 1374 274 1400 c 0,35,36
 314 1430 314 1430 362 1448 c 128,-1,37
 410 1466 410 1466 473 1466 c 0,38,39
 580 1466 580 1466 630.5 1418.5 c 128,-1,40
 681 1371 681 1371 681 1305 c 0,41,42
 681 1217 681 1217 626.5 1174.5 c 128,-1,43
 572 1132 572 1132 507 1116 c 1,44,-1
 506 1114 l 1,45,46
 565 1097 565 1097 600.5 1052 c 128,-1,47
 636 1007 636 1007 636 937 c 0,48,49
 636 841 636 841 548 768.5 c 128,-1,50
 460 696 460 696 326 696 c 0,51,52
 248 696 248 696 200 723 c 128,-1,53
 152 750 152 750 122 788 c 0,0,1
EndSplineSet
EndChar

StartChar: acute
Encoding: 180 180 116
Width: 614
GlyphClass: 2
Flags: W
LayerCount: 2
Fore
SplineSet
335 1150 m 2,0,1
 285 1150 285 1150 330 1203 c 2,2,-1
 496 1398 l 2,3,4
 528 1435 528 1435 583 1435 c 2,5,-1
 704 1435 l 2,6,7
 763 1435 763 1435 710 1383 c 2,8,-1
 504 1179 l 2,9,10
 474 1150 474 1150 419 1150 c 2,11,-1
 335 1150 l 2,0,1
EndSplineSet
EndChar

StartChar: uni00B5
Encoding: 181 181 117
Width: 1160
GlyphClass: 2
Flags: W
LayerCount: 2
Fore
SplineSet
-23 -417 m 2,0,1
 -68 -417 -68 -417 -58 -372 c 2,2,-1
 260 1004 l 2,3,4
 270 1049 270 1049 315 1049 c 2,5,-1
 401 1049 l 2,6,7
 446 1049 446 1049 436 1004 c 2,8,-1
 309 455 l 2,9,10
 273 301 273 301 312.5 206.5 c 128,-1,11
 352 112 352 112 472 112 c 0,12,13
 568 112 568 112 679 204 c 128,-1,14
 790 296 790 296 827 456 c 2,15,-1
 954 1005 l 2,16,17
 964 1050 964 1050 1009 1050 c 2,18,-1
 1095 1050 l 2,19,20
 1140 1050 1140 1050 1130 1005 c 2,21,-1
 908 45 l 2,22,23
 898 0 898 0 853 0 c 2,24,-1
 769 0 l 2,25,26
 723 0 723 0 734 45 c 2,27,-1
 753 125 l 1,28,-1
 749 125 l 1,29,30
 665 46 665 46 598 14 c 128,-1,31
 531 -18 531 -18 454 -18 c 0,32,33
 393 -18 393 -18 333 14 c 128,-1,34
 273 46 273 46 235 124 c 1,35,-1
 231 124 l 1,36,37
 226 95 226 95 219 64 c 2,38,-1
 118 -372 l 2,39,40
 108 -417 108 -417 63 -417 c 2,41,-1
 -23 -417 l 2,0,1
EndSplineSet
EndChar

StartChar: paragraph
Encoding: 182 182 118
Width: 1022
GlyphClass: 2
Flags: W
LayerCount: 2
Fore
SplineSet
83 1084 m 256,0,1
 83 1226 83 1226 187 1330 c 128,-1,2
 291 1434 291 1434 433 1434 c 2,3,-1
 528 1434 l 2,4,5
 563 1434 563 1434 563 1389 c 2,6,-1
 563 -325 l 2,7,8
 563 -370 563 -370 528 -370 c 2,9,-1
 468 -370 l 2,10,11
 433 -370 433 -370 433 -325 c 2,12,-1
 433 734 l 1,13,14
 291 734 291 734 187 838 c 128,-1,15
 83 942 83 942 83 1084 c 256,0,1
788 -370 m 2,16,17
 753 -370 753 -370 753 -325 c 2,18,-1
 753 1389 l 2,19,20
 753 1434 753 1434 788 1434 c 2,21,-1
 848 1434 l 2,22,23
 883 1434 883 1434 883 1389 c 2,24,-1
 883 -325 l 2,25,26
 883 -370 883 -370 848 -370 c 2,27,-1
 788 -370 l 2,16,17
EndSplineSet
EndChar

StartChar: periodcentered
Encoding: 183 183 119
Width: 600
GlyphClass: 2
Flags: W
LayerCount: 2
Fore
SplineSet
291 619 m 2,0,1
 246 619 246 619 246 664 c 2,2,-1
 246 786 l 2,3,4
 246 831 246 831 291 831 c 2,5,-1
 403 831 l 2,6,7
 448 831 448 831 448 786 c 2,8,-1
 448 664 l 2,9,10
 448 619 448 619 403 619 c 2,11,-1
 291 619 l 2,0,1
EndSplineSet
EndChar

StartChar: cedilla
Encoding: 184 184 120
Width: 614
GlyphClass: 2
Flags: W
LayerCount: 2
Fore
SplineSet
-74 -395 m 0,0,1
 -95 -387 -95 -387 -85 -359 c 2,2,-1
 -72 -321 l 2,3,4
 -61 -289 -61 -289 -32 -304 c 0,5,6
 -8 -316 -8 -316 54 -316 c 0,7,8
 102 -316 102 -316 133 -297 c 128,-1,9
 164 -278 164 -278 164 -245 c 0,10,11
 164 -220 164 -220 139.5 -204.5 c 128,-1,12
 115 -189 115 -189 66 -189 c 2,13,-1
 38 -189 l 2,14,15
 16 -189 16 -189 20 -164 c 0,16,17
 27 -122 27 -122 38 -109 c 2,18,-1
 127 0 l 2,19,20
 145 22 145 22 172 22 c 2,21,-1
 241 22 l 2,22,23
 273 22 273 22 255 0 c 2,24,-1
 177 -96 l 1,25,-1
 176 -99 l 1,26,27
 243 -112 243 -112 266 -142 c 128,-1,28
 289 -172 289 -172 289 -231 c 0,29,30
 289 -313 289 -313 219 -364.5 c 128,-1,31
 149 -416 149 -416 51 -416 c 0,32,33
 -18 -416 -18 -416 -74 -395 c 0,0,1
EndSplineSet
EndChar

StartChar: uni00B9
Encoding: 185 185 121
Width: 480
GlyphClass: 2
Flags: W
LayerCount: 2
Fore
SplineSet
260 1314 m 2,0,1
 255 1328 255 1328 277 1338 c 0,2,3
 303 1350 303 1350 355.5 1379 c 128,-1,4
 408 1408 408 1408 442 1441 c 0,5,6
 461 1460 461 1460 475 1460 c 2,7,-1
 547 1460 l 2,8,9
 571 1460 571 1460 566 1437 c 2,10,-1
 404 735 l 2,11,12
 399 712 399 712 374 712 c 2,13,-1
 302 712 l 2,14,15
 279 712 279 712 284 735 c 2,16,-1
 411 1287 l 2,17,18
 414 1302 414 1302 421 1318 c 1,19,-1
 418 1318 l 1,20,21
 397 1298 397 1298 366.5 1278.5 c 128,-1,22
 336 1259 336 1259 308 1249 c 0,23,24
 286 1241 286 1241 280 1258 c 2,25,-1
 260 1314 l 2,0,1
EndSplineSet
EndChar

StartChar: ordmasculine
Encoding: 186 186 122
Width: 780
GlyphClass: 2
Flags: W
LayerCount: 2
Fore
SplineSet
190 1060 m 0,0,1
 190 1232 190 1232 301.5 1362.5 c 128,-1,2
 413 1493 413 1493 593 1493 c 0,3,4
 758 1493 758 1493 818 1409 c 128,-1,5
 878 1325 878 1325 878 1220 c 0,6,7
 878 1048 878 1048 767 918 c 128,-1,8
 656 788 656 788 476 788 c 0,9,10
 311 788 311 788 250.5 871.5 c 128,-1,11
 190 955 190 955 190 1060 c 0,0,1
328 1051 m 0,12,13
 328 976 328 976 363.5 936 c 128,-1,14
 399 896 399 896 487 896 c 0,15,16
 587 896 587 896 663.5 980.5 c 128,-1,17
 740 1065 740 1065 740 1230 c 0,18,19
 740 1305 740 1305 705 1345 c 128,-1,20
 670 1385 670 1385 582 1385 c 0,21,22
 482 1385 482 1385 405 1300.5 c 128,-1,23
 328 1216 328 1216 328 1051 c 0,12,13
EndSplineSet
EndChar

StartChar: questiondown
Encoding: 191 191 127
Width: 1016
GlyphClass: 2
Flags: W
LayerCount: 2
Fore
SplineSet
-29 -83 m 0,0,1
 -29 76 -29 76 202 282 c 128,-1,2
 433 488 433 488 460 612 c 2,3,-1
 465 635 l 2,4,5
 475 680 475 680 521 680 c 2,6,-1
 607 680 l 2,7,8
 651 680 651 680 641 635 c 2,9,-1
 633 598 l 2,10,11
 595 422 595 422 381 224.5 c 128,-1,12
 167 27 167 27 167 -94 c 0,13,14
 167 -192 167 -192 220.5 -228 c 128,-1,15
 274 -264 274 -264 354 -264 c 0,16,17
 442 -264 442 -264 521.5 -213 c 128,-1,18
 601 -162 601 -162 628 -109 c 0,19,20
 655 -57 655 -57 696 -80 c 2,21,-1
 767 -120 l 2,22,23
 801 -139 801 -139 763 -206 c 0,24,25
 721 -279 721 -279 616 -346.5 c 128,-1,26
 511 -414 511 -414 348 -414 c 0,27,28
 150 -414 150 -414 60.5 -333 c 128,-1,29
 -29 -252 -29 -252 -29 -83 c 0,0,1
545 838 m 2,30,31
 500 838 500 838 510 883 c 2,32,-1
 539 1005 l 2,33,34
 549 1050 549 1050 594 1050 c 2,35,-1
 706 1050 l 2,36,37
 751 1050 751 1050 741 1005 c 2,38,-1
 712 883 l 2,39,40
 702 838 702 838 657 838 c 2,41,-1
 545 838 l 2,30,31
EndSplineSet
EndChar

StartChar: AE
Encoding: 198 198 134
Width: 1957
GlyphClass: 2
Flags: W
AnchorPoint: "Anchor-3" 1165 1464 basechar 0
AnchorPoint: "Anchor-2" 831 0 basechar 0
LayerCount: 2
Fore
SplineSet
-46 0 m 2,0,1
 -105 0 -105 0 -59 66 c 2,2,-1
 865 1382 l 2,3,4
 902 1434 902 1434 944 1434 c 2,5,-1
 1993 1434 l 2,6,7
 2048 1434 2048 1434 2038 1389 c 2,8,-1
 2021 1315 l 2,9,10
 2011 1270 2011 1270 1955 1270 c 2,11,-1
 1262 1270 l 1,12,-1
 1160 826 l 1,13,-1
 1793 826 l 2,14,15
 1847 826 1847 826 1837 781 c 2,16,-1
 1820 707 l 2,17,18
 1810 662 1810 662 1755 662 c 2,19,-1
 1122 662 l 1,20,-1
 1007 164 l 1,21,-1
 1730 164 l 2,22,23
 1784 164 1784 164 1774 119 c 2,24,-1
 1757 45 l 2,25,26
 1747 0 1747 0 1692 0 c 2,27,-1
 827 0 l 2,28,29
 777 0 777 0 790 55 c 2,30,-1
 865 380 l 1,31,-1
 391 380 l 1,32,-1
 159 49 l 2,33,34
 125 0 125 0 81 0 c 2,35,-1
 -46 0 l 2,0,1
506 544 m 1,36,-1
 903 544 l 1,37,-1
 1070 1270 l 1,38,-1
 998 1270 l 1,39,40
 968 1211 968 1211 931.5 1155 c 128,-1,41
 895 1099 895 1099 863 1053 c 2,42,-1
 506 544 l 1,36,-1
EndSplineSet
EndChar

StartChar: Eth
Encoding: 208 208 144
Width: 1446
GlyphClass: 2
Flags: W
LayerCount: 2
Fore
SplineSet
126 654 m 2,0,1
 71 654 71 654 81 699 c 2,2,-1
 98 773 l 2,3,4
 108 818 108 818 164 818 c 2,5,-1
 279 818 l 1,6,-1
 408 1379 l 2,7,8
 421 1434 421 1434 471 1434 c 2,9,-1
 790 1434 l 2,10,11
 1148 1434 1148 1434 1286 1259 c 128,-1,12
 1424 1084 1424 1084 1424 848 c 0,13,14
 1424 508 1424 508 1214 254 c 128,-1,15
 1004 0 1004 0 559 0 c 2,16,-1
 140 0 l 2,17,18
 90 0 90 0 103 55 c 2,19,-1
 241 654 l 1,20,-1
 126 654 l 2,0,1
320 164 m 1,21,-1
 588 164 l 2,22,23
 920 164 920 164 1069.5 376 c 128,-1,24
 1219 588 1219 588 1219 860 c 0,25,26
 1219 1032 1219 1032 1137.5 1152 c 128,-1,27
 1056 1272 1056 1272 744 1272 c 2,28,-1
 576 1272 l 1,29,-1
 471 818 l 1,30,-1
 792 818 l 2,31,32
 847 818 847 818 836 773 c 2,33,-1
 819 699 l 2,34,35
 809 654 809 654 754 654 c 2,36,-1
 433 654 l 1,37,-1
 320 164 l 1,21,-1
EndSplineSet
EndChar

StartChar: multiply
Encoding: 215 215 151
Width: 1280
GlyphClass: 2
Flags: W
LayerCount: 2
Fore
SplineSet
272 347 m 2,0,1
 247 372 247 372 280 404 c 2,2,-1
 601 725 l 1,3,-1
 280 1046 l 2,4,5
 248 1078 248 1078 272 1102 c 2,6,-1
 308 1138 l 2,7,8
 333 1163 333 1163 364 1131 c 2,9,-1
 685 810 l 1,10,-1
 1008 1132 l 2,11,12
 1040 1164 1040 1164 1064 1139 c 1,13,-1
 1100 1104 l 2,14,15
 1125 1079 1125 1079 1093 1047 c 2,16,-1
 771 725 l 1,17,-1
 1093 402 l 2,18,19
 1125 370 1125 370 1100 346 c 2,20,-1
 1064 310 l 2,21,22
 1039 285 1039 285 1008 317 c 2,23,-1
 685 640 l 1,24,-1
 364 319 l 2,25,26
 332 287 332 287 308 312 c 1,27,-1
 272 347 l 2,0,1
EndSplineSet
EndChar

StartChar: germandbls
Encoding: 223 223 157
Width: 1216
GlyphClass: 2
Flags: W
LayerCount: 2
Fore
SplineSet
-25 -400 m 2,0,1
 -70 -400 -70 -400 -60 -355 c 2,2,-1
 285 1139 l 2,3,4
 332 1341 332 1341 467.5 1417 c 128,-1,5
 603 1493 603 1493 789 1493 c 0,6,7
 972 1493 972 1493 1057 1409.5 c 128,-1,8
 1142 1326 1142 1326 1142 1203 c 0,9,10
 1142 1066 1142 1066 1054 974 c 128,-1,11
 966 882 966 882 794 787 c 1,12,-1
 793 784 l 1,13,14
 956 758 956 758 1021 652 c 128,-1,15
 1086 546 1086 546 1086 422 c 0,16,17
 1086 245 1086 245 951 114 c 128,-1,18
 816 -17 816 -17 625 -17 c 0,19,20
 529 -17 529 -17 473 -3.5 c 128,-1,21
 417 10 417 10 374 48 c 0,22,23
 352 67 352 67 375 102 c 2,24,-1
 413 160 l 2,25,26
 435 193 435 193 477 158 c 0,27,28
 494 144 494 144 536 128.5 c 128,-1,29
 578 113 578 113 631 113 c 0,30,31
 732 113 732 113 816 199 c 128,-1,32
 900 285 900 285 900 412 c 0,33,34
 900 573 900 573 825 623 c 128,-1,35
 750 673 750 673 622 673 c 0,36,37
 610 673 610 673 608 698 c 2,38,-1
 598 812 l 2,39,40
 596 832 596 832 620 845 c 2,41,-1
 712 894 l 2,42,43
 806 944 806 944 886 1016.5 c 128,-1,44
 966 1089 966 1089 966 1188 c 0,45,46
 966 1275 966 1275 926 1319 c 128,-1,47
 886 1363 886 1363 774 1363 c 0,48,49
 672 1363 672 1363 579.5 1308 c 128,-1,50
 487 1253 487 1253 454 1110 c 2,51,-1
 116 -355 l 2,52,53
 106 -400 106 -400 61 -400 c 2,54,-1
 -25 -400 l 2,0,1
EndSplineSet
EndChar

StartChar: ae
Encoding: 230 230 164
Width: 1698
GlyphClass: 2
Flags: W
AnchorPoint: "Anchor-3" 955 1067 basechar 0
AnchorPoint: "Anchor-2" 730 0 basechar 0
LayerCount: 2
Fore
SplineSet
35 220 m 0,0,1
 35 402 35 402 200.5 510 c 128,-1,2
 366 618 366 618 765 638 c 1,3,-1
 781 706 l 2,4,5
 806 812 806 812 770.5 874.5 c 128,-1,6
 735 937 735 937 614 937 c 0,7,8
 522 937 522 937 459 912.5 c 128,-1,9
 396 888 396 888 325 820 c 0,10,11
 296 792 296 792 274 817 c 2,12,-1
 227 872 l 2,13,14
 203 900 203 900 242 932 c 0,15,16
 330 1004 330 1004 438 1035.5 c 128,-1,17
 546 1067 546 1067 630 1067 c 0,18,19
 736 1067 736 1067 810 1035.5 c 128,-1,20
 884 1004 884 1004 921 923 c 1,21,-1
 923 923 l 1,22,23
 962 963 962 963 1056 1015 c 128,-1,24
 1150 1067 1150 1067 1292 1067 c 0,25,26
 1446 1067 1446 1067 1532 974.5 c 128,-1,27
 1618 882 1618 882 1618 778 c 0,28,29
 1618 636 1618 636 1500.5 565.5 c 128,-1,30
 1383 495 1383 495 1139 445 c 2,31,-1
 915 399 l 1,32,33
 909 361 909 361 909 359 c 0,34,35
 909 256 909 256 964 185 c 128,-1,36
 1019 114 1019 114 1137 114 c 0,37,38
 1235 114 1235 114 1304.5 159 c 128,-1,39
 1374 204 1374 204 1397 232 c 0,40,41
 1434 277 1434 277 1460 253 c 2,42,-1
 1516 202 l 2,43,44
 1539 181 1539 181 1510 146 c 0,45,46
 1479 108 1479 108 1389 45.5 c 128,-1,47
 1299 -17 1299 -17 1113 -17 c 0,48,49
 996 -17 996 -17 907.5 31 c 128,-1,50
 819 79 819 79 775 182 c 1,51,-1
 773 182 l 1,52,53
 679 90 679 90 569 36.5 c 128,-1,54
 459 -17 459 -17 363 -17 c 0,55,56
 176 -17 176 -17 105.5 46.5 c 128,-1,57
 35 110 35 110 35 220 c 0,0,1
217 242 m 0,58,59
 217 180 217 180 253.5 149 c 128,-1,60
 290 118 290 118 378 118 c 0,61,62
 478 118 478 118 569.5 159.5 c 128,-1,63
 661 201 661 201 734 278 c 1,64,65
 709 378 709 378 739 507 c 1,66,67
 414 486 414 486 315.5 412 c 128,-1,68
 217 338 217 338 217 242 c 0,58,59
920 538 m 1,69,-1
 1103 575 l 2,70,71
 1303 615 1303 615 1372.5 657.5 c 128,-1,72
 1442 700 1442 700 1442 786 c 0,73,74
 1442 854 1442 854 1397.5 895.5 c 128,-1,75
 1353 937 1353 937 1259 937 c 0,76,77
 1152 937 1152 937 1058 845 c 128,-1,78
 964 753 964 753 920 538 c 1,69,-1
EndSplineSet
EndChar

StartChar: divide
Encoding: 247 247 180
Width: 1280
GlyphClass: 2
Flags: W
LayerCount: 2
Fore
SplineSet
172 665 m 2,0,1
 127 665 127 665 127 700 c 2,2,-1
 127 750 l 2,3,4
 127 785 127 785 172 785 c 2,5,-1
 1202 785 l 2,6,7
 1247 785 1247 785 1247 750 c 2,8,-1
 1247 700 l 2,9,10
 1247 665 1247 665 1202 665 c 2,11,-1
 172 665 l 2,0,1
631 1003 m 2,12,13
 586 1003 586 1003 586 1048 c 2,14,-1
 586 1170 l 2,15,16
 586 1215 586 1215 631 1215 c 2,17,-1
 743 1215 l 2,18,19
 788 1215 788 1215 788 1170 c 2,20,-1
 788 1048 l 2,21,22
 788 1003 788 1003 743 1003 c 2,23,-1
 631 1003 l 2,12,13
631 235 m 2,24,25
 586 235 586 235 586 280 c 2,26,-1
 586 402 l 2,27,28
 586 447 586 447 631 447 c 2,29,-1
 743 447 l 2,30,31
 788 447 788 447 788 402 c 2,32,-1
 788 280 l 2,33,34
 788 235 788 235 743 235 c 2,35,-1
 631 235 l 2,24,25
EndSplineSet
EndChar

StartChar: thorn
Encoding: 254 254 186
Width: 1119
GlyphClass: 2
Flags: W
LayerCount: 2
Fore
SplineSet
-25 -400 m 2,0,1
 -70 -400 -70 -400 -60 -355 c 2,2,-1
 352 1431 l 2,3,4
 362 1476 362 1476 407 1476 c 2,5,-1
 493 1476 l 2,6,7
 538 1476 538 1476 528 1431 c 2,8,-1
 416 946 l 2,9,10
 409 917 409 917 400 885 c 1,11,-1
 402 885 l 1,12,13
 446 964 446 964 539 1015.5 c 128,-1,14
 632 1067 632 1067 712 1067 c 0,15,16
 902 1067 902 1067 976.5 950.5 c 128,-1,17
 1051 834 1051 834 1051 671 c 0,18,19
 1051 416 1051 416 890 199.5 c 128,-1,20
 729 -17 729 -17 511 -17 c 0,21,22
 400 -17 400 -17 338 16.5 c 128,-1,23
 276 50 276 50 225 118 c 1,24,-1
 223 118 l 1,25,26
 219 90 219 90 211 57 c 2,27,-1
 116 -355 l 2,28,29
 106 -400 106 -400 61 -400 c 2,30,-1
 -25 -400 l 2,0,1
265 290 m 1,31,32
 275 190 275 190 330 151.5 c 128,-1,33
 385 113 385 113 497 113 c 0,34,35
 649 113 649 113 757 282.5 c 128,-1,36
 865 452 865 452 865 678 c 0,37,38
 865 782 865 782 820 859.5 c 128,-1,39
 775 937 775 937 662 937 c 0,40,41
 564 937 564 937 462.5 819.5 c 128,-1,42
 361 702 361 702 330 570 c 2,43,-1
 265 290 l 1,31,32
EndSplineSet
EndChar

StartChar: Aogonek
Encoding: 260 260 192
Width: 1360
GlyphClass: 3
Flags: W
AnchorPoint: "Anchor-3" 868 1464 basechar 0
LayerCount: 2
Fore
SplineSet
-47 0 m 2,0,1
 -98 0 -98 0 -59 66 c 2,2,-1
 711 1373 l 2,3,4
 747 1434 747 1434 791 1434 c 2,5,-1
 931 1434 l 2,6,7
 972 1434 972 1434 983 1373 c 2,8,-1
 1209 66 l 1,9,10
 1216 19 1216 19 1186 0 c 0,11,12
 1156 -18 1156 -18 1046 -98.5 c 128,-1,13
 936 -179 936 -179 936 -233 c 0,14,15
 936 -260 936 -260 951 -273.5 c 128,-1,16
 966 -287 966 -287 1002 -287 c 0,17,18
 1045 -287 1045 -287 1075 -281 c 0,19,20
 1100 -276 1100 -276 1102 -303 c 2,21,-1
 1108 -380 l 2,22,23
 1110 -404 1110 -404 1090 -408 c 0,24,25
 1045 -417 1045 -417 972 -417 c 0,26,27
 872 -417 872 -417 824 -379.5 c 128,-1,28
 776 -342 776 -342 776 -284 c 0,29,30
 776 -232 776 -232 795 -187 c 128,-1,31
 814 -142 814 -142 884.5 -90 c 128,-1,32
 955 -38 955 -38 980 -20 c 0,33,34
 1022 9 1022 9 1015 49 c 2,35,-1
 958 380 l 1,36,-1
 343 380 l 1,37,-1
 148 49 l 2,38,39
 119 0 119 0 65 0 c 2,40,-1
 -47 0 l 2,0,1
441 544 m 1,41,-1
 929 544 l 1,42,-1
 859 944 l 2,43,44
 846 1016 846 1016 838 1101.5 c 128,-1,45
 830 1187 830 1187 830 1261 c 1,46,-1
 826 1261 l 1,47,48
 808 1190 808 1190 770 1116 c 128,-1,49
 732 1042 732 1042 675 944 c 2,50,-1
 441 544 l 1,41,-1
EndSplineSet
Ligature2: "'liga' Standard Ligatures in Latin lookup 2 subtable" A uni0328
EndChar

StartChar: aogonek
Encoding: 261 261 193
Width: 1067
GlyphClass: 2
Flags: W
AnchorPoint: "Anchor-3" 644 1067 basechar 0
LayerCount: 2
Fore
SplineSet
66 339 m 0,0,1
 66 614 66 614 252.5 840.5 c 128,-1,2
 439 1067 439 1067 644 1067 c 0,3,4
 734 1067 734 1067 792 1029.5 c 128,-1,5
 850 992 850 992 878 942 c 1,6,-1
 880 942 l 1,7,-1
 901 1005 l 2,8,9
 916 1050 916 1050 950 1050 c 2,10,-1
 1034 1050 l 2,11,12
 1079 1050 1079 1050 1069 1005 c 2,13,-1
 847 45 l 2,14,15
 840 15 840 15 820 0 c 0,16,17
 726 -70 726 -70 653.5 -128 c 128,-1,18
 581 -186 581 -186 581 -233 c 0,19,20
 581 -260 581 -260 596 -273.5 c 128,-1,21
 611 -287 611 -287 647 -287 c 0,22,23
 690 -287 690 -287 720 -281 c 0,24,25
 745 -276 745 -276 747 -303 c 2,26,-1
 753 -380 l 2,27,28
 755 -404 755 -404 735 -408 c 0,29,30
 677 -417 677 -417 617 -417 c 0,31,32
 517 -417 517 -417 469 -379.5 c 128,-1,33
 421 -342 421 -342 421 -284 c 0,34,35
 421 -232 421 -232 438.5 -190.5 c 128,-1,36
 456 -149 456 -149 502 -110.5 c 128,-1,37
 548 -72 548 -72 649 -6 c 0,38,39
 668 7 668 7 676 45 c 2,40,-1
 701 165 l 1,41,-1
 699 165 l 1,42,43
 650 100 650 100 568.5 41.5 c 128,-1,44
 487 -17 487 -17 387 -17 c 0,45,46
 242 -17 242 -17 154 70.5 c 128,-1,47
 66 158 66 158 66 339 c 0,0,1
252 332 m 0,48,49
 252 266 252 266 287.5 189.5 c 128,-1,50
 323 113 323 113 433 113 c 0,51,52
 523 113 523 113 632 232 c 128,-1,53
 741 351 741 351 771 480 c 2,54,-1
 838 770 l 1,55,56
 838 860 838 860 780.5 898.5 c 128,-1,57
 723 937 723 937 638 937 c 0,58,59
 498 937 498 937 375 757.5 c 128,-1,60
 252 578 252 578 252 332 c 0,48,49
EndSplineSet
EndChar

StartChar: dcroat
Encoding: 273 273 205
Width: 1156
GlyphClass: 2
Flags: W
LayerCount: 2
Fore
SplineSet
70 379 m 0,0,1
 70 634 70 634 231 850.5 c 128,-1,2
 392 1067 392 1067 610 1067 c 0,3,4
 721 1067 721 1067 783 1033.5 c 128,-1,5
 845 1000 845 1000 896 932 c 1,6,-1
 898 932 l 1,7,8
 901 956 901 956 910 993 c 2,9,-1
 960 1208 l 1,10,-1
 652 1208 l 2,11,12
 607 1208 607 1208 615 1243 c 2,13,-1
 629 1305 l 2,14,15
 637 1340 637 1340 682 1340 c 2,16,-1
 990 1340 l 1,17,-1
 1011 1431 l 2,18,19
 1021 1476 1021 1476 1066 1476 c 2,20,-1
 1152 1476 l 2,21,22
 1197 1476 1197 1476 1187 1431 c 2,23,-1
 1166 1340 l 1,24,-1
 1280 1340 l 2,25,26
 1325 1340 1325 1340 1317 1305 c 2,27,-1
 1303 1243 l 2,28,29
 1295 1208 1295 1208 1250 1208 c 2,30,-1
 1136 1208 l 1,31,-1
 867 45 l 2,32,33
 857 0 857 0 812 0 c 2,34,-1
 728 0 l 2,35,36
 691 0 691 0 699 45 c 2,37,-1
 721 165 l 1,38,-1
 719 165 l 1,39,40
 675 86 675 86 582 34.5 c 128,-1,41
 489 -17 489 -17 409 -17 c 0,42,43
 219 -17 219 -17 144.5 99.5 c 128,-1,44
 70 216 70 216 70 379 c 0,0,1
256 372 m 0,45,46
 256 268 256 268 301 190.5 c 128,-1,47
 346 113 346 113 459 113 c 0,48,49
 557 113 557 113 658.5 230.5 c 128,-1,50
 760 348 760 348 791 480 c 2,51,-1
 856 760 l 1,52,53
 846 860 846 860 791 898.5 c 128,-1,54
 736 937 736 937 624 937 c 0,55,56
 472 937 472 937 364 767.5 c 128,-1,57
 256 598 256 598 256 372 c 0,45,46
EndSplineSet
EndChar

StartChar: Eogonek
Encoding: 280 280 212
Width: 1270
GlyphClass: 2
Flags: W
AnchorPoint: "Anchor-3" 877 1464 basechar 0
LayerCount: 2
Fore
SplineSet
100 0 m 2,0,1
 50 0 50 0 63 55 c 2,2,-1
 368 1379 l 2,3,4
 381 1434 381 1434 431 1434 c 2,5,-1
 1306 1434 l 2,6,7
 1361 1434 1361 1434 1351 1389 c 2,8,-1
 1334 1315 l 2,9,10
 1324 1270 1324 1270 1268 1270 c 2,11,-1
 535 1270 l 1,12,-1
 433 826 l 1,13,-1
 1106 826 l 2,14,15
 1160 826 1160 826 1150 781 c 2,16,-1
 1133 707 l 2,17,18
 1123 662 1123 662 1068 662 c 2,19,-1
 395 662 l 1,20,-1
 280 164 l 1,21,-1
 1043 164 l 2,22,23
 1097 164 1097 164 1087 119 c 2,24,-1
 1070 45 l 2,25,26
 1060 0 1060 0 1005 0 c 2,27,-1
 998 0 l 1,28,29
 894 -70 894 -70 823 -128 c 128,-1,30
 752 -186 752 -186 752 -233 c 0,31,32
 752 -260 752 -260 767 -273.5 c 128,-1,33
 782 -287 782 -287 818 -287 c 0,34,35
 861 -287 861 -287 891 -281 c 0,36,37
 916 -276 916 -276 918 -303 c 2,38,-1
 924 -380 l 2,39,40
 926 -404 926 -404 906 -408 c 0,41,42
 848 -417 848 -417 788 -417 c 0,43,44
 688 -417 688 -417 640 -379.5 c 128,-1,45
 592 -342 592 -342 592 -284 c 0,46,47
 592 -232 592 -232 609.5 -190.5 c 128,-1,48
 627 -149 627 -149 672 -108.5 c 128,-1,49
 717 -68 717 -68 818 -2 c 1,50,-1
 818 2 l 1,51,52
 778 0 778 0 738 0 c 2,53,-1
 100 0 l 2,0,1
EndSplineSet
EndChar

StartChar: eogonek
Encoding: 281 281 213
Width: 1078
GlyphClass: 2
Flags: W
AnchorPoint: "Anchor-3" 652 1067 basechar 0
LayerCount: 2
Fore
SplineSet
68 396 m 0,0,1
 68 696 68 696 224.5 881.5 c 128,-1,2
 381 1067 381 1067 652 1067 c 0,3,4
 807 1067 807 1067 902.5 978.5 c 128,-1,5
 998 890 998 890 998 778 c 0,6,7
 998 630 998 630 856 559.5 c 128,-1,8
 714 489 714 489 506 448 c 2,9,-1
 260 399 l 1,10,11
 254 361 254 361 254 359 c 0,12,13
 254 260 254 260 308 187 c 128,-1,14
 362 114 362 114 497 114 c 0,15,16
 612 114 612 114 682 156 c 128,-1,17
 752 198 752 198 777 232 c 0,18,19
 812 279 812 279 840 253 c 1,20,-1
 899 202 l 2,21,22
 919 185 919 185 893 146 c 0,23,24
 873 116 873 116 810 73.5 c 128,-1,25
 747 31 747 31 701 -3 c 0,26,27
 689 -12 689 -12 575.5 -96 c 128,-1,28
 462 -180 462 -180 462 -233 c 0,29,30
 462 -260 462 -260 477 -273.5 c 128,-1,31
 492 -287 492 -287 528 -287 c 0,32,33
 571 -287 571 -287 601 -281 c 0,34,35
 626 -276 626 -276 628 -303 c 2,36,-1
 634 -380 l 2,37,38
 636 -404 636 -404 616 -408 c 0,39,40
 558 -417 558 -417 498 -417 c 0,41,42
 398 -417 398 -417 350 -379.5 c 128,-1,43
 302 -342 302 -342 302 -284 c 0,44,45
 302 -232 302 -232 319.5 -190.5 c 128,-1,46
 337 -149 337 -149 378.5 -113.5 c 128,-1,47
 420 -78 420 -78 517 -19 c 1,48,-1
 517 -14 l 1,49,50
 491 -17 491 -17 473 -17 c 0,51,52
 260 -17 260 -17 164 106.5 c 128,-1,53
 68 230 68 230 68 396 c 0,0,1
265 538 m 1,54,-1
 470 578 l 2,55,56
 610 605 610 605 716 652.5 c 128,-1,57
 822 700 822 700 822 786 c 0,58,59
 822 854 822 854 760.5 895.5 c 128,-1,60
 699 937 699 937 619 937 c 0,61,62
 498 937 498 937 403.5 845 c 128,-1,63
 309 753 309 753 265 538 c 1,54,-1
EndSplineSet
EndChar

StartChar: hbar
Encoding: 295 295 224
Width: 1198
GlyphClass: 2
Flags: W
LayerCount: 2
Fore
SplineSet
234 1208 m 2,0,1
 189 1208 189 1208 197 1243 c 2,2,-1
 211 1305 l 2,3,4
 219 1340 219 1340 264 1340 c 2,5,-1
 401 1340 l 1,6,-1
 422 1431 l 2,7,8
 432 1476 432 1476 478 1476 c 2,9,-1
 564 1476 l 2,10,11
 609 1476 609 1476 598 1431 c 2,12,-1
 577 1340 l 1,13,-1
 940 1340 l 2,14,15
 985 1340 985 1340 977 1305 c 2,16,-1
 963 1243 l 2,17,18
 955 1208 955 1208 910 1208 c 2,19,-1
 547 1208 l 1,20,-1
 486 945 l 2,21,22
 480 917 480 917 471 885 c 1,23,-1
 475 885 l 1,24,25
 534 958 534 958 628.5 1012.5 c 128,-1,26
 723 1067 723 1067 843 1067 c 0,27,28
 1013 1067 1013 1067 1075 964.5 c 128,-1,29
 1137 862 1137 862 1096 684 c 2,30,-1
 948 45 l 2,31,32
 938 0 938 0 893 0 c 2,33,-1
 807 0 l 2,34,35
 762 0 762 0 772 45 c 2,36,-1
 909 636 l 2,37,38
 954 832 954 832 906 884.5 c 128,-1,39
 858 937 858 937 748 937 c 0,40,41
 628 937 628 937 529.5 820.5 c 128,-1,42
 431 704 431 704 396 554 c 2,43,-1
 278 45 l 2,44,45
 268 0 268 0 223 0 c 2,46,-1
 137 0 l 2,47,48
 92 0 92 0 102 45 c 2,49,-1
 371 1208 l 1,50,-1
 234 1208 l 2,0,1
EndSplineSet
EndChar

StartChar: dotlessi
Encoding: 305 305 232
Width: 460
GlyphClass: 2
Flags: W
AnchorPoint: "Anchor-3" 356 1067 basechar 0
AnchorPoint: "Anchor-2" 110 0 basechar 0
LayerCount: 2
Fore
SplineSet
67 0 m 2,0,1
 22 0 22 0 32 45 c 2,2,-1
 254 1005 l 2,3,4
 264 1050 264 1050 309 1050 c 2,5,-1
 395 1050 l 2,6,7
 440 1050 440 1050 430 1005 c 2,8,-1
 208 45 l 2,9,10
 198 0 198 0 153 0 c 2,11,-1
 67 0 l 2,0,1
EndSplineSet
EndChar

StartChar: Lslash
Encoding: 321 321 239
Width: 1241
GlyphClass: 2
Flags: W
LayerCount: 2
Fore
SplineSet
97 444 m 2,0,1
 34 407 34 407 46 459 c 2,2,-1
 74 581 l 2,3,4
 83 620 83 620 124 644 c 2,5,-1
 332 765 l 1,6,-1
 473 1379 l 2,7,8
 486 1434 486 1434 536 1434 c 2,9,-1
 628 1434 l 2,10,11
 678 1434 678 1434 665 1379 c 2,12,-1
 573 977 l 2,13,14
 563 935 563 935 552 897 c 1,15,-1
 556 897 l 1,16,-1
 866 1078 l 2,17,18
 929 1115 929 1115 917 1063 c 2,19,-1
 889 941 l 2,20,21
 880 901 880 901 840 878 c 2,22,-1
 505 683 l 1,23,-1
 385 164 l 1,24,-1
 1048 164 l 2,25,26
 1102 164 1102 164 1092 119 c 2,27,-1
 1075 45 l 2,28,29
 1065 0 1065 0 1010 0 c 2,30,-1
 205 0 l 2,31,32
 155 0 155 0 168 55 c 2,33,-1
 264 471 l 2,34,35
 274 516 274 516 284 551 c 1,36,-1
 280 551 l 1,37,-1
 97 444 l 2,0,1
EndSplineSet
EndChar

StartChar: lslash
Encoding: 322 322 240
Width: 660
GlyphClass: 2
Flags: W
AnchorPoint: "Anchor-3" 449 1476 basechar 0
LayerCount: 2
Fore
SplineSet
83 510 m 2,0,1
 29 476 29 476 40 521 c 2,2,-1
 65 627 l 2,3,4
 74 664 74 664 112 688 c 2,5,-1
 309 811 l 1,6,-1
 421 1293 l 2,7,8
 426 1314 426 1314 439 1331 c 2,9,-1
 539 1458 l 2,10,11
 567 1493 567 1493 578 1493 c 2,12,-1
 613 1493 l 1,13,14
 643 1491 643 1491 635 1458 c 2,15,-1
 530 1006 l 2,16,17
 523 976 523 976 514 946 c 1,18,-1
 516 946 l 1,19,-1
 700 1061 l 2,20,21
 752 1094 752 1094 742 1049 c 2,22,-1
 718 943 l 2,23,24
 710 907 710 907 671 883 c 2,25,-1
 473 760 l 1,26,-1
 308 45 l 2,27,28
 298 0 298 0 253 0 c 2,29,-1
 167 0 l 2,30,31
 122 0 122 0 132 45 c 2,32,-1
 252 565 l 2,33,34
 259 594 259 594 268 625 c 1,35,-1
 266 625 l 1,36,-1
 83 510 l 2,0,1
EndSplineSet
EndChar

StartChar: eng
Encoding: 331 331 245
Width: 1128
GlyphClass: 2
Flags: W
AnchorPoint: "Anchor-3" 691 1067 basechar 0
AnchorPoint: "Anchor-2" 352 -400 basechar 0
LayerCount: 2
Fore
SplineSet
67 0 m 2,0,1
 22 0 22 0 32 45 c 2,2,-1
 254 1005 l 2,3,4
 264 1050 264 1050 309 1050 c 2,5,-1
 393 1050 l 2,6,7
 438 1050 438 1050 428 1005 c 2,8,-1
 401 885 l 1,9,-1
 405 885 l 1,10,11
 464 958 464 958 558.5 1012.5 c 128,-1,12
 653 1067 653 1067 773 1067 c 0,13,14
 943 1067 943 1067 1005 964.5 c 128,-1,15
 1067 862 1067 862 1026 684 c 2,16,-1
 846 -93 l 2,17,18
 801 -287 801 -287 710 -352 c 128,-1,19
 619 -417 619 -417 510 -417 c 0,20,21
 411 -417 411 -417 373 -397 c 0,22,23
 356 -388 356 -388 363 -365 c 2,24,-1
 388 -284 l 2,25,26
 396 -258 396 -258 417 -269 c 0,27,28
 452 -287 452 -287 508 -287 c 0,29,30
 567 -287 567 -287 609 -230 c 128,-1,31
 651 -173 651 -173 692 6 c 2,32,-1
 839 636 l 2,33,34
 884 832 884 832 836 884.5 c 128,-1,35
 788 937 788 937 678 937 c 0,36,37
 558 937 558 937 459.5 820.5 c 128,-1,38
 361 704 361 704 326 554 c 2,39,-1
 208 45 l 2,40,41
 198 0 198 0 153 0 c 2,42,-1
 67 0 l 2,0,1
EndSplineSet
EndChar

StartChar: longs
Encoding: 383 383 285
Width: 580
GlyphClass: 2
Flags: W
AnchorPoint: "Anchor-3" 615 1476 basechar 0
AnchorPoint: "Anchor-2" 63 -400 basechar 0
LayerCount: 2
Fore
SplineSet
-25 -400 m 2,0,1
 -70 -400 -70 -400 -60 -355 c 2,2,-1
 299 1199 l 2,3,4
 338 1366 338 1366 443 1429.5 c 128,-1,5
 548 1493 548 1493 653 1493 c 0,6,7
 720 1493 720 1493 758 1486 c 128,-1,8
 796 1479 796 1479 849 1455 c 0,9,10
 869 1446 869 1446 855 1423 c 2,11,-1
 805 1344 l 2,12,13
 792 1324 792 1324 768 1336 c 0,14,15
 749 1346 749 1346 721.5 1354.5 c 128,-1,16
 694 1363 694 1363 659 1363 c 0,17,18
 580 1363 580 1363 536 1318.5 c 128,-1,19
 492 1274 492 1274 468 1170 c 2,20,-1
 116 -355 l 2,21,22
 106 -400 106 -400 61 -400 c 2,23,-1
 -25 -400 l 2,0,1
EndSplineSet
EndChar

StartChar: uni0186
Encoding: 390 390 286
Width: 1392
GlyphClass: 2
Flags: W
AnchorPoint: "Anchor-3" 774 1464 basechar 0
LayerCount: 2
Fore
SplineSet
117 204 m 0,0,1
 94 257 94 257 140 284 c 2,2,-1
 218 330 l 2,3,4
 245 346 245 346 270 302 c 0,5,6
 300 248 300 248 379 187 c 128,-1,7
 458 126 458 126 593 126 c 0,8,9
 843 126 843 126 1006 309 c 128,-1,10
 1169 492 1169 492 1169 877 c 0,11,12
 1169 1059 1169 1059 1073 1183.5 c 128,-1,13
 977 1308 977 1308 747 1308 c 0,14,15
 611 1308 611 1308 516.5 1236.5 c 128,-1,16
 422 1165 422 1165 370 1093 c 0,17,18
 328 1035 328 1035 292 1058 c 2,19,-1
 202 1116 l 2,20,21
 169 1137 169 1137 210 1196 c 0,22,23
 289 1311 289 1311 423 1387.5 c 128,-1,24
 557 1464 557 1464 774 1464 c 0,25,26
 1076 1464 1076 1464 1225 1291.5 c 128,-1,27
 1374 1119 1374 1119 1374 854 c 0,28,29
 1374 459 1374 459 1163.5 214.5 c 128,-1,30
 953 -30 953 -30 576 -30 c 0,31,32
 392 -30 392 -30 278 34 c 128,-1,33
 164 98 164 98 117 204 c 0,0,1
EndSplineSet
EndChar

StartChar: uni0197
Encoding: 407 407 289
Width: 702
GlyphClass: 2
Flags: W
LayerCount: 2
Fore
SplineSet
185 0 m 2,0,1
 135 0 135 0 148 55 c 2,2,-1
 284 644 l 1,3,-1
 134 644 l 2,4,5
 79 644 79 644 89 689 c 2,6,-1
 106 763 l 2,7,8
 116 808 116 808 172 808 c 2,9,-1
 322 808 l 1,10,-1
 453 1379 l 2,11,12
 466 1434 466 1434 516 1434 c 2,13,-1
 608 1434 l 2,14,15
 658 1434 658 1434 645 1379 c 2,16,-1
 514 808 l 1,17,-1
 664 808 l 2,18,19
 719 808 719 808 708 763 c 2,20,-1
 691 689 l 2,21,22
 681 644 681 644 626 644 c 2,23,-1
 476 644 l 1,24,-1
 340 55 l 2,25,26
 327 0 327 0 277 0 c 2,27,-1
 185 0 l 2,0,1
EndSplineSet
EndChar

StartChar: uni0237
Encoding: 567 567 349
Width: 466
GlyphClass: 2
Flags: W
AnchorPoint: "Anchor-3" 362 1067 basechar 0
AnchorPoint: "Anchor-2" -81 -400 basechar 0
LayerCount: 2
Fore
SplineSet
-290 -397 m 0,0,1
 -307 -388 -307 -388 -300 -365 c 2,2,-1
 -275 -284 l 2,3,4
 -267 -258 -267 -258 -246 -269 c 0,5,6
 -211 -287 -211 -287 -155 -287 c 0,7,8
 -96 -287 -96 -287 -54 -230 c 128,-1,9
 -12 -173 -12 -173 29 6 c 2,10,-1
 260 1005 l 2,11,12
 270 1050 270 1050 315 1050 c 2,13,-1
 401 1050 l 2,14,15
 446 1050 446 1050 436 1005 c 2,16,-1
 183 -93 l 2,17,18
 138 -287 138 -287 47 -352 c 128,-1,19
 -44 -417 -44 -417 -153 -417 c 0,20,21
 -252 -417 -252 -417 -290 -397 c 0,0,1
EndSplineSet
EndChar

StartChar: uni0244
Encoding: 580 580 350
Width: 1572
GlyphClass: 2
Flags: W
LayerCount: 2
Fore
SplineSet
134 644 m 2,0,1
 79 644 79 644 89 689 c 2,2,-1
 106 763 l 2,3,4
 116 808 116 808 172 808 c 2,5,-1
 321 808 l 1,6,-1
 453 1379 l 2,7,8
 466 1434 466 1434 516 1434 c 2,9,-1
 608 1434 l 2,10,11
 658 1434 658 1434 645 1379 c 2,12,-1
 513 808 l 1,13,-1
 1191 808 l 1,14,-1
 1323 1379 l 2,15,16
 1336 1434 1336 1434 1386 1434 c 2,17,-1
 1478 1434 l 2,18,19
 1528 1434 1528 1434 1515 1379 c 2,20,-1
 1383 808 l 1,21,-1
 1384 808 l 1,22,-1
 1534 808 l 2,23,24
 1589 808 1589 808 1578 763 c 2,25,-1
 1561 689 l 2,26,27
 1551 644 1551 644 1496 644 c 2,28,-1
 1346 644 l 1,29,-1
 1345 644 l 1,30,-1
 1323 547 l 1,31,32
 1250 230 1250 230 1089 100 c 128,-1,33
 928 -30 928 -30 659 -30 c 0,34,35
 460 -30 460 -30 324 100 c 128,-1,36
 188 230 188 230 261 547 c 1,37,-1
 283 644 l 1,38,-1
 134 644 l 2,0,1
460 577 m 1,39,40
 396 297 396 297 455 211.5 c 128,-1,41
 514 126 514 126 695 126 c 0,42,43
 841 126 841 126 957 211 c 128,-1,44
 1073 296 1073 296 1138 577 c 1,45,-1
 1153 644 l 1,46,-1
 475 644 l 1,47,-1
 460 577 l 1,39,40
EndSplineSet
EndChar

StartChar: uni0245
Encoding: 581 581 351
Width: 1338
GlyphClass: 2
Flags: W
LayerCount: 2
Fore
SplineSet
182 66 m 2,0,-1
 971 1373 l 2,1,2
 1008 1434 1008 1434 1051 1434 c 2,3,-1
 1191 1434 l 2,4,5
 1234 1434 1234 1434 1243 1373 c 2,6,-1
 1428 66 l 2,7,8
 1437 0 1437 0 1386 0 c 2,9,-1
 1296 0 l 2,10,11
 1241 0 1241 0 1235 49 c 2,12,-1
 1117 944 l 2,13,14
 1109 1003 1109 1003 1102 1101 c 128,-1,15
 1095 1199 1095 1199 1095 1261 c 1,16,-1
 1091 1261 l 1,17,18
 1065 1198 1065 1198 1009.5 1097 c 128,-1,19
 954 996 954 996 923 944 c 2,20,-1
 391 49 l 2,21,22
 362 0 362 0 308 0 c 2,23,-1
 194 0 l 2,24,25
 142 0 142 0 182 66 c 2,0,-1
EndSplineSet
EndChar

StartChar: uni0254
Encoding: 596 596 352
Width: 1026
GlyphClass: 2
Flags: W
AnchorPoint: "Anchor-3" 540 1067 basechar 0
AnchorPoint: "Anchor-2" 372 0 basechar 0
LayerCount: 2
Fore
SplineSet
37 164 m 0,0,1
 21 200 21 200 51 216 c 2,2,-1
 117 251 l 2,3,4
 151 269 151 269 170 226 c 0,5,6
 184 194 184 194 234 153.5 c 128,-1,7
 284 113 284 113 381 113 c 0,8,9
 537 113 537 113 655.5 253 c 128,-1,10
 774 393 774 393 774 663 c 0,11,12
 774 785 774 785 715.5 861 c 128,-1,13
 657 937 657 937 527 937 c 0,14,15
 424 937 424 937 358 883.5 c 128,-1,16
 292 830 292 830 264 788 c 0,17,18
 241 753 241 753 211 774 c 2,19,-1
 148 820 l 2,20,21
 119 841 119 841 143 875 c 0,22,23
 172 915 172 915 270 991 c 128,-1,24
 368 1067 368 1067 540 1067 c 0,25,26
 774 1067 774 1067 867 933.5 c 128,-1,27
 960 800 960 800 960 648 c 0,28,29
 960 383 960 383 796.5 183 c 128,-1,30
 633 -17 633 -17 368 -17 c 0,31,32
 206 -17 206 -17 137 39.5 c 128,-1,33
 68 96 68 96 37 164 c 0,0,1
EndSplineSet
EndChar

StartChar: uni0259
Encoding: 601 601 353
Width: 1078
GlyphClass: 2
Flags: W
AnchorPoint: "Anchor-3" 607 1067 basechar 0
AnchorPoint: "Anchor-2" 432 0 basechar 0
LayerCount: 2
Fore
SplineSet
82 272 m 0,0,1
 82 420 82 420 223.5 490 c 128,-1,2
 365 560 365 560 574 602 c 2,3,-1
 820 651 l 1,4,5
 826 689 826 689 826 691 c 0,6,7
 826 790 826 790 772 863 c 128,-1,8
 718 936 718 936 583 936 c 0,9,10
 468 936 468 936 398 894 c 128,-1,11
 328 852 328 852 303 818 c 0,12,13
 268 771 268 771 240 797 c 1,14,-1
 181 848 l 2,15,16
 162 865 162 865 187 904 c 0,17,18
 210 940 210 940 311 1003.5 c 128,-1,19
 412 1067 412 1067 607 1067 c 0,20,21
 820 1067 820 1067 916 943.5 c 128,-1,22
 1012 820 1012 820 1012 654 c 0,23,24
 1012 354 1012 354 855.5 168.5 c 128,-1,25
 699 -17 699 -17 428 -17 c 0,26,27
 273 -17 273 -17 177.5 71.5 c 128,-1,28
 82 160 82 160 82 272 c 0,0,1
258 264 m 0,29,30
 258 196 258 196 319.5 154.5 c 128,-1,31
 381 113 381 113 461 113 c 0,32,33
 582 113 582 113 676.5 205 c 128,-1,34
 771 297 771 297 815 512 c 1,35,-1
 610 472 l 2,36,37
 470 445 470 445 364 397.5 c 128,-1,38
 258 350 258 350 258 264 c 0,29,30
EndSplineSet
EndChar

StartChar: uni0265
Encoding: 613 613 354
Width: 1120
GlyphClass: 2
Flags: W
AnchorPoint: "Anchor-3" 685 1067 basechar 0
AnchorPoint: "Anchor-2" 346 -400 basechar 0
LayerCount: 2
Fore
SplineSet
104 366 m 2,0,-1
 252 1005 l 2,1,2
 262 1050 262 1050 307 1050 c 2,3,-1
 393 1050 l 2,4,5
 438 1050 438 1050 428 1005 c 2,6,-1
 292 414 l 2,7,8
 247 217 247 217 295 165 c 128,-1,9
 343 113 343 113 448 113 c 0,10,11
 595 113 595 113 678 229.5 c 128,-1,12
 761 346 761 346 796 496 c 2,13,-1
 914 1005 l 2,14,15
 924 1050 924 1050 969 1050 c 2,16,-1
 1055 1050 l 2,17,18
 1100 1050 1100 1050 1090 1005 c 2,19,-1
 776 -355 l 2,20,21
 766 -400 766 -400 721 -400 c 2,22,-1
 635 -400 l 2,23,24
 590 -400 590 -400 600 -355 c 2,25,-1
 706 104 l 2,26,27
 715 141 715 141 722 165 c 1,28,-1
 718 165 l 1,29,30
 659 92 659 92 563.5 37.5 c 128,-1,31
 468 -17 468 -17 353 -17 c 0,32,33
 193 -17 193 -17 128 85.5 c 128,-1,34
 63 188 63 188 104 366 c 2,0,-1
EndSplineSet
EndChar

StartChar: uni0268
Encoding: 616 616 355
Width: 640
GlyphClass: 2
Flags: W
AnchorPoint: "Anchor-2" 199 0 basechar 0
LayerCount: 2
Fore
SplineSet
86 482 m 2,0,1
 41 482 41 482 49 517 c 2,2,-1
 64 579 l 2,3,4
 72 614 72 614 117 614 c 2,5,-1
 254 614 l 1,6,-1
 344 1005 l 2,7,8
 354 1050 354 1050 399 1050 c 2,9,-1
 485 1050 l 2,10,11
 530 1050 530 1050 520 1005 c 2,12,-1
 430 614 l 1,13,-1
 567 614 l 2,14,15
 612 614 612 614 604 579 c 2,16,-1
 589 517 l 2,17,18
 581 482 581 482 536 482 c 2,19,-1
 399 482 l 1,20,-1
 298 45 l 2,21,22
 288 0 288 0 243 0 c 2,23,-1
 157 0 l 2,24,25
 112 0 112 0 122 45 c 2,26,-1
 223 482 l 1,27,-1
 86 482 l 2,0,1
443 1240 m 2,28,29
 398 1240 398 1240 409 1285 c 2,30,-1
 429 1371 l 2,31,32
 439 1416 439 1416 484 1416 c 2,33,-1
 570 1416 l 2,34,35
 615 1416 615 1416 605 1371 c 2,36,-1
 585 1285 l 2,37,38
 574 1240 574 1240 529 1240 c 2,39,-1
 443 1240 l 2,28,29
EndSplineSet
EndChar

StartChar: uni026A
Encoding: 618 618 356
Width: 584
GlyphClass: 2
Flags: W
AnchorPoint: "Anchor-3" 418 1067 basechar 0
AnchorPoint: "Anchor-2" 172 0 basechar 0
LayerCount: 2
Fore
SplineSet
25 0 m 2,0,1
 -20 0 -20 0 -12 35 c 2,2,-1
 2 95 l 2,3,4
 10 130 10 130 55 130 c 2,5,-1
 114 130 l 1,6,-1
 296 920 l 1,7,-1
 237 920 l 2,8,9
 192 920 192 920 200 955 c 2,10,-1
 214 1015 l 2,11,12
 222 1050 222 1050 267 1050 c 2,13,-1
 561 1050 l 2,14,15
 606 1050 606 1050 598 1015 c 2,16,-1
 584 955 l 2,17,18
 576 920 576 920 531 920 c 2,19,-1
 472 920 l 1,20,-1
 290 130 l 1,21,-1
 349 130 l 2,22,23
 394 130 394 130 386 95 c 2,24,-1
 372 35 l 2,25,26
 364 0 364 0 319 0 c 2,27,-1
 25 0 l 2,0,1
EndSplineSet
EndChar

StartChar: uni0271
Encoding: 625 625 358
Width: 1678
GlyphClass: 2
Flags: W
AnchorPoint: "Anchor-3" 966 1067 basechar 0
AnchorPoint: "Anchor-2" 627 -400 basechar 0
LayerCount: 2
Fore
SplineSet
67 0 m 2,0,1
 22 0 22 0 32 45 c 2,2,-1
 254 1005 l 2,3,4
 264 1050 264 1050 309 1050 c 2,5,-1
 393 1050 l 2,6,7
 438 1050 438 1050 428 1005 c 2,8,-1
 401 885 l 1,9,-1
 405 885 l 1,10,11
 464 957 464 957 553.5 1012 c 128,-1,12
 643 1067 643 1067 733 1067 c 0,13,14
 843 1067 843 1067 905.5 997.5 c 128,-1,15
 968 928 968 928 968 833 c 1,16,-1
 972 833 l 1,17,18
 1035 915 1035 915 1131.5 991 c 128,-1,19
 1228 1067 1228 1067 1343 1067 c 0,20,21
 1483 1067 1483 1067 1550 964.5 c 128,-1,22
 1617 862 1617 862 1576 684 c 2,23,-1
 1397 -93 l 2,24,25
 1352 -287 1352 -287 1261 -352 c 128,-1,26
 1170 -417 1170 -417 1061 -417 c 0,27,28
 962 -417 962 -417 924 -397 c 0,29,30
 907 -388 907 -388 914 -365 c 2,31,-1
 939 -284 l 2,32,33
 947 -258 947 -258 968 -269 c 0,34,35
 1003 -287 1003 -287 1059 -287 c 0,36,37
 1118 -287 1118 -287 1160 -230 c 128,-1,38
 1202 -173 1202 -173 1243 6 c 2,39,-1
 1387 626 l 2,40,41
 1432 821 1432 821 1400 879 c 128,-1,42
 1368 937 1368 937 1258 937 c 0,43,44
 1168 937 1168 937 1068.5 816.5 c 128,-1,45
 969 696 969 696 936 554 c 2,46,-1
 818 45 l 2,47,48
 808 0 808 0 763 0 c 2,49,-1
 677 0 l 2,50,51
 632 0 632 0 642 45 c 2,52,-1
 777 626 l 2,53,54
 822 821 822 821 790 879 c 128,-1,55
 758 937 758 937 648 937 c 0,56,57
 558 937 558 937 459.5 820.5 c 128,-1,58
 361 704 361 704 326 554 c 2,59,-1
 208 45 l 2,60,61
 198 0 198 0 153 0 c 2,62,-1
 67 0 l 2,0,1
EndSplineSet
EndChar

StartChar: uni0279
Encoding: 633 633 360
Width: 722
GlyphClass: 2
Flags: W
AnchorPoint: "Anchor-3" 428 1067 basechar 0
AnchorPoint: "Anchor-2" 182 0 basechar 0
LayerCount: 2
Fore
SplineSet
-90 24 m 2,0,-1
 -57 106 l 2,1,2
 -50 124 -50 124 -28 120 c 0,3,4
 6 113 6 113 41 113 c 0,5,6
 150 113 150 113 262 254.5 c 128,-1,7
 374 396 374 396 409 546 c 2,8,-1
 516 1005 l 2,9,10
 526 1050 526 1050 571 1050 c 2,11,-1
 657 1050 l 2,12,13
 702 1050 702 1050 692 1005 c 2,14,-1
 470 45 l 2,15,16
 460 0 460 0 415 0 c 2,17,-1
 331 0 l 2,18,19
 286 0 286 0 296 45 c 2,20,-1
 333 205 l 1,21,-1
 329 205 l 1,22,23
 257 92 257 92 181.5 37.5 c 128,-1,24
 106 -17 106 -17 3 -17 c 0,25,26
 -56 -17 -56 -17 -80 -6 c 0,27,28
 -99 2 -99 2 -90 24 c 2,0,-1
EndSplineSet
EndChar

StartChar: uni0283
Encoding: 643 643 361
Width: 586
GlyphClass: 2
Flags: W
AnchorPoint: "Anchor-3" 500 1476 basechar 0
LayerCount: 2
Fore
SplineSet
-290 -397 m 0,0,1
 -307 -388 -307 -388 -300 -365 c 2,2,-1
 -275 -284 l 2,3,4
 -267 -258 -267 -258 -246 -269 c 0,5,6
 -211 -287 -211 -287 -155 -287 c 0,7,8
 -96 -287 -96 -287 -54 -230 c 128,-1,9
 -12 -173 -12 -173 29 6 c 2,10,-1
 305 1199 l 2,11,12
 344 1366 344 1366 449 1429.5 c 128,-1,13
 554 1493 554 1493 659 1493 c 0,14,15
 726 1493 726 1493 764 1486 c 128,-1,16
 802 1479 802 1479 855 1455 c 0,17,18
 875 1446 875 1446 861 1423 c 2,19,-1
 811 1344 l 2,20,21
 798 1324 798 1324 774 1336 c 0,22,23
 755 1346 755 1346 727.5 1354.5 c 128,-1,24
 700 1363 700 1363 665 1363 c 0,25,26
 586 1363 586 1363 542 1318.5 c 128,-1,27
 498 1274 498 1274 474 1170 c 2,28,-1
 183 -93 l 2,29,30
 138 -287 138 -287 47 -352 c 128,-1,31
 -44 -417 -44 -417 -153 -417 c 0,32,33
 -252 -417 -252 -417 -290 -397 c 0,0,1
EndSplineSet
EndChar

StartChar: uni0287
Encoding: 647 647 362
Width: 757
GlyphClass: 2
Flags: W
AnchorPoint: "Anchor-3" 505 1067 basechar 0
LayerCount: 2
Fore
SplineSet
3 35 m 2,0,-1
 17 97 l 2,1,2
 25 132 25 132 70 132 c 2,3,-1
 283 132 l 1,4,-1
 430 769 l 2,5,6
 454 874 454 874 429.5 905.5 c 128,-1,7
 405 937 405 937 370 937 c 0,8,9
 324 937 324 937 275 919.5 c 128,-1,10
 226 902 226 902 209 891 c 0,11,12
 187 877 187 877 180 897 c 2,13,-1
 154 969 l 2,14,15
 148 987 148 987 165 998 c 0,16,17
 206 1024 206 1024 284.5 1045.5 c 128,-1,18
 363 1067 363 1067 452 1067 c 0,19,20
 540 1067 540 1067 590.5 992 c 128,-1,21
 641 917 641 917 609 780 c 2,22,-1
 459 132 l 1,23,-1
 577 132 l 2,24,25
 622 132 622 132 614 97 c 2,26,-1
 600 35 l 2,27,28
 592 0 592 0 547 0 c 2,29,-1
 429 0 l 1,30,-1
 408 -90 l 2,31,32
 403 -109 403 -109 389 -128 c 2,33,-1
 290 -255 l 2,34,35
 263 -290 263 -290 251 -290 c 2,36,-1
 216 -290 l 2,37,38
 186 -290 186 -290 194 -255 c 2,39,-1
 253 0 l 1,40,-1
 40 0 l 2,41,42
 -5 0 -5 0 3 35 c 2,0,-1
EndSplineSet
EndChar

StartChar: uni0289
Encoding: 649 649 363
Width: 1302
GlyphClass: 2
Flags: W
AnchorPoint: "Anchor-3" 776 1067 basechar 0
AnchorPoint: "Anchor-2" 530 0 basechar 0
LayerCount: 2
Fore
SplineSet
86 482 m 2,0,1
 41 482 41 482 49 517 c 2,2,-1
 64 579 l 2,3,4
 72 614 72 614 117 614 c 2,5,-1
 253 614 l 1,6,-1
 344 1005 l 2,7,8
 354 1050 354 1050 399 1050 c 2,9,-1
 485 1050 l 2,10,11
 530 1050 530 1050 520 1005 c 2,12,-1
 430 614 l 1,13,-1
 915 614 l 1,14,-1
 1006 1005 l 2,15,16
 1016 1050 1016 1050 1061 1050 c 2,17,-1
 1147 1050 l 2,18,19
 1192 1050 1192 1050 1182 1005 c 2,20,-1
 1092 614 l 1,21,-1
 1229 614 l 2,22,23
 1274 614 1274 614 1266 579 c 2,24,-1
 1251 517 l 2,25,26
 1243 482 1243 482 1198 482 c 2,27,-1
 1061 482 l 1,28,-1
 960 45 l 2,29,30
 950 0 950 0 905 0 c 2,31,-1
 821 0 l 2,32,33
 775 0 775 0 786 45 c 2,34,-1
 814 165 l 1,35,-1
 810 165 l 1,36,37
 751 92 751 92 655.5 37.5 c 128,-1,38
 560 -17 560 -17 445 -17 c 0,39,40
 285 -17 285 -17 220 85.5 c 128,-1,41
 155 188 155 188 196 366 c 2,42,-1
 223 482 l 1,43,-1
 86 482 l 2,0,1
384 414 m 1,44,45
 339 217 339 217 387 165 c 128,-1,46
 435 113 435 113 540 113 c 0,47,48
 687 113 687 113 768 227 c 128,-1,49
 849 341 849 341 885 482 c 1,50,-1
 400 482 l 1,51,-1
 384 414 l 1,44,45
EndSplineSet
EndChar

StartChar: uni0292
Encoding: 658 658 364
Width: 982
GlyphClass: 2
Flags: W
AnchorPoint: "Anchor-3" 609 1067 basechar 0
AnchorPoint: "Anchor-2" 334 -400 basechar 0
LayerCount: 2
Fore
SplineSet
-91 -266 m 0,0,1
 -114 -227 -114 -227 -89 -211 c 2,2,-1
 -27 -170 l 2,3,4
 3 -150 3 -150 35 -189 c 0,5,6
 60 -220 60 -220 109 -253.5 c 128,-1,7
 158 -287 158 -287 262 -287 c 0,8,9
 424 -287 424 -287 512 -180.5 c 128,-1,10
 600 -74 600 -74 600 97 c 0,11,12
 600 200 600 200 536 253 c 128,-1,13
 472 306 472 306 354 306 c 2,14,-1
 271 306 l 2,15,16
 226 306 226 306 234 341 c 2,17,-1
 250 409 l 2,18,19
 257 440 257 440 290 472 c 2,20,-1
 751 918 l 1,21,-1
 751 920 l 1,22,23
 721 918 721 918 691 918 c 2,24,-1
 216 918 l 2,25,26
 171 918 171 918 179 953 c 2,27,-1
 193 1015 l 2,28,29
 201 1050 201 1050 246 1050 c 2,30,-1
 948 1050 l 2,31,32
 993 1050 993 1050 985 1015 c 2,33,-1
 973 964 l 2,34,35
 966 932 966 932 918 886 c 2,36,-1
 459 438 l 1,37,-1
 459 434 l 1,38,39
 603 434 603 434 693 339.5 c 128,-1,40
 783 245 783 245 783 111 c 0,41,42
 783 -111 783 -111 650.5 -264 c 128,-1,43
 518 -417 518 -417 262 -417 c 0,44,45
 98 -417 98 -417 17 -364.5 c 128,-1,46
 -64 -312 -64 -312 -91 -266 c 0,0,1
EndSplineSet
EndChar

StartChar: circumflex
Encoding: 710 710 367
Width: 614
GlyphClass: 2
Flags: W
LayerCount: 2
Fore
SplineSet
164 1190 m 2,0,1
 147 1216 147 1216 189 1245 c 2,2,-1
 423 1408 l 2,3,4
 460 1434 460 1434 485 1434 c 2,5,-1
 535 1434 l 2,6,7
 560 1434 560 1434 585 1408 c 2,8,-1
 759 1229 l 2,9,10
 787 1200 787 1200 758 1174 c 2,11,-1
 733 1151 l 2,12,13
 704 1124 704 1124 676 1153 c 2,14,-1
 504 1332 l 1,15,-1
 502 1332 l 1,16,-1
 246 1153 l 2,17,18
 206 1125 206 1125 189 1151 c 2,19,-1
 164 1190 l 2,0,1
EndSplineSet
EndChar

StartChar: caron
Encoding: 711 711 368
Width: 614
GlyphClass: 2
Flags: W
LayerCount: 2
Fore
SplineSet
209 1343 m 2,0,1
 181 1372 181 1372 210 1398 c 2,2,-1
 235 1421 l 2,3,4
 264 1448 264 1448 292 1419 c 2,5,-1
 464 1240 l 1,6,-1
 466 1240 l 1,7,-1
 722 1419 l 2,8,9
 762 1447 762 1447 779 1421 c 2,10,-1
 804 1382 l 2,11,12
 821 1356 821 1356 779 1327 c 2,13,-1
 545 1164 l 2,14,15
 508 1138 508 1138 483 1138 c 2,16,-1
 433 1138 l 2,17,18
 408 1138 408 1138 383 1164 c 2,19,-1
 209 1343 l 2,0,1
EndSplineSet
Substitution2: "'ss01' Style Set 1 lookup 7 subtable" caron.alt
EndChar

StartChar: breve
Encoding: 728 728 373
Width: 614
GlyphClass: 2
Flags: W
LayerCount: 2
Fore
SplineSet
188 1370 m 0,0,1
 173 1411 173 1411 206 1423 c 2,2,-1
 254 1441 l 2,3,4
 285 1452 285 1452 298 1419 c 0,5,6
 325 1352 325 1352 360 1314 c 128,-1,7
 395 1276 395 1276 472 1276 c 0,8,9
 562 1276 562 1276 616.5 1318.5 c 128,-1,10
 671 1361 671 1361 710 1422 c 0,11,12
 729 1453 729 1453 756 1437 c 2,13,-1
 801 1410 l 2,14,15
 832 1392 832 1392 809 1355 c 1,16,17
 745 1243 745 1243 648.5 1194.5 c 128,-1,18
 552 1146 552 1146 453 1146 c 0,19,20
 347 1146 347 1146 289 1198 c 128,-1,21
 231 1250 231 1250 188 1370 c 0,0,1
EndSplineSet
EndChar

StartChar: dotaccent
Encoding: 729 729 374
Width: 614
GlyphClass: 2
Flags: W
LayerCount: 2
Fore
SplineSet
430 1240 m 2,0,1
 385 1240 385 1240 396 1285 c 2,2,-1
 416 1371 l 2,3,4
 426 1416 426 1416 471 1416 c 2,5,-1
 557 1416 l 2,6,7
 602 1416 602 1416 592 1371 c 2,8,-1
 572 1285 l 2,9,10
 561 1240 561 1240 516 1240 c 2,11,-1
 430 1240 l 2,0,1
EndSplineSet
EndChar

StartChar: ring
Encoding: 730 730 375
Width: 614
GlyphClass: 2
Flags: W
LayerCount: 2
Fore
SplineSet
310 1313 m 256,0,1
 310 1388 310 1388 362.5 1440.5 c 128,-1,2
 415 1493 415 1493 490 1493 c 256,3,4
 565 1493 565 1493 617.5 1440.5 c 128,-1,5
 670 1388 670 1388 670 1313 c 256,6,7
 670 1238 670 1238 617.5 1185.5 c 128,-1,8
 565 1133 565 1133 490 1133 c 256,9,10
 415 1133 415 1133 362.5 1185.5 c 128,-1,11
 310 1238 310 1238 310 1313 c 256,0,1
386 1313 m 256,12,13
 386 1269 386 1269 416 1239 c 128,-1,14
 446 1209 446 1209 490 1209 c 256,15,16
 534 1209 534 1209 564 1239 c 128,-1,17
 594 1269 594 1269 594 1313 c 256,18,19
 594 1357 594 1357 564 1387 c 128,-1,20
 534 1417 534 1417 490 1417 c 256,21,22
 446 1417 446 1417 416 1387 c 128,-1,23
 386 1357 386 1357 386 1313 c 256,12,13
EndSplineSet
EndChar

StartChar: ogonek
Encoding: 731 731 376
Width: 614
GlyphClass: 2
Flags: W
LayerCount: 2
Fore
SplineSet
-64 -284 m 0,0,1
 -64 -232 -64 -232 -46.5 -190.5 c 128,-1,2
 -29 -149 -29 -149 17 -110.5 c 128,-1,3
 63 -72 63 -72 164 -6 c 0,4,5
 183 7 183 7 191 45 c 1,6,-1
 362 45 l 1,7,8
 355 15 355 15 335 0 c 0,9,10
 241 -70 241 -70 168.5 -128 c 128,-1,11
 96 -186 96 -186 96 -233 c 0,12,13
 96 -260 96 -260 111 -273.5 c 128,-1,14
 126 -287 126 -287 162 -287 c 0,15,16
 205 -287 205 -287 235 -281 c 0,17,18
 260 -276 260 -276 262 -303 c 2,19,-1
 268 -380 l 2,20,21
 270 -404 270 -404 250 -408 c 0,22,23
 192 -417 192 -417 132 -417 c 0,24,25
 32 -417 32 -417 -16 -379.5 c 128,-1,26
 -64 -342 -64 -342 -64 -284 c 0,0,1
EndSplineSet
EndChar

StartChar: tilde
Encoding: 732 732 377
Width: 614
GlyphClass: 2
Flags: W
LayerCount: 2
Fore
SplineSet
172 1175 m 2,0,1
 150 1185 150 1185 160 1219 c 0,2,3
 181 1290 181 1290 231.5 1335 c 128,-1,4
 282 1380 282 1380 362 1380 c 0,5,6
 430 1380 430 1380 500 1325 c 128,-1,7
 570 1270 570 1270 609 1270 c 0,8,9
 652 1270 652 1270 673 1292 c 128,-1,10
 694 1314 694 1314 710 1352 c 0,11,12
 723 1382 723 1382 747 1372 c 2,13,-1
 786 1355 l 2,14,15
 808 1345 808 1345 798 1311 c 0,16,17
 777 1240 777 1240 726.5 1195 c 128,-1,18
 676 1150 676 1150 596 1150 c 0,19,20
 528 1150 528 1150 458 1205 c 128,-1,21
 388 1260 388 1260 349 1260 c 0,22,23
 306 1260 306 1260 285 1238 c 128,-1,24
 264 1216 264 1216 248 1178 c 0,25,26
 235 1148 235 1148 211 1158 c 2,27,-1
 172 1175 l 2,0,1
EndSplineSet
EndChar

StartChar: hungarumlaut
Encoding: 733 733 378
Width: 614
GlyphClass: 2
Flags: W
LayerCount: 2
Fore
SplineSet
488 1150 m 2,0,1
 449 1150 449 1150 483 1203 c 2,2,-1
 609 1398 l 2,3,4
 633 1435 633 1435 696 1435 c 2,5,-1
 803 1435 l 2,6,7
 857 1435 857 1435 809 1383 c 2,8,-1
 621 1179 l 2,9,10
 594 1150 594 1150 540 1150 c 2,11,-1
 488 1150 l 2,0,1
188 1150 m 2,12,13
 149 1150 149 1150 183 1203 c 2,14,-1
 309 1398 l 2,15,16
 333 1435 333 1435 396 1435 c 2,17,-1
 503 1435 l 2,18,19
 557 1435 557 1435 509 1383 c 2,20,-1
 321 1179 l 2,21,22
 294 1150 294 1150 240 1150 c 2,23,-1
 188 1150 l 2,12,13
EndSplineSet
EndChar

StartChar: Sigma
Encoding: 931 931 411
Width: 1208
GlyphClass: 2
Flags: W
LayerCount: 2
Fore
SplineSet
9 0 m 2,0,1
 -46 0 -46 0 -36 45 c 2,2,-1
 -25 93 l 2,3,4
 -15 139 -15 139 26 182 c 2,5,-1
 541 734 l 2,6,7
 575 771 575 771 557 806 c 2,8,-1
 300 1299 l 2,9,10
 286 1326 286 1326 294 1360 c 2,11,-1
 301 1389 l 2,12,13
 312 1434 312 1434 366 1434 c 2,14,-1
 1264 1434 l 2,15,16
 1319 1434 1319 1434 1309 1389 c 2,17,-1
 1292 1315 l 2,18,19
 1282 1270 1282 1270 1226 1270 c 2,20,-1
 598 1270 l 2,21,22
 558 1270 558 1270 519 1272 c 1,23,-1
 518 1268 l 1,24,-1
 775 770 l 2,25,26
 792 737 792 737 760 703 c 2,27,-1
 254 166 l 1,28,-1
 253 162 l 1,29,30
 280 164 280 164 334 164 c 2,31,-1
 999 164 l 2,32,33
 1053 164 1053 164 1043 119 c 2,34,-1
 1026 45 l 2,35,36
 1016 0 1016 0 961 0 c 2,37,-1
 9 0 l 2,0,1
EndSplineSet
EndChar

StartChar: afii10051
Encoding: 1026 1026 413
Width: 1600
GlyphClass: 2
Flags: W
LayerCount: 2
Fore
SplineSet
265 1270 m 2,0,1
 210 1270 210 1270 220 1315 c 2,2,-1
 237 1389 l 2,3,4
 247 1434 247 1434 303 1434 c 2,5,-1
 1361 1434 l 2,6,7
 1415 1434 1415 1434 1405 1389 c 2,8,-1
 1388 1315 l 2,9,10
 1378 1270 1378 1270 1323 1270 c 2,11,-1
 860 1270 l 1,12,-1
 763 851 l 2,13,14
 752 804 752 804 742 771 c 1,15,-1
 746 771 l 1,16,17
 826 806 826 806 908 837 c 128,-1,18
 990 868 990 868 1097 868 c 0,19,20
 1296 868 1296 868 1393 761 c 128,-1,21
 1490 654 1490 654 1490 482 c 0,22,23
 1490 240 1490 240 1364 102 c 128,-1,24
 1238 -36 1238 -36 1006 -36 c 0,25,26
 919 -36 919 -36 853 -18 c 0,27,28
 813 -8 813 -8 827 31 c 2,29,-1
 854 112 l 2,30,31
 862 136 862 136 908 128 c 0,32,33
 952 121 952 121 994 121 c 0,34,35
 1158 121 1158 121 1221.5 218 c 128,-1,36
 1285 315 1285 315 1285 448 c 0,37,38
 1285 585 1285 585 1238 649.5 c 128,-1,39
 1191 714 1191 714 1062 714 c 0,40,41
 1003 714 1003 714 900.5 694 c 128,-1,42
 798 674 798 674 714 637 c 1,43,-1
 579 55 l 2,44,45
 566 0 566 0 516 0 c 2,46,-1
 424 0 l 2,47,48
 374 0 374 0 387 55 c 2,49,-1
 668 1270 l 1,50,-1
 265 1270 l 2,0,1
EndSplineSet
EndChar

StartChar: afii10053
Encoding: 1028 1028 415
Width: 1382
GlyphClass: 2
Flags: W
AnchorPoint: "Anchor-3" 908 1464 basechar 0
LayerCount: 2
Fore
SplineSet
110 580 m 0,0,1
 110 975 110 975 314.5 1219.5 c 128,-1,2
 519 1464 519 1464 908 1464 c 0,3,4
 1092 1464 1092 1464 1197.5 1411.5 c 128,-1,5
 1303 1359 1303 1359 1359 1257 c 0,6,7
 1387 1207 1387 1207 1343 1176 c 2,8,-1
 1270 1123 l 2,9,10
 1244 1105 1244 1105 1215 1146 c 0,11,12
 1179 1199 1179 1199 1102.5 1253.5 c 128,-1,13
 1026 1308 1026 1308 891 1308 c 0,14,15
 641 1308 641 1308 510.5 1161.5 c 128,-1,16
 380 1015 380 1015 341 833 c 1,17,-1
 1024 833 l 2,18,19
 1078 833 1078 833 1068 788 c 2,20,-1
 1051 714 l 2,21,22
 1041 669 1041 669 986 669 c 2,23,-1
 319 669 l 1,24,25
 315 615 315 615 315 557 c 0,26,27
 315 375 315 375 403.5 250.5 c 128,-1,28
 492 126 492 126 737 126 c 0,29,30
 873 126 873 126 965 191 c 128,-1,31
 1057 256 1057 256 1115 323 c 0,32,33
 1162 377 1162 377 1196 351 c 2,34,-1
 1281 286 l 2,35,36
 1311 262 1311 262 1266 207 c 0,37,38
 1176 99 1176 99 1051.5 34.5 c 128,-1,39
 927 -30 927 -30 710 -30 c 0,40,41
 396 -30 396 -30 253 142.5 c 128,-1,42
 110 315 110 315 110 580 c 0,0,1
EndSplineSet
EndChar

StartChar: afii10058
Encoding: 1033 1033 420
Width: 2250
GlyphClass: 2
Flags: W
LayerCount: 2
Fore
SplineSet
-46 -17 m 0,0,1
 -77 -6 -77 -6 -67 29 c 2,2,-1
 -42 112 l 2,3,4
 -31 149 -31 149 15 135 c 0,5,6
 41 127 41 127 92 127 c 0,7,8
 261 127 261 127 363.5 390.5 c 128,-1,9
 466 654 466 654 563 1077 c 2,10,-1
 632 1379 l 2,11,12
 645 1434 645 1434 695 1434 c 2,13,-1
 1465 1434 l 2,14,15
 1515 1434 1515 1434 1502 1379 c 2,16,-1
 1375 828 l 1,17,-1
 1643 828 l 2,18,19
 1935 828 1935 828 2042 721.5 c 128,-1,20
 2149 615 2149 615 2149 454 c 0,21,22
 2149 270 2149 270 1989 135 c 128,-1,23
 1829 0 1829 0 1492 0 c 2,24,-1
 1042 0 l 2,25,26
 992 0 992 0 1005 55 c 2,27,-1
 1285 1270 l 1,28,-1
 773 1270 l 1,29,-1
 716 1021 l 2,30,31
 572 393 572 393 443.5 181.5 c 128,-1,32
 315 -30 315 -30 79 -30 c 0,33,34
 -9 -30 -9 -30 -46 -17 c 0,0,1
1222 164 m 1,35,-1
 1498 164 l 2,36,37
 1713 164 1713 164 1828.5 238 c 128,-1,38
 1944 312 1944 312 1944 444 c 0,39,40
 1944 585 1944 585 1851 624.5 c 128,-1,41
 1758 664 1758 664 1573 664 c 2,42,-1
 1337 664 l 1,43,-1
 1222 164 l 1,35,-1
EndSplineSet
EndChar

StartChar: afii10059
Encoding: 1034 1034 421
Width: 2198
GlyphClass: 2
Flags: W
LayerCount: 2
Fore
SplineSet
100 0 m 2,0,1
 50 0 50 0 63 55 c 2,2,-1
 368 1379 l 2,3,4
 381 1434 381 1434 431 1434 c 2,5,-1
 523 1434 l 2,6,7
 573 1434 573 1434 560 1379 c 2,8,-1
 433 828 l 1,9,-1
 1131 828 l 1,10,-1
 1258 1379 l 2,11,12
 1271 1434 1271 1434 1321 1434 c 2,13,-1
 1413 1434 l 2,14,15
 1463 1434 1463 1434 1450 1379 c 2,16,-1
 1323 828 l 1,17,-1
 1591 828 l 2,18,19
 1883 828 1883 828 1990 721.5 c 128,-1,20
 2097 615 2097 615 2097 454 c 0,21,22
 2097 270 2097 270 1937 135 c 128,-1,23
 1777 0 1777 0 1440 0 c 2,24,-1
 990 0 l 2,25,26
 940 0 940 0 953 55 c 2,27,-1
 1093 664 l 1,28,-1
 395 664 l 1,29,-1
 255 55 l 2,30,31
 242 0 242 0 192 0 c 2,32,-1
 100 0 l 2,0,1
1170 164 m 1,33,-1
 1446 164 l 2,34,35
 1661 164 1661 164 1776.5 238 c 128,-1,36
 1892 312 1892 312 1892 444 c 0,37,38
 1892 585 1892 585 1799 624.5 c 128,-1,39
 1706 664 1706 664 1521 664 c 2,40,-1
 1285 664 l 1,41,-1
 1170 164 l 1,33,-1
EndSplineSet
EndChar

StartChar: afii10060
Encoding: 1035 1035 422
Width: 1630
GlyphClass: 2
Flags: W
LayerCount: 2
Fore
SplineSet
264 1270 m 2,0,1
 209 1270 209 1270 220 1315 c 2,2,-1
 237 1389 l 2,3,4
 247 1434 247 1434 302 1434 c 2,5,-1
 1360 1434 l 2,6,7
 1415 1434 1415 1434 1405 1389 c 2,8,-1
 1388 1315 l 2,9,10
 1377 1270 1377 1270 1322 1270 c 2,11,-1
 859 1270 l 1,12,-1
 763 851 l 2,13,14
 753 809 753 809 742 771 c 1,15,-1
 746 771 l 1,16,17
 850 812 850 812 948.5 840 c 128,-1,18
 1047 868 1047 868 1203 868 c 256,19,20
 1359 868 1359 868 1440.5 766 c 128,-1,21
 1522 664 1522 664 1490 522 c 2,22,-1
 1383 55 l 2,23,24
 1370 0 1370 0 1320 0 c 2,25,-1
 1228 0 l 2,26,27
 1178 0 1178 0 1191 55 c 2,28,-1
 1287 474 l 2,29,30
 1319 615 1319 615 1283.5 664.5 c 128,-1,31
 1248 714 1248 714 1137 714 c 0,32,33
 1083 714 1083 714 945 695 c 128,-1,34
 807 676 807 676 713 637 c 1,35,-1
 579 55 l 2,36,37
 566 0 566 0 516 0 c 2,38,-1
 424 0 l 2,39,40
 374 0 374 0 387 55 c 2,41,-1
 667 1270 l 1,42,-1
 264 1270 l 2,0,1
EndSplineSet
EndChar

StartChar: afii10145
Encoding: 1039 1039 425
Width: 1410
GlyphClass: 2
Flags: W
LayerCount: 2
Fore
SplineSet
100 0 m 2,0,1
 50 0 50 0 63 55 c 2,2,-1
 368 1379 l 2,3,4
 381 1434 381 1434 431 1434 c 2,5,-1
 523 1434 l 2,6,7
 573 1434 573 1434 560 1379 c 2,8,-1
 280 164 l 1,9,-1
 966 164 l 1,10,-1
 1246 1379 l 2,11,12
 1259 1434 1259 1434 1309 1434 c 2,13,-1
 1401 1434 l 2,14,15
 1451 1434 1451 1434 1438 1379 c 2,16,-1
 1133 55 l 2,17,18
 1120 0 1120 0 1070 0 c 2,19,-1
 668 0 l 1,20,-1
 594 -320 l 2,21,22
 583 -370 583 -370 543 -370 c 2,23,-1
 457 -370 l 2,24,25
 417 -370 417 -370 428 -320 c 2,26,-1
 502 0 l 1,27,-1
 100 0 l 2,0,1
EndSplineSet
EndChar

StartChar: afii10018
Encoding: 1041 1041 427
Width: 1330
GlyphClass: 2
Flags: W
AnchorPoint: "Anchor-3" 924 1464 basechar 0
LayerCount: 2
Fore
SplineSet
100 0 m 2,0,1
 50 0 50 0 63 55 c 2,2,-1
 368 1379 l 2,3,4
 381 1434 381 1434 431 1434 c 2,5,-1
 1266 1434 l 2,6,7
 1321 1434 1321 1434 1311 1389 c 2,8,-1
 1294 1315 l 2,9,10
 1284 1270 1284 1270 1228 1270 c 2,11,-1
 535 1270 l 1,12,-1
 434 832 l 1,13,-1
 712 832 l 2,14,15
 1022 832 1022 832 1120 719 c 128,-1,16
 1218 606 1218 606 1218 463 c 0,17,18
 1218 272 1218 272 1057.5 136 c 128,-1,19
 897 0 897 0 560 0 c 2,20,-1
 100 0 l 2,0,1
280 164 m 1,21,-1
 566 164 l 2,22,23
 781 164 781 164 897 240.5 c 128,-1,24
 1013 317 1013 317 1013 452 c 0,25,26
 1013 572 1013 572 932.5 620 c 128,-1,27
 852 668 852 668 642 668 c 2,28,-1
 396 668 l 1,29,-1
 280 164 l 1,21,-1
EndSplineSet
EndChar

StartChar: afii10020
Encoding: 1043 1043 429
Width: 1106
GlyphClass: 2
Flags: W
AnchorPoint: "Anchor-3" 838 1464 basechar 0
LayerCount: 2
Fore
SplineSet
100 0 m 2,0,1
 50 0 50 0 63 55 c 2,2,-1
 368 1379 l 2,3,4
 381 1434 381 1434 431 1434 c 2,5,-1
 1226 1434 l 2,6,7
 1281 1434 1281 1434 1271 1389 c 2,8,-1
 1254 1315 l 2,9,10
 1243 1270 1243 1270 1188 1270 c 2,11,-1
 535 1270 l 1,12,-1
 255 55 l 2,13,14
 242 0 242 0 192 0 c 2,15,-1
 100 0 l 2,0,1
EndSplineSet
EndChar

StartChar: afii10021
Encoding: 1044 1044 430
Width: 1522
GlyphClass: 2
Flags: W
AnchorPoint: "Anchor-3" 1054 1464 basechar 0
LayerCount: 2
Fore
SplineSet
-111 -370 m 2,0,1
 -151 -370 -151 -370 -140 -320 c 2,2,-1
 -41 109 l 2,3,4
 -28 164 -28 164 22 164 c 2,5,-1
 104 164 l 1,6,7
 322 369 322 369 406 618 c 128,-1,8
 490 867 490 867 546 1107 c 1,9,-1
 608 1379 l 2,10,11
 621 1434 621 1434 671 1434 c 2,12,-1
 1441 1434 l 2,13,14
 1491 1434 1491 1434 1478 1379 c 2,15,-1
 1198 164 l 1,16,-1
 1326 164 l 2,17,18
 1376 164 1376 164 1363 109 c 2,19,-1
 1264 -320 l 2,20,21
 1253 -370 1253 -370 1213 -370 c 2,22,-1
 1127 -370 l 2,23,24
 1087 -370 1087 -370 1098 -320 c 2,25,-1
 1172 0 l 1,26,-1
 100 0 l 1,27,-1
 26 -320 l 2,28,29
 15 -370 15 -370 -25 -370 c 2,30,-1
 -111 -370 l 2,0,1
314 164 m 1,31,-1
 1006 164 l 1,32,-1
 1261 1270 l 1,33,-1
 749 1270 l 1,34,-1
 699 1051 l 2,35,36
 596 601 596 601 492 410 c 128,-1,37
 388 219 388 219 314 164 c 1,31,-1
EndSplineSet
EndChar

StartChar: afii10024
Encoding: 1046 1046 432
Width: 1928
GlyphClass: 2
Flags: W
AnchorPoint: "Anchor-3" 1181 1464 basechar 0
LayerCount: 2
Fore
SplineSet
-42 0 m 2,0,1
 -102 0 -102 0 -45 66 c 2,2,-1
 337 506 l 2,3,4
 451 637 451 637 520.5 679.5 c 128,-1,5
 590 722 590 722 648 734 c 1,6,-1
 649 735 l 1,7,8
 625 745 625 745 573 799 c 128,-1,9
 521 853 521 853 485 932 c 2,10,-1
 287 1368 l 2,11,12
 257 1434 257 1434 320 1434 c 2,13,-1
 417 1434 l 2,14,15
 461 1434 461 1434 478 1395 c 2,16,-1
 642 1014 l 2,17,18
 681 923 681 923 742 868 c 128,-1,19
 803 813 803 813 906 813 c 2,20,-1
 936 813 l 1,21,-1
 1066 1379 l 2,22,23
 1079 1434 1079 1434 1129 1434 c 2,24,-1
 1221 1434 l 2,25,26
 1271 1434 1271 1434 1258 1379 c 2,27,-1
 1128 813 l 1,28,-1
 1158 813 l 2,29,30
 1257 813 1257 813 1326 869 c 128,-1,31
 1395 925 1395 925 1474 1014 c 2,32,-1
 1814 1395 l 2,33,34
 1849 1434 1849 1434 1893 1434 c 2,35,-1
 2030 1434 l 2,36,37
 2094 1434 2094 1434 2033 1368 c 2,38,-1
 1633 932 l 2,39,40
 1558 850 1558 850 1482.5 797.5 c 128,-1,41
 1407 745 1407 745 1379 735 c 1,42,-1
 1378 734 l 1,43,44
 1432 722 1432 722 1482 679.5 c 128,-1,45
 1532 637 1532 637 1585 506 c 2,46,-1
 1763 66 l 2,47,48
 1790 0 1790 0 1730 0 c 2,49,-1
 1623 0 l 2,50,51
 1576 0 1576 0 1562 39 c 2,52,-1
 1434 408 l 2,53,54
 1395 520 1395 520 1311.5 586.5 c 128,-1,55
 1228 653 1228 653 1136 653 c 2,56,-1
 1091 653 l 1,57,-1
 953 55 l 2,58,59
 940 0 940 0 890 0 c 2,60,-1
 798 0 l 2,61,62
 748 0 748 0 761 55 c 2,63,-1
 899 653 l 1,64,-1
 854 653 l 2,65,66
 768 653 768 653 669.5 585.5 c 128,-1,67
 571 518 571 518 482 408 c 2,68,-1
 184 39 l 2,69,70
 153 0 153 0 105 0 c 2,71,-1
 -42 0 l 2,0,1
EndSplineSet
EndChar

StartChar: afii10025
Encoding: 1047 1047 433
Width: 1272
GlyphClass: 2
Flags: W
AnchorPoint: "Anchor-3" 740 1464 basechar 0
LayerCount: 2
Fore
SplineSet
49 165 m 0,0,1
 4 212 4 212 40 241 c 2,2,-1
 117 303 l 2,3,4
 154 332 154 332 196 278 c 0,5,6
 231 234 231 234 324 180 c 128,-1,7
 417 126 417 126 584 126 c 0,8,9
 753 126 753 126 848 220.5 c 128,-1,10
 943 315 943 315 943 431 c 0,11,12
 943 546 943 546 864.5 610.5 c 128,-1,13
 786 675 786 675 671 675 c 2,14,-1
 511 675 l 2,15,16
 456 675 456 675 466 718 c 2,17,-1
 482 788 l 2,18,19
 492 833 492 833 547 833 c 2,20,-1
 701 833 l 2,21,22
 863 833 863 833 947.5 917.5 c 128,-1,23
 1032 1002 1032 1002 1032 1096 c 0,24,25
 1032 1206 1032 1206 939 1257 c 128,-1,26
 846 1308 846 1308 734 1308 c 0,27,28
 633 1308 633 1308 527.5 1267.5 c 128,-1,29
 422 1227 422 1227 374 1183 c 0,30,31
 327 1140 327 1140 301 1175 c 2,32,-1
 243 1252 l 2,33,34
 214 1290 214 1290 273 1333 c 0,35,36
 361 1397 361 1397 470 1430.5 c 128,-1,37
 579 1464 579 1464 739 1464 c 0,38,39
 981 1464 981 1464 1104 1359 c 128,-1,40
 1227 1254 1227 1254 1227 1110 c 0,41,42
 1227 957 1227 957 1129.5 868.5 c 128,-1,43
 1032 780 1032 780 903 754 c 1,44,-1
 902 750 l 1,45,46
 1005 729 1005 729 1076.5 642 c 128,-1,47
 1148 555 1148 555 1148 427 c 0,48,49
 1148 261 1148 261 1006 115.5 c 128,-1,50
 864 -30 864 -30 577 -30 c 0,51,52
 369 -30 369 -30 237 37.5 c 128,-1,53
 105 105 105 105 49 165 c 0,0,1
EndSplineSet
EndChar

StartChar: afii10026
Encoding: 1048 1048 434
Width: 1452
GlyphClass: 2
Flags: W
AnchorPoint: "Anchor-3" 943 1464 basechar 0
LayerCount: 2
Fore
SplineSet
100 0 m 2,0,1
 50 0 50 0 63 55 c 2,2,-1
 368 1379 l 2,3,4
 381 1434 381 1434 431 1434 c 2,5,-1
 523 1434 l 2,6,7
 573 1434 573 1434 560 1379 c 2,8,-1
 327 370 l 2,9,10
 317 325 317 325 307 290 c 1,11,-1
 311 290 l 1,12,-1
 1204 1384 l 2,13,14
 1245 1434 1245 1434 1315 1434 c 2,15,-1
 1443 1434 l 2,16,17
 1493 1434 1493 1434 1480 1379 c 2,18,-1
 1175 55 l 2,19,20
 1162 0 1162 0 1112 0 c 2,21,-1
 1020 0 l 2,22,23
 970 0 970 0 983 55 c 2,24,-1
 1216 1064 l 2,25,26
 1226 1109 1226 1109 1236 1144 c 1,27,-1
 1232 1144 l 1,28,-1
 340 50 l 2,29,30
 299 0 299 0 228 0 c 2,31,-1
 100 0 l 2,0,1
EndSplineSet
EndChar

StartChar: afii10028
Encoding: 1050 1050 436
Width: 1270
GlyphClass: 2
Flags: W
AnchorPoint: "Anchor-3" 917 1464 basechar 0
LayerCount: 2
Fore
SplineSet
100 0 m 2,0,1
 50 0 50 0 63 55 c 2,2,-1
 368 1379 l 2,3,4
 381 1434 381 1434 431 1434 c 2,5,-1
 523 1434 l 2,6,7
 573 1434 573 1434 560 1379 c 2,8,-1
 430 813 l 1,9,-1
 472 813 l 2,10,11
 586 813 586 813 657.5 870 c 128,-1,12
 729 927 729 927 808 1014 c 2,13,-1
 1156 1395 l 2,14,15
 1192 1434 1192 1434 1235 1434 c 2,16,-1
 1372 1434 l 2,17,18
 1437 1434 1437 1434 1375 1368 c 2,19,-1
 967 932 l 2,20,21
 896 856 896 856 816.5 800.5 c 128,-1,22
 737 745 737 745 709 735 c 1,23,-1
 708 734 l 1,24,25
 765 708 765 708 827 643 c 128,-1,26
 889 578 889 578 919 506 c 2,27,-1
 1105 66 l 2,28,29
 1133 0 1133 0 1072 0 c 2,30,-1
 965 0 l 2,31,32
 918 0 918 0 904 39 c 2,33,-1
 768 408 l 2,34,35
 728 516 728 516 642.5 584.5 c 128,-1,36
 557 653 557 653 450 653 c 2,37,-1
 393 653 l 1,38,-1
 255 55 l 2,39,40
 242 0 242 0 192 0 c 2,41,-1
 100 0 l 2,0,1
EndSplineSet
EndChar

StartChar: afii10029
Encoding: 1051 1051 437
Width: 1474
GlyphClass: 2
Flags: W
AnchorPoint: "Anchor-3" 1082 1464 basechar 0
LayerCount: 2
Fore
SplineSet
-46 -17 m 0,0,1
 -77 -6 -77 -6 -67 29 c 2,2,-1
 -42 112 l 2,3,4
 -31 149 -31 149 15 135 c 0,5,6
 41 127 41 127 92 127 c 0,7,8
 261 127 261 127 363.5 390.5 c 128,-1,9
 466 654 466 654 563 1077 c 2,10,-1
 632 1379 l 2,11,12
 645 1434 645 1434 695 1434 c 2,13,-1
 1465 1434 l 2,14,15
 1515 1434 1515 1434 1502 1379 c 2,16,-1
 1197 55 l 2,17,18
 1184 0 1184 0 1134 0 c 2,19,-1
 1042 0 l 2,20,21
 992 0 992 0 1005 55 c 2,22,-1
 1285 1270 l 1,23,-1
 773 1270 l 1,24,-1
 716 1021 l 2,25,26
 572 393 572 393 443.5 181.5 c 128,-1,27
 315 -30 315 -30 79 -30 c 0,28,29
 -9 -30 -9 -30 -46 -17 c 0,0,1
EndSplineSet
EndChar

StartChar: afii10033
Encoding: 1055 1055 441
Width: 1416
GlyphClass: 2
Flags: W
AnchorPoint: "Anchor-3" 925 1464 basechar 0
LayerCount: 2
Fore
SplineSet
100 0 m 2,0,1
 50 0 50 0 63 55 c 2,2,-1
 368 1379 l 2,3,4
 381 1434 381 1434 431 1434 c 2,5,-1
 1407 1434 l 2,6,7
 1457 1434 1457 1434 1444 1379 c 2,8,-1
 1139 55 l 2,9,10
 1126 0 1126 0 1076 0 c 2,11,-1
 984 0 l 2,12,13
 934 0 934 0 947 55 c 2,14,-1
 1227 1270 l 1,15,-1
 535 1270 l 1,16,-1
 255 55 l 2,17,18
 242 0 242 0 192 0 c 2,19,-1
 100 0 l 2,0,1
EndSplineSet
EndChar

StartChar: afii10037
Encoding: 1059 1059 445
Width: 1316
GlyphClass: 2
Flags: W
AnchorPoint: "Anchor-3" 881 1464 basechar 0
LayerCount: 2
Fore
SplineSet
262 1368 m 2,0,1
 243 1434 243 1434 304 1434 c 2,2,-1
 390 1434 l 2,3,4
 437 1434 437 1434 451 1385 c 2,5,-1
 627 746 l 2,6,7
 644 685 644 685 659 608.5 c 128,-1,8
 674 532 674 532 683 471 c 1,9,-1
 687 471 l 1,10,11
 721 549 721 549 767.5 625.5 c 128,-1,12
 814 702 814 702 852 762 c 2,13,-1
 1245 1385 l 2,14,15
 1276 1434 1276 1434 1328 1434 c 2,16,-1
 1446 1434 l 2,17,18
 1501 1434 1501 1434 1458 1368 c 2,19,-1
 781 331 l 2,20,21
 663 149 663 149 558.5 59.5 c 128,-1,22
 454 -30 454 -30 279 -30 c 0,23,24
 154 -30 154 -30 88 14 c 0,25,26
 60 32 60 32 77 65 c 2,27,-1
 118 147 l 2,28,29
 136 185 136 185 176 161 c 0,30,31
 232 127 232 127 292 127 c 0,32,33
 373 127 373 127 428 161 c 128,-1,34
 483 195 483 195 519 249 c 2,35,-1
 561 312 l 1,36,-1
 262 1368 l 2,0,1
EndSplineSet
EndChar

StartChar: afii10038
Encoding: 1060 1060 446
Width: 1728
GlyphClass: 2
Flags: W
AnchorPoint: "Anchor-3" 1083 1464 basechar 0
LayerCount: 2
Fore
SplineSet
122 650 m 0,0,1
 122 917 122 917 318 1088.5 c 128,-1,2
 514 1260 514 1260 836 1260 c 2,3,-1
 939 1260 l 1,4,-1
 968 1384 l 2,5,6
 981 1439 981 1439 1030 1439 c 2,7,-1
 1122 1439 l 2,8,9
 1172 1439 1172 1439 1160 1384 c 2,10,-1
 1131 1260 l 1,11,-1
 1174 1260 l 2,12,13
 1437 1260 1437 1260 1570 1138.5 c 128,-1,14
 1703 1017 1703 1017 1703 810 c 0,15,16
 1703 543 1703 543 1507 371.5 c 128,-1,17
 1311 200 1311 200 989 200 c 2,18,-1
 886 200 l 1,19,-1
 850 43 l 2,20,21
 837 -12 837 -12 787 -12 c 2,22,-1
 695 -12 l 2,23,24
 645 -12 645 -12 658 43 c 2,25,-1
 694 200 l 1,26,-1
 651 200 l 2,27,28
 388 200 388 200 255 321.5 c 128,-1,29
 122 443 122 443 122 650 c 0,0,1
327 630 m 0,30,31
 327 491 327 491 419 420.5 c 128,-1,32
 511 350 511 350 709 350 c 2,33,-1
 729 350 l 1,34,-1
 904 1110 l 1,35,-1
 824 1110 l 2,36,37
 619 1110 619 1110 473 988 c 128,-1,38
 327 866 327 866 327 630 c 0,30,31
921 350 m 1,39,-1
 1001 350 l 2,40,41
 1206 350 1206 350 1352 472 c 128,-1,42
 1498 594 1498 594 1498 830 c 0,43,44
 1498 969 1498 969 1406 1039.5 c 128,-1,45
 1314 1110 1314 1110 1116 1110 c 2,46,-1
 1096 1110 l 1,47,-1
 921 350 l 1,39,-1
EndSplineSet
EndChar

StartChar: afii10040
Encoding: 1062 1062 448
Width: 1486
GlyphClass: 2
Flags: W
AnchorPoint: "Anchor-3" 922 1464 basechar 0
LayerCount: 2
Fore
SplineSet
100 0 m 2,0,1
 50 0 50 0 63 55 c 2,2,-1
 368 1379 l 2,3,4
 381 1434 381 1434 431 1434 c 2,5,-1
 523 1434 l 2,6,7
 573 1434 573 1434 560 1379 c 2,8,-1
 280 164 l 1,9,-1
 966 164 l 1,10,-1
 1246 1379 l 2,11,12
 1259 1434 1259 1434 1309 1434 c 2,13,-1
 1401 1434 l 2,14,15
 1451 1434 1451 1434 1438 1379 c 2,16,-1
 1158 164 l 1,17,-1
 1290 164 l 2,18,19
 1340 164 1340 164 1327 109 c 2,20,-1
 1228 -320 l 2,21,22
 1217 -370 1217 -370 1177 -370 c 2,23,-1
 1091 -370 l 2,24,25
 1051 -370 1051 -370 1062 -320 c 2,26,-1
 1136 0 l 1,27,-1
 100 0 l 2,0,1
EndSplineSet
EndChar

StartChar: afii10041
Encoding: 1063 1063 449
Width: 1286
GlyphClass: 2
Flags: W
AnchorPoint: "Anchor-3" 836 1464 basechar 0
LayerCount: 2
Fore
SplineSet
211 912 m 2,0,-1
 318 1379 l 2,1,2
 331 1434 331 1434 381 1434 c 2,3,-1
 473 1434 l 2,4,5
 523 1434 523 1434 510 1379 c 2,6,-1
 414 960 l 2,7,8
 382 819 382 819 417.5 769.5 c 128,-1,9
 453 720 453 720 564 720 c 0,10,11
 618 720 618 720 756 739 c 128,-1,12
 894 758 894 758 988 797 c 1,13,-1
 1122 1379 l 2,14,15
 1135 1434 1135 1434 1185 1434 c 2,16,-1
 1277 1434 l 2,17,18
 1327 1434 1327 1434 1314 1379 c 2,19,-1
 1009 55 l 2,20,21
 996 0 996 0 946 0 c 2,22,-1
 854 0 l 2,23,24
 804 0 804 0 817 55 c 2,25,-1
 938 583 l 2,26,27
 948 625 948 625 959 663 c 1,28,-1
 955 663 l 1,29,30
 851 622 851 622 752.5 594 c 128,-1,31
 654 566 654 566 504 566 c 0,32,33
 342 566 342 566 260.5 668 c 128,-1,34
 179 770 179 770 211 912 c 2,0,-1
EndSplineSet
EndChar

StartChar: afii10042
Encoding: 1064 1064 450
Width: 2040
GlyphClass: 2
Flags: W
AnchorPoint: "Anchor-3" 1237 1464 basechar 0
LayerCount: 2
Fore
SplineSet
100 0 m 2,0,1
 50 0 50 0 63 55 c 2,2,-1
 368 1379 l 2,3,4
 381 1434 381 1434 431 1434 c 2,5,-1
 523 1434 l 2,6,7
 573 1434 573 1434 560 1379 c 2,8,-1
 280 164 l 1,9,-1
 842 164 l 1,10,-1
 1122 1379 l 2,11,12
 1135 1434 1135 1434 1185 1434 c 2,13,-1
 1277 1434 l 2,14,15
 1327 1434 1327 1434 1314 1379 c 2,16,-1
 1034 164 l 1,17,-1
 1596 164 l 1,18,-1
 1876 1379 l 2,19,20
 1889 1434 1889 1434 1939 1434 c 2,21,-1
 2031 1434 l 2,22,23
 2081 1434 2081 1434 2068 1379 c 2,24,-1
 1763 55 l 2,25,26
 1750 0 1750 0 1700 0 c 2,27,-1
 100 0 l 2,0,1
EndSplineSet
EndChar

StartChar: afii10043
Encoding: 1065 1065 451
Width: 2116
GlyphClass: 2
Flags: W
AnchorPoint: "Anchor-3" 1237 1464 basechar 0
LayerCount: 2
Fore
SplineSet
100 0 m 2,0,1
 50 0 50 0 63 55 c 2,2,-1
 368 1379 l 2,3,4
 381 1434 381 1434 431 1434 c 2,5,-1
 523 1434 l 2,6,7
 573 1434 573 1434 560 1379 c 2,8,-1
 280 164 l 1,9,-1
 842 164 l 1,10,-1
 1122 1379 l 2,11,12
 1135 1434 1135 1434 1185 1434 c 2,13,-1
 1277 1434 l 2,14,15
 1327 1434 1327 1434 1314 1379 c 2,16,-1
 1034 164 l 1,17,-1
 1596 164 l 1,18,-1
 1876 1379 l 2,19,20
 1889 1434 1889 1434 1939 1434 c 2,21,-1
 2031 1434 l 2,22,23
 2081 1434 2081 1434 2068 1379 c 2,24,-1
 1788 164 l 1,25,-1
 1920 164 l 2,26,27
 1970 164 1970 164 1957 109 c 2,28,-1
 1858 -320 l 2,29,30
 1847 -370 1847 -370 1807 -370 c 2,31,-1
 1721 -370 l 2,32,33
 1681 -370 1681 -370 1692 -320 c 2,34,-1
 1766 0 l 1,35,-1
 100 0 l 2,0,1
EndSplineSet
EndChar

StartChar: afii10044
Encoding: 1066 1066 452
Width: 1700
GlyphClass: 2
Flags: W
AnchorPoint: "Anchor-3" 1049 1464 basechar 0
LayerCount: 2
Fore
SplineSet
264 1270 m 2,0,1
 209 1270 209 1270 220 1315 c 2,2,-1
 237 1389 l 2,3,4
 247 1434 247 1434 302 1434 c 2,5,-1
 915 1434 l 2,6,7
 965 1434 965 1434 952 1379 c 2,8,-1
 825 828 l 1,9,-1
 1093 828 l 2,10,11
 1385 828 1385 828 1492 721.5 c 128,-1,12
 1599 615 1599 615 1599 454 c 0,13,14
 1599 270 1599 270 1439 135 c 128,-1,15
 1279 0 1279 0 942 0 c 2,16,-1
 492 0 l 2,17,18
 442 0 442 0 455 55 c 2,19,-1
 735 1270 l 1,20,-1
 264 1270 l 2,0,1
672 164 m 1,21,-1
 948 164 l 2,22,23
 1163 164 1163 164 1278.5 238 c 128,-1,24
 1394 312 1394 312 1394 444 c 0,25,26
 1394 585 1394 585 1301 624.5 c 128,-1,27
 1208 664 1208 664 1023 664 c 2,28,-1
 787 664 l 1,29,-1
 672 164 l 1,21,-1
EndSplineSet
EndChar

StartChar: afii10046
Encoding: 1068 1068 454
Width: 1308
GlyphClass: 2
Flags: W
AnchorPoint: "Anchor-3" 919 1464 basechar 0
LayerCount: 2
Fore
SplineSet
100 0 m 2,0,1
 50 0 50 0 63 55 c 2,2,-1
 368 1379 l 2,3,4
 381 1434 381 1434 431 1434 c 2,5,-1
 523 1434 l 2,6,7
 573 1434 573 1434 560 1379 c 2,8,-1
 433 828 l 1,9,-1
 701 828 l 2,10,11
 993 828 993 828 1100 721.5 c 128,-1,12
 1207 615 1207 615 1207 454 c 0,13,14
 1207 270 1207 270 1047 135 c 128,-1,15
 887 0 887 0 550 0 c 2,16,-1
 100 0 l 2,0,1
280 164 m 1,17,-1
 556 164 l 2,18,19
 771 164 771 164 886.5 238 c 128,-1,20
 1002 312 1002 312 1002 444 c 0,21,22
 1002 585 1002 585 909 624.5 c 128,-1,23
 816 664 816 664 631 664 c 2,24,-1
 395 664 l 1,25,-1
 280 164 l 1,17,-1
EndSplineSet
EndChar

StartChar: afii10047
Encoding: 1069 1069 455
Width: 1352
GlyphClass: 2
Flags: W
AnchorPoint: "Anchor-3" 745 1464 basechar 0
LayerCount: 2
Fore
SplineSet
55 191 m 0,0,1
 20 247 20 247 63 276 c 2,2,-1
 138 327 l 2,3,4
 181 356 181 356 210 309 c 0,5,6
 243 255 243 255 325.5 190.5 c 128,-1,7
 408 126 408 126 570 126 c 0,8,9
 752 126 752 126 908 252 c 128,-1,10
 1064 378 1064 378 1115 668 c 1,11,-1
 422 668 l 2,12,13
 366 668 366 668 377 713 c 2,14,-1
 395 787 l 2,15,16
 406 832 406 832 460 832 c 2,17,-1
 1130 832 l 1,18,19
 1156 1038 1156 1038 1052 1173 c 128,-1,20
 948 1308 948 1308 738 1308 c 0,21,22
 606 1308 606 1308 513 1263 c 128,-1,23
 420 1218 420 1218 375 1173 c 0,24,25
 332 1130 332 1130 304 1156 c 2,26,-1
 243 1211 l 2,27,28
 206 1245 206 1245 255 1296 c 0,29,30
 318 1362 318 1362 438 1413 c 128,-1,31
 558 1464 558 1464 745 1464 c 0,32,33
 1008 1464 1008 1464 1170.5 1319 c 128,-1,34
 1333 1174 1333 1174 1333 828 c 256,35,36
 1333 482 1333 482 1131.5 226 c 128,-1,37
 930 -30 930 -30 570 -30 c 0,38,39
 351 -30 351 -30 232.5 33 c 128,-1,40
 114 96 114 96 55 191 c 0,0,1
EndSplineSet
EndChar

StartChar: afii10048
Encoding: 1070 1070 456
Width: 2023
GlyphClass: 2
Flags: W
AnchorPoint: "Anchor-3" 1278 1464 basechar 0
LayerCount: 2
Fore
SplineSet
100 0 m 2,0,1
 50 0 50 0 63 55 c 2,2,-1
 368 1379 l 2,3,4
 381 1434 381 1434 431 1434 c 2,5,-1
 523 1434 l 2,6,7
 573 1434 573 1434 560 1379 c 2,8,-1
 433 828 l 1,9,-1
 643 828 l 1,10,11
 690 1060 690 1060 868.5 1262 c 128,-1,12
 1047 1464 1047 1464 1387 1464 c 0,13,14
 1692 1464 1692 1464 1848 1301.5 c 128,-1,15
 2004 1139 2004 1139 2004 854 c 0,16,17
 2004 454 2004 454 1790 212 c 128,-1,18
 1576 -30 1576 -30 1236 -30 c 0,19,20
 931 -30 931 -30 775 132.5 c 128,-1,21
 619 295 619 295 619 580 c 0,22,23
 619 623 619 623 621 664 c 1,24,-1
 395 664 l 1,25,-1
 255 55 l 2,26,27
 242 0 242 0 192 0 c 2,28,-1
 100 0 l 2,0,1
824 556 m 0,29,30
 824 351 824 351 930.5 238.5 c 128,-1,31
 1037 126 1037 126 1247 126 c 0,32,33
 1467 126 1467 126 1633 309.5 c 128,-1,34
 1799 493 1799 493 1799 878 c 0,35,36
 1799 1083 1799 1083 1692.5 1195.5 c 128,-1,37
 1586 1308 1586 1308 1376 1308 c 0,38,39
 1156 1308 1156 1308 990 1124.5 c 128,-1,40
 824 941 824 941 824 556 c 0,29,30
EndSplineSet
EndChar

StartChar: afii10049
Encoding: 1071 1071 457
Width: 1363
GlyphClass: 2
Flags: W
AnchorPoint: "Anchor-3" 950 1464 basechar 0
LayerCount: 2
Fore
SplineSet
18 0 m 2,0,1
 -45 0 -45 0 15 66 c 2,2,-1
 341 425 l 2,3,4
 360 446 360 446 448 526 c 128,-1,5
 536 606 536 606 607 636 c 1,6,-1
 607 638 l 1,7,8
 472 662 472 662 369 753 c 128,-1,9
 266 844 266 844 266 974 c 0,10,11
 266 1200 266 1200 439 1317 c 128,-1,12
 612 1434 612 1434 890 1434 c 2,13,-1
 1354 1434 l 2,14,15
 1404 1434 1404 1434 1391 1379 c 2,16,-1
 1086 55 l 2,17,18
 1073 0 1073 0 1023 0 c 2,19,-1
 931 0 l 2,20,21
 881 0 881 0 894 55 c 2,22,-1
 1023 613 l 1,23,-1
 922 613 l 2,24,25
 810 613 810 613 715.5 544 c 128,-1,26
 621 475 621 475 546 388 c 2,27,-1
 240 39 l 2,28,29
 206 0 206 0 161 0 c 2,30,-1
 18 0 l 2,0,1
471 996 m 0,31,32
 471 888 471 888 534 832.5 c 128,-1,33
 597 777 597 777 840 777 c 2,34,-1
 1060 777 l 1,35,-1
 1174 1270 l 1,36,-1
 866 1270 l 2,37,38
 700 1270 700 1270 585.5 1204 c 128,-1,39
 471 1138 471 1138 471 996 c 0,31,32
EndSplineSet
EndChar

StartChar: afii10066
Encoding: 1073 1073 459
Width: 1148
GlyphClass: 2
Flags: W
AnchorPoint: "Anchor-3" 790 1476 basechar 0
LayerCount: 2
Fore
SplineSet
74 452 m 0,0,1
 74 602 74 602 142.5 814 c 128,-1,2
 211 1026 211 1026 270.5 1120.5 c 128,-1,3
 330 1215 330 1215 389.5 1272 c 128,-1,4
 449 1329 449 1329 543 1375.5 c 128,-1,5
 637 1422 637 1422 736 1430 c 0,6,7
 857 1440 857 1440 912 1441 c 128,-1,8
 967 1442 967 1442 1015 1460 c 0,9,10
 1057 1476 1057 1476 1069 1495 c 128,-1,11
 1081 1514 1081 1514 1115 1514 c 2,12,-1
 1139 1514 l 2,13,14
 1174 1514 1174 1514 1168 1479 c 0,15,16
 1158 1426 1158 1426 1105.5 1370.5 c 128,-1,17
 1053 1315 1053 1315 949 1295 c 0,18,19
 904 1286 904 1286 816 1280 c 128,-1,20
 728 1274 728 1274 659.5 1267.5 c 128,-1,21
 591 1261 591 1261 540 1234 c 0,22,23
 343 1131 343 1131 254 822 c 1,24,-1
 261 818 l 1,25,26
 283 876 283 876 404.5 971.5 c 128,-1,27
 526 1067 526 1067 660 1067 c 0,28,29
 894 1067 894 1067 987 932.5 c 128,-1,30
 1080 798 1080 798 1080 648 c 0,31,32
 1080 384 1080 384 916.5 183.5 c 128,-1,33
 753 -17 753 -17 488 -17 c 0,34,35
 254 -17 254 -17 164 116.5 c 128,-1,36
 74 250 74 250 74 452 c 0,0,1
254 387 m 0,37,38
 254 262 254 262 312.5 187.5 c 128,-1,39
 371 113 371 113 501 113 c 0,40,41
 657 113 657 113 775.5 254.5 c 128,-1,42
 894 396 894 396 894 663 c 0,43,44
 894 788 894 788 835.5 862.5 c 128,-1,45
 777 937 777 937 647 937 c 0,46,47
 491 937 491 937 372.5 795.5 c 128,-1,48
 254 654 254 654 254 387 c 0,37,38
EndSplineSet
EndChar

StartChar: afii10067
Encoding: 1074 1074 460
Width: 1060
GlyphClass: 2
Flags: W
AnchorPoint: "Anchor-3" 656 1067 basechar 0
LayerCount: 2
Fore
SplineSet
72 404 m 0,0,1
 72 616 72 616 202 841.5 c 128,-1,2
 332 1067 332 1067 656 1067 c 0,3,4
 769 1067 769 1067 857 1013.5 c 128,-1,5
 945 960 945 960 945 848 c 0,6,7
 945 762 945 762 900.5 694 c 128,-1,8
 856 626 856 626 708 570 c 1,9,-1
 708 568 l 1,10,11
 812 555 812 555 866 482.5 c 128,-1,12
 920 410 920 410 920 305 c 0,13,14
 920 154 920 154 797 68.5 c 128,-1,15
 674 -17 674 -17 446 -17 c 0,16,17
 284 -17 284 -17 178 79.5 c 128,-1,18
 72 176 72 176 72 404 c 0,0,1
258 357 m 0,19,20
 258 248 258 248 300 180.5 c 128,-1,21
 342 113 342 113 472 113 c 0,22,23
 578 113 578 113 656 156.5 c 128,-1,24
 734 200 734 200 734 322 c 0,25,26
 734 396 734 396 681 438.5 c 128,-1,27
 628 481 628 481 548 481 c 0,28,29
 486 481 486 481 408 462.5 c 128,-1,30
 330 444 330 444 264 430 c 1,31,32
 258 392 258 392 258 357 c 0,19,20
276 569 m 1,33,34
 571 630 571 630 670 678 c 128,-1,35
 769 726 769 726 769 836 c 0,36,37
 769 884 769 884 724 910.5 c 128,-1,38
 679 937 679 937 623 937 c 0,39,40
 520 937 520 937 421 853.5 c 128,-1,41
 322 770 322 770 276 569 c 1,33,34
EndSplineSet
Substitution2: "'ss01' Style Set 1 lookup 7 subtable" ve.alt
EndChar

StartChar: afii10068
Encoding: 1075 1075 461
Width: 904
GlyphClass: 2
Flags: W
AnchorPoint: "Anchor-3" 593 1067 basechar 0
LayerCount: 2
Fore
SplineSet
20 226 m 256,0,1
 20 296 20 296 42 339 c 128,-1,2
 64 382 64 382 111 436 c 128,-1,3
 158 490 158 490 248 529 c 0,4,5
 313 557 313 557 390 586 c 128,-1,6
 467 615 467 615 530 648 c 0,7,8
 590 679 590 679 611 702.5 c 128,-1,9
 632 726 632 726 640.5 754 c 128,-1,10
 649 782 649 782 649 806 c 0,11,12
 649 836 649 836 638.5 860 c 128,-1,13
 628 884 628 884 596 910.5 c 128,-1,14
 564 937 564 937 499 937 c 0,15,16
 428 937 428 937 364 913.5 c 128,-1,17
 300 890 300 890 258 858 c 0,18,19
 225 833 225 833 206 854 c 2,20,-1
 166 900 l 2,21,22
 146 923 146 923 184 956 c 0,23,24
 238 1002 238 1002 328 1034.5 c 128,-1,25
 418 1067 418 1067 519 1067 c 0,26,27
 638 1067 638 1067 699 1027.5 c 128,-1,28
 760 988 760 988 792.5 934.5 c 128,-1,29
 825 881 825 881 825 821 c 0,30,31
 825 736 825 736 804.5 688 c 128,-1,32
 784 640 784 640 735 596 c 128,-1,33
 686 552 686 552 603 514 c 0,34,35
 538 484 538 484 476.5 463 c 128,-1,36
 415 442 415 442 334 401 c 0,37,38
 272 370 272 370 249 345 c 128,-1,39
 226 320 226 320 216 293.5 c 128,-1,40
 206 267 206 267 206 232 c 256,41,42
 206 197 206 197 220 170.5 c 128,-1,43
 234 144 234 144 264 128.5 c 128,-1,44
 294 113 294 113 372 113 c 0,45,46
 432 113 432 113 516 143.5 c 128,-1,47
 600 174 600 174 672 233 c 0,48,49
 702 258 702 258 724 236 c 2,50,-1
 770 190 l 2,51,52
 797 163 797 163 768 137 c 0,53,54
 672 48 672 48 572 15.5 c 128,-1,55
 472 -17 472 -17 350 -17 c 0,56,57
 210 -17 210 -17 146 20.5 c 128,-1,58
 82 58 82 58 51 107 c 128,-1,59
 20 156 20 156 20 226 c 256,0,1
EndSplineSet
Substitution2: "'locl' Localized Forms in Cyrillic lookup 6 subtable" ghe.ital
EndChar

StartChar: afii10069
Encoding: 1076 1076 462
Width: 1155
GlyphClass: 2
Flags: W
AnchorPoint: "Anchor-3" 796 1476 basechar 0
LayerCount: 2
Fore
SplineSet
68 402 m 0,0,1
 68 654 68 654 236.5 860.5 c 128,-1,2
 405 1067 405 1067 670 1067 c 0,3,4
 764 1067 764 1067 836.5 1029.5 c 128,-1,5
 909 992 909 992 939 947 c 1,6,-1
 943 947 l 1,7,8
 945 981 945 981 945 1028 c 0,9,10
 945 1173 945 1173 882.5 1268 c 128,-1,11
 820 1363 820 1363 691 1363 c 0,12,13
 626 1363 626 1363 560 1339.5 c 128,-1,14
 494 1316 494 1316 462 1288 c 0,15,16
 428 1258 428 1258 406 1290 c 2,17,-1
 376 1333 l 2,18,19
 351 1368 351 1368 382 1393 c 0,20,21
 430 1432 430 1432 518 1462.5 c 128,-1,22
 606 1493 606 1493 710 1493 c 0,23,24
 898 1493 898 1493 1009.5 1367.5 c 128,-1,25
 1121 1242 1121 1242 1121 988 c 0,26,27
 1121 453 1121 453 940.5 218 c 128,-1,28
 760 -17 760 -17 488 -17 c 0,29,30
 262 -17 262 -17 165 99.5 c 128,-1,31
 68 216 68 216 68 402 c 0,0,1
254 387 m 0,32,33
 254 243 254 243 315 178 c 128,-1,34
 376 113 376 113 501 113 c 0,35,36
 637 113 637 113 773.5 254.5 c 128,-1,37
 910 396 910 396 910 663 c 0,38,39
 910 770 910 770 848.5 853.5 c 128,-1,40
 787 937 787 937 657 937 c 0,41,42
 501 937 501 937 377.5 791 c 128,-1,43
 254 645 254 645 254 387 c 0,32,33
EndSplineSet
Substitution2: "'locl' Localized Forms in Cyrillic lookup 6 subtable" de.ital
EndChar

StartChar: afii10072
Encoding: 1078 1078 464
Width: 1458
GlyphClass: 2
Flags: W
AnchorPoint: "Anchor-3" 855 1067 basechar 0
LayerCount: 2
Fore
SplineSet
-29 0 m 2,0,1
 -90 0 -90 0 -41 59 c 2,2,-1
 230 384 l 2,3,4
 301 469 301 469 346.5 500.5 c 128,-1,5
 392 532 392 532 446 552 c 1,6,-1
 447 554 l 1,7,8
 406 566 406 566 377.5 608 c 128,-1,9
 349 650 349 650 324 706 c 2,10,-1
 197 991 l 2,11,12
 171 1050 171 1050 236 1050 c 2,13,-1
 311 1050 l 2,14,15
 348 1050 348 1050 358 1024 c 2,16,-1
 462 760 l 2,17,18
 476 724 476 724 530.5 669 c 128,-1,19
 585 614 585 614 638 614 c 2,20,-1
 663 614 l 1,21,-1
 753 1005 l 2,22,23
 763 1050 763 1050 808 1050 c 2,24,-1
 894 1050 l 2,25,26
 939 1050 939 1050 929 1005 c 2,27,-1
 839 614 l 1,28,-1
 864 614 l 2,29,30
 917 614 917 614 978.5 667.5 c 128,-1,31
 1040 721 1040 721 1074 760 c 2,32,-1
 1300 1024 l 2,33,34
 1322 1050 1322 1050 1359 1050 c 2,35,-1
 1466 1050 l 2,36,37
 1533 1050 1533 1050 1479 991 c 2,38,-1
 1220 706 l 2,39,40
 1179 661 1179 661 1115.5 611.5 c 128,-1,41
 1052 562 1052 562 1027 554 c 1,42,-1
 1026 552 l 1,43,44
 1072 532 1072 532 1103.5 499.5 c 128,-1,45
 1135 467 1135 467 1166 384 c 2,46,-1
 1287 59 l 2,47,48
 1309 0 1309 0 1247 0 c 2,49,-1
 1168 0 l 2,50,51
 1133 0 1133 0 1120 37 c 2,52,-1
 1010 358 l 2,53,54
 983 438 983 438 939.5 460 c 128,-1,55
 896 482 896 482 834 482 c 2,56,-1
 808 482 l 1,57,-1
 707 45 l 2,58,59
 697 0 697 0 652 0 c 2,60,-1
 566 0 l 2,61,62
 521 0 521 0 531 45 c 2,63,-1
 632 482 l 1,64,-1
 606 482 l 2,65,66
 544 482 544 482 509 460 c 128,-1,67
 474 438 474 438 410 358 c 2,68,-1
 152 37 l 2,69,70
 122 0 122 0 86 0 c 2,71,-1
 -29 0 l 2,0,1
EndSplineSet
EndChar

StartChar: afii10073
Encoding: 1079 1079 465
Width: 982
GlyphClass: 2
Flags: W
AnchorPoint: "Anchor-3" 544 1067 basechar 0
LayerCount: 2
Fore
SplineSet
27 119 m 0,0,1
 1 152 1 152 29 174 c 2,2,-1
 89 223 l 2,3,4
 116 245 116 245 142 213 c 0,5,6
 157 195 157 195 221.5 154 c 128,-1,7
 286 113 286 113 386 113 c 0,8,9
 518 113 518 113 592 181.5 c 128,-1,10
 666 250 666 250 666 333 c 0,11,12
 666 422 666 422 608 452.5 c 128,-1,13
 550 483 550 483 447 483 c 2,14,-1
 333 483 l 2,15,16
 288 483 288 483 296 518 c 2,17,-1
 309 578 l 2,18,19
 317 613 317 613 363 613 c 2,20,-1
 464 613 l 2,21,22
 586 613 586 613 658 666 c 128,-1,23
 730 719 730 719 730 800 c 0,24,25
 730 863 730 863 673 900 c 128,-1,26
 616 937 616 937 508 937 c 0,27,28
 438 937 438 937 377 913.5 c 128,-1,29
 316 890 316 890 288 864 c 0,30,31
 252 830 252 830 233 848 c 2,32,-1
 183 896 l 2,33,34
 151 927 151 927 190 962 c 0,35,36
 238 1006 238 1006 316 1036.5 c 128,-1,37
 394 1067 394 1067 544 1067 c 0,38,39
 740 1067 740 1067 823 992.5 c 128,-1,40
 906 918 906 918 906 819 c 0,41,42
 906 696 906 696 823.5 630 c 128,-1,43
 741 564 741 564 688 551 c 1,44,-1
 688 548 l 1,45,46
 762 532 762 532 807 476.5 c 128,-1,47
 852 421 852 421 852 324 c 0,48,49
 852 192 852 192 726 87.5 c 128,-1,50
 600 -17 600 -17 387 -17 c 0,51,52
 219 -17 219 -17 132 39.5 c 128,-1,53
 45 96 45 96 27 119 c 0,0,1
EndSplineSet
EndChar

StartChar: afii10076
Encoding: 1082 1082 468
Width: 989
GlyphClass: 2
Flags: W
AnchorPoint: "Anchor-3" 666 1067 basechar 0
LayerCount: 2
Fore
SplineSet
67 0 m 2,0,1
 22 0 22 0 32 45 c 2,2,-1
 254 1005 l 2,3,4
 264 1050 264 1050 309 1050 c 2,5,-1
 395 1050 l 2,6,7
 440 1050 440 1050 430 1005 c 2,8,-1
 340 614 l 1,9,-1
 381 614 l 2,10,11
 434 614 434 614 500 667 c 128,-1,12
 566 720 566 720 601 760 c 2,13,-1
 831 1024 l 2,14,15
 854 1050 854 1050 890 1050 c 2,16,-1
 997 1050 l 2,17,18
 1065 1050 1065 1050 1010 991 c 2,19,-1
 740 700 l 2,20,21
 713 671 713 671 644.5 618.5 c 128,-1,22
 576 566 576 566 541 554 c 1,23,-1
 540 552 l 1,24,25
 593 533 593 533 626.5 501.5 c 128,-1,26
 660 470 660 470 693 384 c 2,27,-1
 818 59 l 2,28,29
 841 0 841 0 778 0 c 2,30,-1
 698 0 l 2,31,32
 663 0 663 0 650 37 c 2,33,-1
 537 358 l 2,34,35
 511 433 511 433 462 457.5 c 128,-1,36
 413 482 413 482 351 482 c 2,37,-1
 309 482 l 1,38,-1
 208 45 l 2,39,40
 198 0 198 0 153 0 c 2,41,-1
 67 0 l 2,0,1
EndSplineSet
EndChar

StartChar: afii10077
Encoding: 1083 1083 469
Width: 1136
GlyphClass: 2
Flags: W
AnchorPoint: "Anchor-3" 964 1067 basechar 0
LayerCount: 2
Fore
SplineSet
-60 -8 m 0,0,1
 -78 0 -78 0 -70 22 c 2,2,-1
 -41 105 l 2,3,4
 -34 125 -34 125 -12 119 c 256,5,6
 10 113 10 113 30 113 c 0,7,8
 138 113 138 113 219 266.5 c 128,-1,9
 300 420 300 420 354 660 c 2,10,-1
 375 754 l 2,11,12
 405 888 405 888 504.5 969 c 128,-1,13
 604 1050 604 1050 849 1050 c 2,14,-1
 1071 1050 l 2,15,16
 1116 1050 1116 1050 1106 1005 c 2,17,-1
 884 45 l 2,18,19
 874 0 874 0 829 0 c 2,20,-1
 743 0 l 2,21,22
 698 0 698 0 708 45 c 2,23,-1
 910 918 l 1,24,-1
 874 918 l 2,25,26
 700 918 700 918 621.5 868 c 128,-1,27
 543 818 543 818 514 691 c 2,28,-1
 495 607 l 2,29,30
 427 306 427 306 321.5 144.5 c 128,-1,31
 216 -17 216 -17 22 -17 c 0,32,33
 -41 -17 -41 -17 -60 -8 c 0,0,1
EndSplineSet
Substitution2: "'ss01' Style Set 1 lookup 7 subtable" el.alt
EndChar

StartChar: afii10078
Encoding: 1084 1084 470
Width: 1422
GlyphClass: 2
Flags: W
AnchorPoint: "Anchor-3" 837 1067 basechar 0
LayerCount: 2
Fore
SplineSet
67 0 m 2,0,1
 22 0 22 0 32 45 c 2,2,-1
 254 1005 l 2,3,4
 264 1050 264 1050 309 1050 c 2,5,-1
 489 1050 l 2,6,7
 520 1050 520 1050 525 1011 c 2,8,-1
 602 351 l 2,9,10
 604 330 604 330 611 274 c 128,-1,11
 618 218 618 218 618 168 c 1,12,-1
 622 168 l 1,13,14
 646 218 646 218 678 274 c 128,-1,15
 710 330 710 330 722 351 c 2,16,-1
 1103 1011 l 2,17,18
 1126 1050 1126 1050 1157 1050 c 2,19,-1
 1357 1050 l 2,20,21
 1402 1050 1402 1050 1392 1005 c 2,22,-1
 1170 45 l 2,23,24
 1160 0 1160 0 1115 0 c 2,25,-1
 1029 0 l 2,26,27
 984 0 984 0 994 45 c 2,28,-1
 1169 800 l 2,29,30
 1176 829 1176 829 1185 860 c 1,31,-1
 1183 860 l 1,32,-1
 698 61 l 2,33,34
 661 0 661 0 630 0 c 2,35,-1
 552 0 l 2,36,37
 521 0 521 0 512 61 c 2,38,-1
 397 860 l 1,39,-1
 395 860 l 1,40,41
 390 831 390 831 383 800 c 2,42,-1
 208 45 l 2,43,44
 198 0 198 0 153 0 c 2,45,-1
 67 0 l 2,0,1
EndSplineSet
EndChar

StartChar: afii10079
Encoding: 1085 1085 471
Width: 1120
GlyphClass: 2
Flags: W
AnchorPoint: "Anchor-3" 686 1067 basechar 0
LayerCount: 2
Fore
SplineSet
67 0 m 2,0,1
 22 0 22 0 32 45 c 2,2,-1
 254 1005 l 2,3,4
 264 1050 264 1050 309 1050 c 2,5,-1
 395 1050 l 2,6,7
 440 1050 440 1050 430 1005 c 2,8,-1
 340 614 l 1,9,-1
 824 614 l 1,10,-1
 914 1005 l 2,11,12
 924 1050 924 1050 969 1050 c 2,13,-1
 1055 1050 l 2,14,15
 1100 1050 1100 1050 1090 1005 c 2,16,-1
 868 45 l 2,17,18
 858 0 858 0 813 0 c 2,19,-1
 727 0 l 2,20,21
 682 0 682 0 692 45 c 2,22,-1
 793 482 l 1,23,-1
 309 482 l 1,24,-1
 208 45 l 2,25,26
 198 0 198 0 153 0 c 2,27,-1
 67 0 l 2,0,1
EndSplineSet
EndChar

StartChar: afii10086
Encoding: 1092 1092 478
Width: 1638
GlyphClass: 2
Flags: W
AnchorPoint: "Anchor-3" 1039 1476 basechar 0
LayerCount: 2
Fore
SplineSet
70 415 m 0,0,1
 70 644 70 644 233 855.5 c 128,-1,2
 396 1067 396 1067 597 1067 c 0,3,4
 690 1067 690 1067 741 1031.5 c 128,-1,5
 792 996 792 996 824 925 c 1,6,-1
 826 925 l 1,7,8
 831 954 831 954 838 985 c 2,9,-1
 933 1395 l 2,10,11
 943 1440 943 1440 988 1440 c 2,12,-1
 1074 1440 l 2,13,14
 1119 1440 1119 1440 1109 1395 c 2,15,-1
 1010 965 l 2,16,17
 1005 941 1005 941 994 905 c 1,18,-1
 996 905 l 1,19,20
 1044 984 1044 984 1116 1025.5 c 128,-1,21
 1188 1067 1188 1067 1269 1067 c 0,22,23
 1418 1067 1418 1067 1494 952.5 c 128,-1,24
 1570 838 1570 838 1570 635 c 0,25,26
 1570 406 1570 406 1407 194.5 c 128,-1,27
 1244 -17 1244 -17 1043 -17 c 0,28,29
 950 -17 950 -17 899 18.5 c 128,-1,30
 848 54 848 54 816 125 c 1,31,-1
 814 125 l 1,32,33
 809 93 809 93 802 65 c 2,34,-1
 705 -355 l 2,35,36
 695 -400 695 -400 650 -400 c 2,37,-1
 564 -400 l 2,38,39
 519 -400 519 -400 529 -355 c 2,40,-1
 630 85 l 2,41,42
 635 108 635 108 646 145 c 1,43,-1
 644 145 l 1,44,45
 596 66 596 66 524 24.5 c 128,-1,46
 452 -17 452 -17 371 -17 c 0,47,48
 222 -17 222 -17 146 97.5 c 128,-1,49
 70 212 70 212 70 415 c 0,0,1
256 405 m 0,50,51
 256 225 256 225 308 169 c 128,-1,52
 360 113 360 113 416 113 c 0,53,54
 507 113 507 113 595.5 215 c 128,-1,55
 684 317 684 317 715 452 c 2,56,-1
 785 755 l 1,57,58
 785 836 785 836 741.5 886.5 c 128,-1,59
 698 937 698 937 632 937 c 0,60,61
 456 937 456 937 356 762.5 c 128,-1,62
 256 588 256 588 256 405 c 0,50,51
855 295 m 1,63,64
 855 214 855 214 898.5 163.5 c 128,-1,65
 942 113 942 113 1008 113 c 0,66,67
 1184 113 1184 113 1284 287.5 c 128,-1,68
 1384 462 1384 462 1384 645 c 0,69,70
 1384 825 1384 825 1332 881 c 128,-1,71
 1280 937 1280 937 1224 937 c 0,72,73
 1133 937 1133 937 1044.5 835 c 128,-1,74
 956 733 956 733 925 598 c 2,75,-1
 855 295 l 1,63,64
EndSplineSet
EndChar

StartChar: afii10088
Encoding: 1094 1094 480
Width: 1132
GlyphClass: 2
Flags: W
AnchorPoint: "Anchor-3" 685 1067 basechar 0
LayerCount: 2
Fore
SplineSet
104 366 m 2,0,-1
 252 1005 l 2,1,2
 262 1050 262 1050 307 1050 c 2,3,-1
 393 1050 l 2,4,5
 438 1050 438 1050 428 1005 c 2,6,-1
 292 414 l 2,7,8
 247 217 247 217 295 165 c 128,-1,9
 343 113 343 113 448 113 c 0,10,11
 595 113 595 113 678 229.5 c 128,-1,12
 761 346 761 346 796 496 c 2,13,-1
 914 1005 l 2,14,15
 924 1050 924 1050 969 1050 c 2,16,-1
 1055 1050 l 2,17,18
 1100 1050 1100 1050 1090 1005 c 2,19,-1
 917 256 l 2,20,21
 904 200 904 200 904 166 c 128,-1,22
 904 132 904 132 948 132 c 2,23,-1
 1009 132 l 2,24,25
 1054 132 1054 132 1044 87 c 2,26,-1
 954 -305 l 2,27,28
 944 -350 944 -350 903 -350 c 2,29,-1
 829 -350 l 2,30,31
 790 -350 790 -350 800 -305 c 2,32,-1
 870 0 l 1,33,-1
 848 0 l 2,34,35
 779 0 779 0 750.5 39 c 128,-1,36
 722 78 722 78 722 165 c 1,37,-1
 718 165 l 1,38,39
 659 92 659 92 563.5 37.5 c 128,-1,40
 468 -17 468 -17 353 -17 c 0,41,42
 193 -17 193 -17 128 85.5 c 128,-1,43
 63 188 63 188 104 366 c 2,0,-1
EndSplineSet
EndChar

StartChar: afii10089
Encoding: 1095 1095 481
Width: 1060
GlyphClass: 2
Flags: W
AnchorPoint: "Anchor-3" 637 1067 basechar 0
LayerCount: 2
Fore
SplineSet
147 706 m 2,0,-1
 216 1005 l 2,1,2
 226 1050 226 1050 271 1050 c 2,3,-1
 357 1050 l 2,4,5
 402 1050 402 1050 392 1005 c 2,6,-1
 329 734 l 2,7,8
 301 610 301 610 339.5 576.5 c 128,-1,9
 378 543 378 543 459 543 c 0,10,11
 564 543 564 543 641 555 c 128,-1,12
 718 567 718 567 762 605 c 1,13,-1
 854 1005 l 2,14,15
 864 1050 864 1050 909 1050 c 2,16,-1
 995 1050 l 2,17,18
 1040 1050 1040 1050 1030 1005 c 2,19,-1
 808 45 l 2,20,21
 798 0 798 0 753 0 c 2,22,-1
 667 0 l 2,23,24
 622 0 622 0 632 45 c 2,25,-1
 716 409 l 2,26,27
 722 436 722 436 732 469 c 1,28,-1
 728 469 l 1,29,30
 699 444 699 444 600.5 428.5 c 128,-1,31
 502 413 502 413 404 413 c 0,32,33
 268 413 268 413 191 489 c 128,-1,34
 114 565 114 565 147 706 c 2,0,-1
EndSplineSet
EndChar

StartChar: afii10090
Encoding: 1096 1096 482
Width: 1678
GlyphClass: 2
Flags: W
AnchorPoint: "Anchor-3" 964 1067 basechar 0
LayerCount: 2
Fore
SplineSet
104 366 m 2,0,-1
 252 1005 l 2,1,2
 262 1050 262 1050 307 1050 c 2,3,-1
 393 1050 l 2,4,5
 438 1050 438 1050 428 1005 c 2,6,-1
 293 424 l 2,7,8
 248 229 248 229 280 171 c 128,-1,9
 312 113 312 113 422 113 c 0,10,11
 512 113 512 113 611.5 233.5 c 128,-1,12
 711 354 711 354 744 496 c 2,13,-1
 862 1005 l 2,14,15
 872 1050 872 1050 917 1050 c 2,16,-1
 1003 1050 l 2,17,18
 1048 1050 1048 1050 1038 1005 c 2,19,-1
 903 424 l 2,20,21
 858 229 858 229 890 171 c 128,-1,22
 922 113 922 113 1032 113 c 0,23,24
 1122 113 1122 113 1220.5 229.5 c 128,-1,25
 1319 346 1319 346 1354 496 c 2,26,-1
 1472 1005 l 2,27,28
 1482 1050 1482 1050 1527 1050 c 2,29,-1
 1613 1050 l 2,30,31
 1658 1050 1658 1050 1648 1005 c 2,32,-1
 1426 45 l 2,33,34
 1416 0 1416 0 1371 0 c 2,35,-1
 1287 0 l 2,36,37
 1242 0 1242 0 1252 45 c 2,38,-1
 1279 165 l 1,39,-1
 1275 165 l 1,40,41
 1216 93 1216 93 1126.5 38 c 128,-1,42
 1037 -17 1037 -17 947 -17 c 0,43,44
 837 -17 837 -17 774.5 52.5 c 128,-1,45
 712 122 712 122 712 217 c 1,46,-1
 708 217 l 1,47,48
 645 135 645 135 548.5 59 c 128,-1,49
 452 -17 452 -17 337 -17 c 0,50,51
 197 -17 197 -17 130 85.5 c 128,-1,52
 63 188 63 188 104 366 c 2,0,-1
EndSplineSet
EndChar

StartChar: afii10091
Encoding: 1097 1097 483
Width: 1690
GlyphClass: 2
Flags: W
AnchorPoint: "Anchor-3" 964 1067 basechar 0
LayerCount: 2
Fore
SplineSet
104 366 m 2,0,-1
 252 1005 l 2,1,2
 262 1050 262 1050 307 1050 c 2,3,-1
 393 1050 l 2,4,5
 438 1050 438 1050 428 1005 c 2,6,-1
 293 424 l 2,7,8
 248 229 248 229 280 171 c 128,-1,9
 312 113 312 113 422 113 c 0,10,11
 512 113 512 113 611.5 233.5 c 128,-1,12
 711 354 711 354 744 496 c 2,13,-1
 862 1005 l 2,14,15
 872 1050 872 1050 917 1050 c 2,16,-1
 1003 1050 l 2,17,18
 1048 1050 1048 1050 1038 1005 c 2,19,-1
 903 424 l 2,20,21
 858 229 858 229 890 171 c 128,-1,22
 922 113 922 113 1032 113 c 0,23,24
 1122 113 1122 113 1220.5 229.5 c 128,-1,25
 1319 346 1319 346 1354 496 c 2,26,-1
 1472 1005 l 2,27,28
 1482 1050 1482 1050 1527 1050 c 2,29,-1
 1613 1050 l 2,30,31
 1658 1050 1658 1050 1648 1005 c 2,32,-1
 1475 256 l 2,33,34
 1462 200 1462 200 1462 166 c 128,-1,35
 1462 132 1462 132 1506 132 c 2,36,-1
 1567 132 l 2,37,38
 1612 132 1612 132 1602 87 c 2,39,-1
 1512 -305 l 2,40,41
 1502 -350 1502 -350 1461 -350 c 2,42,-1
 1387 -350 l 2,43,44
 1348 -350 1348 -350 1358 -305 c 2,45,-1
 1428 0 l 1,46,-1
 1406 0 l 2,47,48
 1337 0 1337 0 1308.5 39 c 128,-1,49
 1280 78 1280 78 1280 165 c 1,50,-1
 1275 165 l 1,51,52
 1216 93 1216 93 1126.5 38 c 128,-1,53
 1037 -17 1037 -17 947 -17 c 0,54,55
 837 -17 837 -17 774.5 52.5 c 128,-1,56
 712 122 712 122 712 217 c 1,57,-1
 708 217 l 1,58,59
 645 135 645 135 548.5 59 c 128,-1,60
 452 -17 452 -17 337 -17 c 0,61,62
 197 -17 197 -17 130 85.5 c 128,-1,63
 63 188 63 188 104 366 c 2,0,-1
EndSplineSet
EndChar

StartChar: afii10092
Encoding: 1098 1098 484
Width: 1285
GlyphClass: 2
Flags: W
AnchorPoint: "Anchor-3" 760 1067 basechar 0
LayerCount: 2
Fore
SplineSet
187 920 m 2,0,1
 142 920 142 920 150 955 c 2,2,-1
 164 1015 l 2,3,4
 172 1050 172 1050 217 1050 c 2,5,-1
 663 1050 l 2,6,7
 708 1050 708 1050 698 1005 c 2,8,-1
 616 649 l 2,9,10
 606 610 606 610 598 588 c 1,11,-1
 600 588 l 1,12,13
 646 638 646 638 705 659 c 128,-1,14
 764 680 764 680 854 680 c 0,15,16
 1016 680 1016 680 1093 587 c 128,-1,17
 1170 494 1170 494 1170 354 c 0,18,19
 1170 208 1170 208 1055 95.5 c 128,-1,20
 940 -17 940 -17 680 -17 c 0,21,22
 504 -17 504 -17 423.5 107.5 c 128,-1,23
 343 232 343 232 392 444 c 2,24,-1
 502 920 l 1,25,-1
 187 920 l 2,0,1
552 370 m 0,26,27
 523 244 523 244 570.5 178.5 c 128,-1,28
 618 113 618 113 717 113 c 0,29,30
 842 113 842 113 913 178.5 c 128,-1,31
 984 244 984 244 984 366 c 0,32,33
 984 442 984 442 939 496 c 128,-1,34
 894 550 894 550 800 550 c 0,35,36
 698 550 698 550 633.5 496 c 128,-1,37
 569 442 569 442 552 370 c 0,26,27
EndSplineSet
Substitution2: "'ss01' Style Set 1 lookup 7 subtable" hard.alt
EndChar

StartChar: afii10094
Encoding: 1100 1100 486
Width: 1017
GlyphClass: 2
Flags: W
AnchorPoint: "Anchor-3" 672 1067 basechar 0
LayerCount: 2
Fore
SplineSet
124 444 m 2,0,-1
 254 1005 l 2,1,2
 264 1050 264 1050 309 1050 c 2,3,-1
 395 1050 l 2,4,5
 440 1050 440 1050 430 1005 c 2,6,-1
 348 649 l 2,7,8
 338 610 338 610 330 588 c 1,9,-1
 332 588 l 1,10,11
 378 638 378 638 437 659 c 128,-1,12
 496 680 496 680 586 680 c 0,13,14
 748 680 748 680 825 587 c 128,-1,15
 902 494 902 494 902 354 c 0,16,17
 902 208 902 208 787 95.5 c 128,-1,18
 672 -17 672 -17 412 -17 c 0,19,20
 236 -17 236 -17 155.5 107.5 c 128,-1,21
 75 232 75 232 124 444 c 2,0,-1
284 370 m 0,22,23
 255 244 255 244 302.5 178.5 c 128,-1,24
 350 113 350 113 449 113 c 0,25,26
 574 113 574 113 645 178.5 c 128,-1,27
 716 244 716 244 716 366 c 0,28,29
 716 442 716 442 671 496 c 128,-1,30
 626 550 626 550 532 550 c 0,31,32
 430 550 430 550 365.5 496 c 128,-1,33
 301 442 301 442 284 370 c 0,22,23
EndSplineSet
Substitution2: "'ss01' Style Set 1 lookup 7 subtable" soft.alt
EndChar

StartChar: afii10095
Encoding: 1101 1101 487
Width: 1026
GlyphClass: 2
Flags: W
AnchorPoint: "Anchor-3" 537 1067 basechar 0
LayerCount: 2
Fore
SplineSet
16 154 m 0,0,1
 -2 190 -2 190 23 208 c 2,2,-1
 79 249 l 2,3,4
 109 271 109 271 140 225 c 0,5,6
 166 186 166 186 222 149.5 c 128,-1,7
 278 113 278 113 369 113 c 0,8,9
 515 113 515 113 617.5 210 c 128,-1,10
 720 307 720 307 756 482 c 1,11,-1
 298 482 l 2,12,13
 253 482 253 482 261 517 c 2,14,-1
 275 577 l 2,15,16
 283 612 283 612 328 612 c 2,17,-1
 772 612 l 1,18,19
 785 757 785 757 726.5 847 c 128,-1,20
 668 937 668 937 524 937 c 0,21,22
 438 937 438 937 370 908.5 c 128,-1,23
 302 880 302 880 270 846 c 0,24,25
 236 810 236 810 216 829 c 2,26,-1
 164 876 l 2,27,28
 132 904 132 904 168 941 c 0,29,30
 218 994 218 994 314 1030.5 c 128,-1,31
 410 1067 410 1067 537 1067 c 0,32,33
 762 1067 762 1067 860 942 c 128,-1,34
 958 817 958 817 958 645 c 0,35,36
 958 389 958 389 798 186 c 128,-1,37
 638 -17 638 -17 356 -17 c 0,38,39
 206 -17 206 -17 124 41.5 c 128,-1,40
 42 100 42 100 16 154 c 0,0,1
EndSplineSet
EndChar

StartChar: afii10096
Encoding: 1102 1102 488
Width: 1559
GlyphClass: 2
Flags: W
AnchorPoint: "Anchor-3" 937 1067 basechar 0
LayerCount: 2
Fore
SplineSet
67 0 m 2,0,1
 22 0 22 0 32 45 c 2,2,-1
 254 1005 l 2,3,4
 264 1050 264 1050 309 1050 c 2,5,-1
 395 1050 l 2,6,7
 440 1050 440 1050 430 1005 c 2,8,-1
 340 614 l 1,9,-1
 508 614 l 1,10,11
 541 758 541 758 684.5 912.5 c 128,-1,12
 828 1067 828 1067 1071 1067 c 0,13,14
 1305 1067 1305 1067 1398 932.5 c 128,-1,15
 1491 798 1491 798 1491 648 c 0,16,17
 1491 384 1491 384 1327.5 183.5 c 128,-1,18
 1164 -17 1164 -17 899 -17 c 0,19,20
 665 -17 665 -17 572 117.5 c 128,-1,21
 479 252 479 252 479 402 c 0,22,23
 479 443 479 443 483 482 c 1,24,-1
 309 482 l 1,25,-1
 208 45 l 2,26,27
 198 0 198 0 153 0 c 2,28,-1
 67 0 l 2,0,1
665 387 m 0,29,30
 665 262 665 262 723.5 187.5 c 128,-1,31
 782 113 782 113 912 113 c 0,32,33
 1068 113 1068 113 1186.5 254.5 c 128,-1,34
 1305 396 1305 396 1305 663 c 0,35,36
 1305 788 1305 788 1246.5 862.5 c 128,-1,37
 1188 937 1188 937 1058 937 c 0,38,39
 902 937 902 937 783.5 795.5 c 128,-1,40
 665 654 665 654 665 387 c 0,29,30
EndSplineSet
EndChar

StartChar: afii10097
Encoding: 1103 1103 489
Width: 1084
GlyphClass: 2
Flags: W
AnchorPoint: "Anchor-3" 637 1067 basechar 0
LayerCount: 2
Fore
SplineSet
1 0 m 2,0,1
 -68 0 -68 0 -11 59 c 2,2,-1
 236 314 l 2,3,4
 267 346 267 346 331.5 397 c 128,-1,5
 396 448 396 448 436 460 c 1,6,-1
 437 462 l 1,7,8
 298 488 298 488 248.5 556 c 128,-1,9
 199 624 199 624 199 713 c 0,10,11
 199 874 199 874 308.5 962 c 128,-1,12
 418 1050 418 1050 652 1050 c 2,13,-1
 1019 1050 l 2,14,15
 1064 1050 1064 1050 1054 1005 c 2,16,-1
 832 45 l 2,17,18
 822 0 822 0 777 0 c 2,19,-1
 691 0 l 2,20,21
 646 0 646 0 656 45 c 2,22,-1
 746 432 l 1,23,-1
 662 432 l 2,24,25
 606 432 606 432 552.5 398 c 128,-1,26
 499 364 499 364 428 288 c 2,27,-1
 195 37 l 2,28,29
 161 0 161 0 129 0 c 2,30,-1
 1 0 l 2,0,1
385 728 m 0,31,32
 385 630 385 630 445.5 596 c 128,-1,33
 506 562 506 562 625 562 c 2,34,-1
 776 562 l 1,35,-1
 858 919 l 1,36,-1
 668 919 l 2,37,38
 526 919 526 919 455.5 873.5 c 128,-1,39
 385 828 385 828 385 728 c 0,31,32
EndSplineSet
EndChar

StartChar: afii10099
Encoding: 1106 1106 491
Width: 1156
GlyphClass: 2
Flags: W
LayerCount: 2
Fore
SplineSet
187 918 m 2,0,1
 142 918 142 918 150 953 c 2,2,-1
 164 1015 l 2,3,4
 172 1050 172 1050 217 1050 c 2,5,-1
 354 1050 l 1,6,-1
 442 1431 l 2,7,8
 452 1476 452 1476 498 1476 c 2,9,-1
 584 1476 l 2,10,11
 628 1476 628 1476 618 1431 c 2,12,-1
 530 1050 l 1,13,-1
 963 1050 l 2,14,15
 1008 1050 1008 1050 1000 1015 c 2,16,-1
 986 953 l 2,17,18
 978 918 978 918 933 918 c 2,19,-1
 500 918 l 1,20,-1
 431 618 l 2,21,22
 424 589 424 589 415 558 c 1,23,-1
 419 558 l 1,24,25
 448 604 448 604 537.5 656 c 128,-1,26
 627 708 627 708 719 708 c 0,27,28
 885 708 885 708 948.5 619 c 128,-1,29
 1012 530 1012 530 1012 362 c 0,30,31
 1012 126 1012 126 838 -93 c 128,-1,32
 664 -312 664 -312 491 -401 c 0,33,34
 458 -418 458 -418 444 -394 c 2,35,-1
 412 -338 l 2,36,37
 399 -316 399 -316 432 -293 c 0,38,39
 535 -221 535 -221 680.5 -31 c 128,-1,40
 826 159 826 159 826 374 c 0,41,42
 826 468 826 468 799 523 c 128,-1,43
 772 578 772 578 681 578 c 0,44,45
 569 578 569 578 473 482.5 c 128,-1,46
 377 387 377 387 350 269 c 2,47,-1
 298 45 l 2,48,49
 288 0 288 0 243 0 c 2,50,-1
 157 0 l 2,51,52
 112 0 112 0 122 45 c 2,53,-1
 324 918 l 1,54,-1
 187 918 l 2,0,1
EndSplineSet
EndChar

